<?xml version="1.0" encoding="utf-8"?>
<!-- Generator: Adobe Illustrator 27.5.0, SVG Export Plug-In . SVG Version: 6.00 Build 0)  -->
<svg version="1.1" xmlns="http://www.w3.org/2000/svg" xmlns:xlink="http://www.w3.org/1999/xlink" x="0px" y="0px"
	 viewBox="0 0 750 500" style="enable-background:new 0 0 750 500;" xml:space="preserve">
<g id="BACKGROUND">
	<rect x="0.229" style="fill:#DAE7FD;" width="400" height="200"/>
</g>
<g id="OBJECTS">
	<g>
		
			<path style="fill:none;stroke:#B5D1F1;stroke-width:1.6981;stroke-linecap:round;stroke-linejoin:round;stroke-miterlimit:10;" d="
			M273.277,220.792h-25.604c-1.605-5.603-3.786-10.964-6.511-15.995l18.024-18.024c2.299-2.299,2.299-6.027,0-8.326l-22.815-22.815
			c-2.299-2.299-6.027-2.299-8.326,0l-17.663,17.663c-5.127-2.939-10.6-5.338-16.355-7.094v-24.659c0-3.252-2.636-5.887-5.887-5.887
			h-32.265c-3.251,0-5.887,2.636-5.887,5.887v23.91c-6.083,1.63-11.887,3.949-17.312,6.887l-16.707-16.706
			c-2.299-2.299-6.027-2.299-8.326,0l-22.815,22.815c-2.299,2.299-2.299,6.027,0,8.326l16.348,16.348
			c-3.161,5.515-5.681,11.436-7.467,17.67H70.738c-3.251,0-5.887,2.636-5.887,5.887v32.265c0,3.251,2.636,5.887,5.887,5.887H93.71
			c1.786,6.233,4.306,12.155,7.467,17.67l-16.348,16.348c-2.299,2.299-2.299,6.027,0,8.326l22.815,22.815
			c2.299,2.299,6.027,2.299,8.326,0l16.707-16.707c5.424,2.938,11.228,5.257,17.312,6.887v23.911c0,3.251,2.636,5.887,5.887,5.887
			h32.265c3.252,0,5.887-2.636,5.887-5.887v-24.66c5.755-1.757,11.228-4.155,16.355-7.094l17.663,17.663
			c2.299,2.299,6.027,2.299,8.326,0l22.815-22.815c2.299-2.299,2.299-6.027,0-8.326l-18.024-18.024
			c2.724-5.031,4.906-10.392,6.511-15.995h25.604c3.252,0,5.888-2.636,5.888-5.887v-32.265
			C279.165,223.428,276.529,220.792,273.277,220.792z M170.692,281.361c-21.255,0-38.551-17.293-38.551-38.549
			c0-21.258,17.295-38.551,38.551-38.551c21.256,0,38.551,17.293,38.551,38.551C209.243,264.068,191.948,281.361,170.692,281.361z"
			/>
		<g>
			<path style="fill:#B5D1F1;" d="M639.535,449.885c53.547-61.051,51.23-125.148,18.849-174.404
				c-43.754-66.556-111.463-68.062-168.831-99.616c-78.111-42.963-117.142-112.296-214.98-79.202
				c-54.202,18.334-66.94,53.304-72.526,99.421c-3.436,28.365-35.335,84.488-82.383,99.702
				c-78.589,25.412-79.517,112.39-24.646,162.861h536.529C634.235,455.786,636.906,452.883,639.535,449.885z"/>
		</g>
		<g>
			<g>
				<path style="fill:none;stroke:#FFFFFF;stroke-width:1.4481;stroke-miterlimit:10;" d="M44.084,285.047
					c0,3.86-3.129,6.989-6.989,6.989s-6.989-3.129-6.989-6.989c0-3.86,3.129-6.989,6.989-6.989S44.084,281.188,44.084,285.047z"/>
				<path style="fill:none;stroke:#FFFFFF;stroke-width:1.4481;stroke-miterlimit:10;" d="M716.781,299.73
					c0,3.86-3.129,6.989-6.989,6.989c-3.86,0-6.989-3.129-6.989-6.989c0-3.86,3.129-6.989,6.989-6.989
					C713.652,292.741,716.781,295.871,716.781,299.73z"/>
				<circle style="fill:none;stroke:#FFFFFF;stroke-width:1.4481;stroke-miterlimit:10;" cx="266.564" cy="182.779" r="6.989"/>
				<path style="fill:none;stroke:#FFFFFF;stroke-width:1.4481;stroke-miterlimit:10;" d="M634.07,91.021
					c0,2.883-2.337,5.22-5.22,5.22c-2.883,0-5.22-2.337-5.22-5.22c0-2.883,2.337-5.22,5.22-5.22
					C631.733,85.801,634.07,88.138,634.07,91.021z"/>
				<path style="fill:none;stroke:#FFFFFF;stroke-width:1.4481;stroke-miterlimit:10;" d="M486.486,349.373
					c0,2.883-2.337,5.22-5.22,5.22s-5.22-2.337-5.22-5.22c0-2.883,2.337-5.22,5.22-5.22S486.486,346.49,486.486,349.373z"/>
				<path style="fill:none;stroke:#FFFFFF;stroke-width:1.4481;stroke-miterlimit:10;" d="M142.034,390.18
					c0,2.883-2.337,5.22-5.22,5.22s-5.22-2.337-5.22-5.22c0-2.883,2.337-5.22,5.22-5.22S142.034,387.298,142.034,390.18z"/>
				
					<path style="fill:none;stroke:#FFFFFF;stroke-width:1.4373;stroke-linecap:round;stroke-linejoin:round;stroke-miterlimit:10;" d="
					M73.83,84.341h74.34c2.314,0,4.189-1.876,4.189-4.189l0,0c0-2.314-1.876-4.189-4.189-4.189H73.83
					c-2.314,0-4.189,1.876-4.189,4.189l0,0C69.641,82.466,71.517,84.341,73.83,84.341z"/>
				<path style="fill:none;stroke:#B5D1F1;stroke-width:1.5;stroke-linecap:round;stroke-linejoin:round;stroke-miterlimit:10;" d="
					M633.203,171.088h64.482c2.404,0,4.353-1.949,4.353-4.353l0,0c0-2.404-1.949-4.353-4.353-4.353h-64.482
					c-2.404,0-4.353,1.949-4.353,4.353l0,0C628.85,169.139,630.799,171.088,633.203,171.088z"/>
				
					<line style="fill:none;stroke:#B5D1F1;stroke-width:1.5;stroke-linecap:round;stroke-linejoin:round;stroke-miterlimit:10;" x1="687.9" y1="411.343" x2="711.754" y2="411.343"/>
				
					<line style="fill:none;stroke:#B5D1F1;stroke-width:1.5;stroke-linecap:round;stroke-linejoin:round;stroke-miterlimit:10;" x1="23.168" y1="400.481" x2="47.022" y2="400.481"/>
				
					<line style="fill:none;stroke:#B5D1F1;stroke-width:1.5;stroke-linecap:round;stroke-linejoin:round;stroke-miterlimit:10;" x1="509.169" y1="37.755" x2="549.109" y2="37.755"/>
			</g>
			<g>
				<g>
					<path style="fill:none;stroke:#DCA73E;stroke-width:6.6014;stroke-miterlimit:10;" d="M251.892,371.291h-46.258v-33.554
						c0-12.774,10.355-23.129,23.129-23.129l0,0c12.774,0,23.129,10.355,23.129,23.129V371.291z"/>
					<path style="fill:#EDC156;" d="M258.855,414.108h-60.186c-2.6,0-4.708-2.108-4.708-4.708v-55.318
						c0-2.6,2.108-4.708,4.708-4.708h60.186c2.6,0,4.708,2.108,4.708,4.708v55.318C263.564,412,261.456,414.108,258.855,414.108z"/>
					<g>
						<circle cx="229.399" cy="375.832" r="8.508"/>
						<path d="M226.427,380.878l-3.23,15.52c-0.293,1.405,0.78,2.725,2.216,2.725h7.949c1.444,0,2.518-1.333,2.212-2.744
							l-3.367-15.501H226.427z"/>
					</g>
					
						<line style="fill:none;stroke:#F8E7C9;stroke-width:2.2005;stroke-linecap:round;stroke-linejoin:round;stroke-miterlimit:10;" x1="201.908" y1="362.966" x2="201.908" y2="403.481"/>
				</g>
				<g>
					<g>
						<circle style="fill:#E59279;" cx="154.367" cy="274.297" r="39.594"/>
					</g>
					<g>
						<path style="fill:#FBFBF1;" d="M149.318,281.741c-7.103,0-12.882-5.779-12.882-12.882s5.779-12.882,12.882-12.882
							c7.103,0,12.882,5.779,12.882,12.882S156.421,281.741,149.318,281.741z M149.318,258.896c-5.494,0-9.963,4.469-9.963,9.963
							s4.469,9.963,9.963,9.963c5.494,0,9.963-4.469,9.963-9.963S154.812,258.896,149.318,258.896z"/>
						
							<rect x="157.823" y="276.162" transform="matrix(0.7071 -0.7071 0.7071 0.7071 -150.5247 194.3031)" style="fill:#FBFBF1;" width="2.919" height="5.378"/>
						<path style="fill:#FBFBF1;" d="M164.172,279.176l7.527,7.527c0.798,0.798,0.798,2.092,0,2.89l-1.674,1.674
							c-0.798,0.798-2.092,0.798-2.89,0l-7.527-7.527c-0.798-0.798-0.798-2.092,0-2.89l1.674-1.674
							C162.08,278.378,163.374,278.378,164.172,279.176z"/>
					</g>
				</g>
				<g>
					<g>
						
							<ellipse transform="matrix(0.1629 -0.9866 0.9866 0.1629 257.2238 697.4397)" style="fill:#5E90E5;" cx="539.618" cy="197.136" rx="53.132" ry="53.132"/>
						<g>
							<path style="fill:#DAE7FD;" d="M512.192,198.206c0-15.639,11.73-26.685,28.249-26.685c10.165,0,18.278,4.203,22.286,12.121
								l-9.384,5.474c-3.128-4.985-7.82-7.233-13-7.233c-8.993,0-15.835,6.256-15.835,16.324c0,10.165,6.842,16.324,15.835,16.324
								c5.181,0,9.872-2.248,13-7.233l9.384,5.474c-4.008,7.82-12.121,12.219-22.286,12.219
								C523.922,224.989,512.192,213.846,512.192,198.206z"/>
						</g>
					</g>
					<g>
						<g>
							<path style="fill:#DAE7FD;" d="M539.618,142.925c29.344,0,53.132,23.788,53.132,53.132c0,29.344-23.788,53.132-53.132,53.132
								c-29.344,0-53.132-23.788-53.132-53.132C486.486,166.713,510.274,142.925,539.618,142.925 M539.618,136.45
								c-32.867,0-59.607,26.74-59.607,59.607c0,32.867,26.74,59.607,59.607,59.607c32.867,0,59.607-26.74,59.607-59.607
								C599.225,163.19,572.485,136.45,539.618,136.45L539.618,136.45z"/>
						</g>
					</g>
				</g>
				<g>
					<path style="fill:#9DC2E5;" d="M607.342,418.108h-86.453c-2.487,0-4.503-2.016-4.503-4.503V297.135
						c0-2.487,2.016-4.503,4.503-4.503h86.453c2.487,0,4.503,2.016,4.503,4.503v116.469
						C611.845,416.092,609.829,418.108,607.342,418.108z"/>
					<path style="fill:#FFFFFF;" d="M617.443,405.656H530.99c-2.487,0-4.503-2.016-4.503-4.503v-116.47
						c0-2.487,2.016-4.503,4.503-4.503h86.453c2.487,0,4.503,2.016,4.503,4.503v116.47
						C621.946,403.64,619.93,405.656,617.443,405.656z"/>
					<g>
						<rect x="538.266" y="298.456" style="fill:#B5D1F1;" width="45.822" height="4.523"/>
						<rect x="538.266" y="321.449" style="fill:#B5D1F1;" width="69.945" height="4.523"/>
						<rect x="538.266" y="336.632" style="fill:#B5D1F1;" width="69.945" height="4.523"/>
						<rect x="538.266" y="351.815" style="fill:#B5D1F1;" width="69.945" height="4.523"/>
						<rect x="538.266" y="366.999" style="fill:#B5D1F1;" width="69.945" height="4.523"/>
						<rect x="538.266" y="382.181" style="fill:#B5D1F1;" width="69.945" height="4.523"/>
					</g>
				</g>
				<g>
					<path style="fill:#E59279;" d="M536.638,107.19h-54.444c-2.296,0-4.157-1.861-4.157-4.157V75.317
						c0-2.296,1.861-4.157,4.157-4.157h54.444c2.296,0,4.157,1.861,4.157,4.157v27.716
						C540.795,105.329,538.934,107.19,536.638,107.19z"/>
					<polygon style="fill:#E59279;" points="486.266,102.901 486.266,119.614 504.036,102.901 					"/>
					<g>
						<g>
							<path style="fill:#FFFFFF;" d="M516.156,96.698c-4.149,0-7.523-3.375-7.523-7.523c0-4.148,3.374-7.523,7.523-7.523
								c4.149,0,7.525,3.375,7.525,7.523C523.681,93.323,520.305,96.698,516.156,96.698z M516.156,84.877
								c-2.37,0-4.298,1.929-4.298,4.298s1.928,4.298,4.298,4.298c2.371,0,4.3-1.929,4.3-4.298S518.526,84.877,516.156,84.877z"/>
						</g>
						<g>
							<polygon style="fill:#FFFFFF;" points="498.376,94.156 495.151,94.156 495.151,87.562 510.245,87.562 510.245,90.787 
								498.376,90.787 							"/>
						</g>
						<g>
							<rect x="500.152" y="89.175" style="fill:#FFFFFF;" width="3.225" height="3.759"/>
						</g>
					</g>
				</g>
				<g>
					<g>
						
							<ellipse transform="matrix(1 -0.0023 0.0023 1 -0.2286 0.5271)" style="fill:#EDC156;" cx="232.406" cy="101.08" rx="46.651" ry="46.651"/>
						<polygon style="fill:#EDC156;" points="258.86,129.874 288.131,137.904 269.795,114.043 						"/>
					</g>
					<g>
						<path style="fill:#FFFFFF;" d="M246.858,98.311c0-7.917-6.46-14.377-14.377-14.377c-7.917,0-14.377,6.46-14.377,14.377
							c0,1.14,0.127,2.28,0.443,3.42c0.38,1.837,1.077,2.977,2.027,4.56c0.19,0.38,0.443,0.76,0.697,1.203
							c0.317,0.507,0.57,1.013,0.887,1.457c1.267,2.09,2.027,3.293,2.027,5.763v5.954c0,1.52,1.077,2.723,2.533,2.977
							c0.633,3.23,2.533,5.257,5.764,5.257c3.23,0,5.193-2.027,5.763-5.257c1.457-0.253,2.533-1.52,2.533-2.977v-5.954
							c0-2.47,0.76-3.737,2.027-5.763c0.253-0.443,0.57-0.95,0.887-1.457c0.253-0.443,0.507-0.823,0.697-1.203
							c0.95-1.583,1.647-2.723,2.027-4.56C246.731,100.591,246.858,99.451,246.858,98.311z M238.308,116.235h-11.527v-1.457
							c0-0.317,0-0.57-0.063-0.823h11.59c0,0.253-0.063,0.507-0.063,0.823v1.457H238.308z M237.738,121.239h-10.514
							c-0.317,0-0.507-0.253-0.507-0.507v-1.963h11.527v1.963C238.308,120.985,238.054,121.239,237.738,121.239z M232.481,126.432
							c-0.697,0-2.47,0-3.167-2.66h6.397C235.014,126.432,233.178,126.432,232.481,126.432z M243.945,101.225
							c-0.317,1.393-0.823,2.343-1.71,3.8c-0.253,0.38-0.443,0.76-0.697,1.203c-0.317,0.507-0.57,1.013-0.823,1.393
							c-0.76,1.267-1.457,2.407-1.9,3.737h-12.54c-0.443-1.33-1.077-2.47-1.9-3.737c-0.253-0.443-0.57-0.887-0.823-1.393
							c-0.253-0.443-0.507-0.887-0.697-1.203c-0.887-1.52-1.393-2.407-1.71-3.863c-0.253-0.95-0.38-1.9-0.38-2.85
							c0-6.523,5.32-11.844,11.844-11.844c6.524,0,11.844,5.32,11.844,11.844C244.325,99.261,244.198,100.211,243.945,101.225z"/>
						<path style="fill:#FFFFFF;" d="M247.175,84.884c0.317,0,0.633-0.127,0.887-0.38l3.737-3.737c0.507-0.507,0.507-1.267,0-1.773
							c-0.507-0.507-1.267-0.507-1.773,0l-3.737,3.737c-0.507,0.507-0.507,1.267,0,1.773
							C246.541,84.757,246.858,84.884,247.175,84.884z"/>
						<path style="fill:#FFFFFF;" d="M232.481,78.741c0.697,0,1.267-0.57,1.267-1.267v-5.257c0-0.697-0.57-1.267-1.267-1.267
							c-0.697,0-1.267,0.57-1.267,1.267v5.257C231.214,78.17,231.784,78.741,232.481,78.741z"/>
						<path style="fill:#FFFFFF;" d="M216.9,84.504c0.253,0.253,0.57,0.38,0.887,0.38c0.317,0,0.633-0.127,0.887-0.38
							c0.507-0.507,0.507-1.267,0-1.773l-3.737-3.737c-0.507-0.507-1.267-0.507-1.773,0c-0.507,0.507-0.507,1.267,0,1.773
							L216.9,84.504z"/>
					</g>
				</g>
			</g>
		</g>
	</g>
	<g>
		<g>
			<g>
				<g>
					<g>
						<polygon style="fill:#E59279;" points="365.165,121.951 361.282,168.936 390.218,185.889 391.019,130.946 						"/>
						<polygon points="390.548,164.275 366.849,135.659 391.019,140.972 						"/>
						<path style="fill:#D7896D;" d="M399.939,123.396c0.715-3.962,2.111-7.792,4.299-11.292c3.002-4.801,7.369-9.285,13.135-5.98
							c9.819,5.629-1.562,21.444-12.128,21.963C402.137,128.24,399.488,125.89,399.939,123.396L399.939,123.396z"/>
						<path style="fill:#E59279;" d="M374.447,58.128c7.349-1.41,15.021-1.263,22.203,0.839
							c9.728,2.846,21.926,10.045,22.115,28.251c0.315,30.342-5.071,52.613-20.48,58.282c-11.83,4.352-19.993,1.689-32.553-6.992
							c-4.674-3.23-9.387-14.037-10.267-19.91l-3.586-16.468C351.878,102.13,339.328,64.867,374.447,58.128z"/>
						<g>
							
								<polyline style="fill:none;stroke:#000000;stroke-width:0.8753;stroke-linecap:round;stroke-linejoin:round;stroke-miterlimit:10;" points="
								401.998,111.062 404.748,117.78 401.03,119.474 							"/>
							<g>
								<g>
									<defs>
										<path id="XMLID_17_" d="M391.358,104.374c0,0,0.151-4.494-8.416-4.248c-7.691,0.221-8.718,3.619-8.718,3.619
											s0.629,5.658,9.025,6.174C391.647,110.437,391.358,104.374,391.358,104.374z"/>
									</defs>
									<use xlink:href="#XMLID_17_"  style="overflow:visible;fill:#FFFFFF;"/>
									<clipPath id="XMLID_00000016763609207260972770000010762071677848437127_">
										<use xlink:href="#XMLID_17_"  style="overflow:visible;"/>
									</clipPath>
									<path style="clip-path:url(#XMLID_00000016763609207260972770000010762071677848437127_);" d="M378.647,104.623
										c-0.12,3.082,2.286,5.668,5.373,5.774c3.087,0.107,5.688-2.305,5.807-5.387c0.12-3.082-2.286-5.668-5.373-5.774
										C381.367,99.129,378.767,101.541,378.647,104.623z"/>
								</g>
								<g>
									<path d="M390.927,103.525c-0.428-0.43-1.096-0.908-1.725-1.277c-0.65-0.38-1.341-0.705-2.059-0.967
										c-1.43-0.524-2.982-0.852-4.516-0.922c-1.538-0.08-3.083,0.178-4.507,0.766c-1.407,0.592-2.733,1.557-3.629,2.781
										l-0.022,0.03c-0.101,0.137-0.294,0.167-0.431,0.067c-0.132-0.097-0.164-0.279-0.078-0.415
										c1.846-2.896,5.286-4.462,8.673-4.513c1.7-0.034,3.374,0.187,5.019,0.657c0.82,0.234,1.625,0.542,2.401,0.924
										c0.789,0.402,1.497,0.8,2.266,1.46c0.416,0.357,0.463,0.983,0.106,1.399c-0.357,0.416-0.983,0.463-1.399,0.106
										c-0.019-0.016-0.037-0.033-0.055-0.051L390.927,103.525z"/>
								</g>
							</g>
							<g>
								<g>
									<defs>
										<path id="XMLID_16_" d="M405.017,104.37c0,0-0.184-4.493,5.266-4.166c4.892,0.294,5.611,3.7,5.611,3.7
											s-0.526,5.08-5.852,5.516C404.716,109.857,405.017,104.37,405.017,104.37z"/>
									</defs>
									<use xlink:href="#XMLID_16_"  style="overflow:visible;fill:#FFFFFF;"/>
									<clipPath id="XMLID_00000029044741114956205140000010703170028799880623_">
										<use xlink:href="#XMLID_16_"  style="overflow:visible;"/>
									</clipPath>
									<path style="clip-path:url(#XMLID_00000029044741114956205140000010703170028799880623_);" d="M414.356,104.709
										c-0.03,2.763-1.727,4.984-3.792,4.962c-2.064-0.022-3.714-2.28-3.684-5.042c0.03-2.763,1.727-4.984,3.792-4.962
										C412.737,99.689,414.386,101.947,414.356,104.709z"/>
								</g>
								<g>
									<path d="M404.151,102.394c0.829-1.099,1.811-1.844,2.962-2.398c1.147-0.531,2.39-0.796,3.662-0.695
										c1.274,0.099,2.463,0.707,3.348,1.54c0.892,0.843,1.549,1.852,2.001,2.973c0.051,0.126-0.01,0.269-0.136,0.32
										c-0.12,0.048-0.256-0.005-0.312-0.119l-0.009-0.019c-0.484-0.985-1.19-1.908-2.035-2.587
										c-0.848-0.68-1.87-1.097-2.914-1.099c-1.036-0.012-2.109,0.315-3.01,0.832c-0.896,0.506-1.724,1.302-2.219,2.094
										l-0.034,0.054c-0.232,0.37-0.72,0.482-1.09,0.251c-0.37-0.232-0.482-0.72-0.251-1.09
										C404.124,102.431,404.138,102.411,404.151,102.394z"/>
								</g>
							</g>
							<path d="M375.971,92.289l13.805,5.519c2.044,1.07,4.566,0.145,5.433-1.994l0,0c0.783-1.932-0.089-4.138-1.98-5.013
								l-14.382-4.349c-1.601-0.741-3.501-0.072-4.284,1.509l0,0C373.778,89.546,374.403,91.468,375.971,92.289z"/>
							<path d="M416.942,95.272l-8.828,2.423c-2.015,0.922-4.339-0.181-5.007-2.375l0,0c-0.603-1.982,0.382-4.12,2.238-4.859
								l9.291-1.215c1.571-0.625,3.324,0.178,3.952,1.81l0,0C419.218,92.692,418.487,94.565,416.942,95.272z"/>
							
								<path style="fill:none;stroke:#000000;stroke-width:0.8753;stroke-linecap:round;stroke-linejoin:round;stroke-miterlimit:10;" d="
								M403.373,125.934c0,0-3.688-1.488-10.867,0.083"/>
						</g>
						<path style="fill:#775633;" d="M356.931,112.926l5.156-0.103l0.908-14.316l16.822-23.996l-27.672-4.405
							c0,0-5.824,4.388-6.397,8.106c-2.477,16.068,5.756,29.417,5.756,29.417L356.931,112.926z"/>
						<g>
							<path style="fill:#E59279;" d="M358.4,119.314c0.209-3.967,0.483-7.024-0.927-10.886c-1.934-5.298-5.343-10.606-12.037-8.757
								c-11.401,3.148-4.292,20.002,6.411,22.928C354.995,123.459,358.268,121.811,358.4,119.314L358.4,119.314z"/>
						</g>
						
							<path style="fill:none;stroke:#000000;stroke-width:0.8753;stroke-linecap:round;stroke-linejoin:round;stroke-miterlimit:10;" d="
							M345.749,108.317c0,0,4.565-0.004,6.201,4.609"/>
					</g>
				</g>
				<g>
					<path style="fill:#233354;" d="M343.916,78.213l-16.546-5.798c0,0,0.807-17.222,38.708-32.821
						c33.58-13.821,40.588-7.879,52.161,0c11.572,7.879,17.767,22.062,17.767,22.062l-15.569,5.167L343.916,78.213z"/>
					<path style="fill:#314870;" d="M343.916,85.152v-6.939c0,0,22.498-19.422,45.134-22.873c6.227-0.95,12.609-0.029,18.308,2.654
						c3.798,1.788,8.403,4.563,13.079,8.829l-1.963,5.256L343.916,85.152z"/>
					<path d="M343.916,85.152v3.222l16.379-1.611c0,0,42.462-10.085,72.209-3.524c1.254,0.277,2.506-0.378,2.963-1.579l0,0
						c0.465-1.224-0.06-2.602-1.221-3.207l-17.565-9.149C416.681,69.304,391.979,52.663,343.916,85.152z"/>
					<path style="fill:#99C7FC;" d="M404.474,37.698c-3.231,5.797-6.876,0.113-6.945,0.005v-0.005c0,0-0.001,0.002-0.002,0.002
						c0,0-0.002-0.002-0.002-0.002v0.005c-0.069,0.108-3.715,5.792-6.945-0.005c0,0-2.126,12.413,6.945,14.313v0.001
						c0.001,0,0.001,0,0.002,0c0,0,0.001,0,0.002,0v-0.001C406.601,50.11,404.474,37.698,404.474,37.698z"/>
					<circle style="fill:#EEC166;" cx="355.077" cy="74.17" r="1.882"/>
					<path style="fill:#EEC166;" d="M418.303,66.752c0,0.835-0.677,1.512-1.512,1.512c-0.835,0-1.512-0.677-1.512-1.512
						c0-0.835,0.677-1.512,1.512-1.512C417.626,65.24,418.303,65.917,418.303,66.752z"/>
					<circle style="fill:#FFFFFF;" cx="397.778" cy="45.053" r="2.984"/>
				</g>
			</g>
			<g>
				<g>
					<path style="fill:#314870;" d="M351.391,177.357l-33.206,11.055c-7.601,2.897-2.346,10.503-1.601,18.603l3.661,131.791
						l105.438-3.732l8.294-112.767c1.303-18.09-7.663-34.2-23.062-39.857c-1.601-0.588-13.773-5.03-15.477-5.093
						c-1.073-0.04-2.82-0.057-4.752-0.062l-0.468,8.593l-9.861-8.539L351.391,177.357z"/>
					<g>
						<path d="M390.218,185.889c0,0-13.494-13.13-28.326-21.614l-12.301,13.682c0,0,9.172,0.23,24.802,28.948L390.218,185.889z"/>
						<path d="M390.003,185.889l16.432,14.036c0,0,1.987-20.478-15.953-32.22L390.003,185.889z"/>
						<path style="fill:none;stroke:#233354;stroke-width:1.2062;stroke-miterlimit:10;" d="M390.218,185.889
							c0,0,10.807,57.903,6.952,149.186"/>
					</g>
				</g>
				<g>
					<g>
						<path style="fill:#314870;" d="M353.957,199.449l-5.67-6.013c-9.411-9.981-32.383-3.714-32.383-3.714
							c-26.048,22.831-43.088,97.88-43.088,97.88c-2.644,9.671-1.7,18.526,4.634,25.781c3.547,4.063,8.511,6.154,17.479,6.881
							c6.882,0.559,13.807,0.113,20.597-1.143c4.284-0.792,8.942-1.691,9.954-2.029l17.957-5.566l7.954-38.071l-21.123,2.059
							l24.896-48.188C361.735,219.021,361.222,207.154,353.957,199.449z"/>
						
							<line style="fill:none;stroke:#233354;stroke-width:1.2062;stroke-miterlimit:10;" x1="319.511" y1="318.371" x2="394.291" y2="300.535"/>
						<polyline style="fill:none;stroke:#233354;stroke-width:1.2062;stroke-miterlimit:10;" points="344.813,224.001 
							329.68,269.085 302.825,273.34 						"/>
					</g>
					<g>
						<path style="fill:#314870;" d="M423.607,190.834c0,0,17.986,13.233,40.291,95.04c1.181,4.333,1.076,8.935-0.326,13.202l0,0
							c-3.754,11.425-15.325,18.362-27.171,16.29l-8.419-1.984l-31.037-11.279L423.607,190.834z"/>
						<g>
							<g>
								<polygon style="fill:#314870;" points="354.419,278.712 361.692,254.338 439.296,268.476 399.621,301.934 								"/>
								<path style="fill:#E59279;" d="M359.946,260.189l-15.698-0.959c-4.791-0.293-9.373,1.993-12.017,5.994l-2.551,3.862
									l24.739,9.628L359.946,260.189z"/>
							</g>
							<path style="fill:#E59279;" d="M423.453,253.843c0,0-18.262-4.363-26.284,5.968l27.49,4.857L423.453,253.843z"/>
						</g>
						<path style="fill:none;stroke:#233354;stroke-width:1.2062;stroke-miterlimit:10;" d="M354.419,278.712
							c0,0,40.826,25.895,73.563,34.67"/>
						<path style="fill:none;stroke:#233354;stroke-width:1.2062;stroke-miterlimit:10;" d="M424.742,265.824
							c0,0-2.428-25.275-6.013-42.903"/>
						<polyline style="fill:none;stroke:#233354;stroke-width:1.2062;stroke-miterlimit:10;" points="439.296,268.476 
							361.692,254.338 359.946,260.189 						"/>
					</g>
				</g>
			</g>
			<g>
				<g>
					<polygon points="320.245,338.807 320.245,357.029 426.695,353.285 425.682,335.075 					"/>
					<polygon style="fill:#EDC156;" points="385.765,335.075 385.765,355.856 410.516,354.803 410.516,335.075 					"/>
				</g>
				<g>
					<path style="fill:#314870;" d="M320.245,357.029c0,0-9.596,25.056-4.642,67.859l-1.48,33.759h115.294
						c-2.721-105.362-2.721-105.362-2.721-105.362L320.245,357.029z"/>
					<polyline style="fill:none;stroke:#233354;stroke-width:1.2062;stroke-miterlimit:10;" points="410.914,382.085 
						390.995,393.723 388.003,458.647 					"/>
				</g>
			</g>
		</g>
		<line style="fill:none;stroke:#233354;stroke-miterlimit:10;" x1="69.641" y1="458.647" x2="678.9" y2="458.647"/>
	</g>
</g>
</svg>
