<?xml version="1.0" encoding="utf-8"?>
<!-- Generator: Adobe Illustrator 27.5.0, SVG Export Plug-In . SVG Version: 6.00 Build 0)  -->
<svg version="1.1" xmlns="http://www.w3.org/2000/svg" xmlns:xlink="http://www.w3.org/1999/xlink" x="0px" y="0px"
	 viewBox="0 0 750 500" style="enable-background:new 0 0 750 500;" xml:space="preserve">
<g id="Background_Complete">
	<g>
		<g>
			<g>
				<g>
					<g>
						<g>
							<g>
								<rect x="287.622" y="68.503" style="fill:#FAFAFA;" width="365.798" height="244.999"/>
							</g>
						</g>
					</g>
					<g>
						<g>
							<g>
								<rect x="287.622" y="68.503" style="fill:#EBEBEB;" width="365.798" height="24.473"/>
							</g>
						</g>
					</g>
					<g>
						<g>
							<g>
								<path style="fill:#FAFAFA;" d="M303.466,80.739c0,1.518-1.324,2.748-2.956,2.748c-1.633,0-2.957-1.23-2.957-2.748
									c0-1.518,1.324-2.748,2.957-2.748C302.142,77.991,303.466,79.221,303.466,80.739z"/>
							</g>
						</g>
					</g>
					<g>
						<g>
							<g>
								<path style="fill:#FAFAFA;" d="M313.007,80.739c0,1.518-1.323,2.748-2.956,2.748c-1.633,0-2.956-1.23-2.956-2.748
									c0-1.518,1.324-2.748,2.956-2.748C311.684,77.991,313.007,79.221,313.007,80.739z"/>
							</g>
						</g>
					</g>
					<g>
						<g>
							<g>
								<path style="fill:#FAFAFA;" d="M322.548,80.739c0,1.518-1.323,2.748-2.956,2.748c-1.632,0-2.956-1.23-2.956-2.748
									c0-1.518,1.324-2.748,2.956-2.748C321.225,77.991,322.548,79.221,322.548,80.739z"/>
							</g>
						</g>
					</g>
				</g>
			</g>
		</g>
	</g>
</g>
<g id="Background_Simple" style="display:none;">
	<path style="display:inline;fill:#F5F5F5;" d="M94.901,100.273c15.429-40.49,61.822-63.986,105.007-60.456
		c43.186,3.53,82.076,30.001,108.973,63.972c15.853,20.023,28.902,43.401,50.563,56.93c21.156,13.214,47.643,14.969,72.398,11.904
		c24.755-3.065,48.77-10.512,73.416-14.354c48.296-7.529,102.44,1.06,136.191,36.415c22.041,23.088,33.041,55.899,30.947,87.749
		c-2.095,31.851-16.744,56.326-39.29,78.921c-29.097,29.159-85.954,44.971-126.88,49.655
		c-109.986,12.588-218.192,1.428-285.606-42.165C132.134,311.625,56.249,205.98,94.901,100.273"/>
</g>
<g id="Plant">
	<g>
		<g>
			<g>
				<g>
					<path style="fill:#E8505B;" d="M621.529,345.455c-19.116-13.355-23.453-38.145-22.697-60.428
						c0.126-3.72-0.283-7.641,1.486-10.905c1.77-3.263,5.898-5.493,9.229-3.926c2.762,1.3,3.966,4.513,5.512,7.171
						c2.056,3.536,5.119,6.462,8.724,8.332c2.369,1.229,5.299,1.981,7.637,0.691c3.208-1.77,3.587-6.203,3.564-9.903
						c-0.044-6.895-0.086-13.791-0.129-20.685c-0.023-3.699-0.034-7.477,1.117-10.988c1.15-3.511,3.693-6.773,7.212-7.759
						c3.52-0.985,7.872,1.044,8.615,4.665c0.309,1.507,0.002,3.071,0.105,4.607c0.103,1.536,0.818,3.235,2.277,3.663
						c1.477,0.434,2.957-0.615,4.063-1.698c3.819-3.735,6.41-8.547,8.831-13.333c2.422-4.785,4.772-9.684,8.237-13.758
						c3.465-4.074,8.257-7.303,13.555-7.603c5.299-0.3,10.943,2.97,12.282,8.171c1.343,5.216-1.7,10.507-5.011,14.729
						c-4.912,6.264-10.724,11.803-17.193,16.389c-1.166,0.828-2.43,1.722-2.876,3.092c-0.804,2.466,1.533,4.916,3.968,5.727
						c2.758,0.918,5.75,0.632,8.634,0.972c2.885,0.34,6.01,1.612,7.101,4.338c1.515,3.781-1.647,7.745-4.759,10.34
						c-6.23,5.199-13.346,9.305-20.936,12.085c-2.721,0.996-5.585,1.869-7.78,3.781c-2.195,1.913-3.519,5.237-2.193,7.843
						c1.327,2.609,4.73,3.443,7.58,2.913c2.849-0.528,5.402-2.076,8.118-3.101c5.084-1.919,11.649-1.568,14.906,2.825
						c2.14,2.888,2.329,6.91,1.246,10.353c-1.082,3.443-3.277,6.408-5.608,9.143c-8.148,9.56-18.579,17.256-30.374,21.346
						C644.177,348.634,633.249,349.741,621.529,345.455"/>
				</g>
			</g>
		</g>
		<g>
			<g>
				<g>
					<g>
						<path style="fill:#263238;" d="M621.236,361.975c0.807-8.828,2.743-19.253,6.045-30.49c3.28-11.246,7.897-23.274,13.159-35.69
							c1.327-3.098,2.638-6.16,3.93-9.178c1.297-3.009,2.583-5.994,4.021-8.835c2.852-5.697,6.028-10.956,9.199-15.853
							c3.17-4.901,6.356-9.437,9.366-13.655c3.021-4.214,5.91-8.089,8.695-11.508c5.549-6.862,10.67-11.856,14.326-15.142
							c1.825-1.649,3.282-2.882,4.281-3.704c0.481-0.39,0.858-0.697,1.142-0.928c0.26-0.205,0.396-0.306,0.404-0.297
							c0.008,0.009-0.114,0.128-0.359,0.352c-0.273,0.243-0.637,0.567-1.098,0.979c-0.969,0.856-2.398,2.12-4.193,3.797
							c-3.595,3.342-8.645,8.371-14.13,15.252c-2.753,3.429-5.613,7.311-8.609,11.534c-2.988,4.231-6.153,8.771-9.301,13.668
							c-3.148,4.895-6.299,10.142-9.127,15.811c-1.426,2.828-2.697,5.787-3.995,8.805c-1.291,3.016-2.599,6.077-3.925,9.174
							c-5.257,12.406-9.88,24.398-13.184,35.6c-3.323,11.193-5.3,21.566-6.165,30.356"/>
					</g>
				</g>
			</g>
		</g>
		<g>
			<g>
				<g>
					<g>
						<path style="fill:#263238;" d="M648.584,277.756c-0.046,0.007-0.172-0.555-0.361-1.578c-0.195-1.022-0.427-2.51-0.686-4.353
							c-0.523-3.683-1.072-8.795-1.656-14.432c-0.584-5.641-1.203-10.73-1.781-14.395c-0.284-1.833-0.528-3.315-0.711-4.337
							c-0.176-1.024-0.253-1.595-0.207-1.606c0.046-0.01,0.209,0.541,0.465,1.55c0.262,1.007,0.58,2.48,0.925,4.309
							c0.702,3.657,1.4,8.759,1.984,14.404c0.562,5.565,1.069,10.599,1.457,14.446c0.186,1.737,0.344,3.2,0.471,4.375
							C648.592,277.173,648.631,277.749,648.584,277.756z"/>
					</g>
				</g>
			</g>
		</g>
		<g>
			<g>
				<g>
					<g>
						<path style="fill:#263238;" d="M696.148,268.867c0.001,0.047-0.675,0.126-1.897,0.227c-1.22,0.109-2.987,0.256-5.164,0.509
							c-4.356,0.47-10.351,1.33-16.924,2.569c-6.573,1.251-12.472,2.636-16.71,3.761c-2.124,0.547-3.831,1.037-5.013,1.368
							c-1.181,0.336-1.84,0.5-1.856,0.456c-0.015-0.046,0.619-0.296,1.778-0.712c1.16-0.41,2.851-0.971,4.964-1.582
							c4.218-1.248,10.121-2.713,16.713-3.968c6.592-1.241,12.621-2.029,17.003-2.376c2.19-0.191,3.967-0.266,5.196-0.291
							C695.466,268.808,696.145,268.819,696.148,268.867z"/>
					</g>
				</g>
			</g>
		</g>
		<g>
			<g>
				<g>
					<g>
						<path style="fill:#263238;" d="M627.865,330.611c-0.022,0.01-0.133-0.19-0.326-0.58c-0.22-0.465-0.488-1.033-0.813-1.721
							c-0.7-1.497-1.656-3.691-2.801-6.415c-2.295-5.449-5.228-13.075-8.35-21.534c-3.125-8.463-5.983-16.106-8.16-21.594
							c-1.067-2.668-1.946-4.863-2.598-6.494c-0.279-0.708-0.509-1.292-0.697-1.771c-0.152-0.407-0.222-0.626-0.201-0.637
							c0.022-0.009,0.133,0.191,0.326,0.581c0.22,0.465,0.488,1.032,0.813,1.719c0.7,1.497,1.655,3.691,2.801,6.416
							c2.295,5.449,5.228,13.075,8.351,21.538c3.124,8.46,5.982,16.102,8.159,21.592c1.068,2.667,1.946,4.863,2.598,6.493
							c0.279,0.708,0.509,1.293,0.697,1.772C627.817,330.382,627.887,330.601,627.865,330.611z"/>
					</g>
				</g>
			</g>
		</g>
		<g>
			<g>
				<g>
					<g>
						<path style="fill:#263238;" d="M691.07,310.24c0.006,0.023-0.21,0.111-0.627,0.259c-0.494,0.166-1.101,0.369-1.836,0.615
							c-1.695,0.55-3.984,1.292-6.768,2.193c-5.715,1.854-13.578,4.504-22.263,7.444c-8.687,2.943-16.583,5.522-22.338,7.258
							c-2.877,0.869-5.212,1.548-6.835,1.984c-0.75,0.197-1.369,0.359-1.872,0.492c-0.43,0.105-0.66,0.149-0.666,0.126
							c-0.006-0.023,0.21-0.111,0.627-0.26c0.493-0.164,1.099-0.367,1.836-0.614c1.695-0.55,3.983-1.291,6.767-2.193
							c5.715-1.852,13.579-4.504,22.267-7.445c8.685-2.941,16.579-5.521,22.334-7.257c2.877-0.869,5.212-1.548,6.836-1.984
							c0.75-0.197,1.368-0.36,1.872-0.492C690.834,310.261,691.063,310.217,691.07,310.24z"/>
					</g>
				</g>
			</g>
		</g>
	</g>
</g>
<g id="Sparkles">
	<g>
		<g>
			<g>
				<g>
					<path style="fill:#263238;" d="M202.347,184.362c0,0.217-1.588,0.392-3.547,0.392c-1.96,0-3.547-0.176-3.547-0.392
						s1.588-0.392,3.547-0.392C200.759,183.97,202.347,184.145,202.347,184.362z"/>
				</g>
			</g>
			<g>
				<g>
					<path style="fill:#263238;" d="M206.115,174.713c0.217,0,0.392,1.611,0.392,3.599c0,1.988-0.176,3.599-0.392,3.599
						c-0.217,0-0.392-1.611-0.392-3.599C205.722,176.324,205.898,174.713,206.115,174.713z"/>
				</g>
			</g>
		</g>
		<g>
			<g>
				<g>
					<path style="fill:#263238;" d="M210.127,184.131c0-0.217,1.588-0.393,3.547-0.393c1.959,0,3.547,0.176,3.547,0.393
						c0,0.217-1.588,0.392-3.547,0.392C211.715,184.523,210.127,184.348,210.127,184.131z"/>
				</g>
			</g>
			<g>
				<g>
					<path style="fill:#263238;" d="M206.359,193.78c-0.217,0-0.392-1.612-0.392-3.599c0-1.988,0.176-3.599,0.392-3.599
						c0.217,0,0.392,1.611,0.392,3.599C206.752,192.169,206.576,193.78,206.359,193.78z"/>
				</g>
			</g>
		</g>
		<g>
			<g>
				<path style="fill:#263238;" d="M212.093,189.641c-0.167,0.139-0.866-0.425-1.562-1.258c-0.697-0.834-1.126-1.623-0.96-1.762
					c0.166-0.139,0.866,0.424,1.562,1.259C211.829,188.714,212.259,189.503,212.093,189.641z"/>
			</g>
		</g>
		<g>
			<g>
				<path style="fill:#263238;" d="M211.761,178.699c0.154,0.153-0.308,0.868-1.031,1.597c-0.723,0.729-1.434,1.197-1.588,1.044
					c-0.154-0.152,0.307-0.868,1.031-1.597C210.896,179.014,211.607,178.546,211.761,178.699z"/>
			</g>
		</g>
		<g>
			<g>
				<path style="fill:#263238;" d="M203.63,181.486c-0.139,0.167-0.809-0.163-1.497-0.736c-0.689-0.573-1.134-1.172-0.996-1.339
					c0.139-0.166,0.809,0.163,1.498,0.736C203.323,180.721,203.769,181.32,203.63,181.486z"/>
			</g>
		</g>
		<g>
			<g>
				<path style="fill:#263238;" d="M203.311,186.309c0.16,0.146-0.242,0.848-0.898,1.569c-0.656,0.72-1.318,1.186-1.479,1.04
					c-0.16-0.146,0.242-0.848,0.899-1.569C202.489,186.629,203.151,186.163,203.311,186.309z"/>
			</g>
		</g>
	</g>
	<g>
		<g>
			<g>
				<g>
					<path style="fill:#263238;" d="M60.897,290.853c0,0.123-0.902,0.223-2.014,0.223c-1.112,0-2.014-0.1-2.014-0.223
						c0-0.123,0.902-0.223,2.014-0.223C59.996,290.631,60.897,290.73,60.897,290.853z"/>
				</g>
			</g>
			<g>
				<g>
					<path style="fill:#263238;" d="M63.036,285.375c0.123,0,0.223,0.915,0.223,2.043c0,1.129-0.1,2.043-0.223,2.043
						c-0.123,0-0.223-0.915-0.223-2.043C62.813,286.29,62.913,285.375,63.036,285.375z"/>
				</g>
			</g>
		</g>
		<g>
			<g>
				<g>
					<path style="fill:#263238;" d="M65.314,290.722c0-0.123,0.902-0.223,2.014-0.223c1.112,0,2.014,0.1,2.014,0.223
						c0,0.123-0.902,0.223-2.014,0.223C66.216,290.945,65.314,290.845,65.314,290.722z"/>
				</g>
			</g>
			<g>
				<g>
					<path style="fill:#263238;" d="M63.175,296.2c-0.123,0-0.223-0.915-0.223-2.043c0-1.129,0.1-2.043,0.223-2.043
						c0.123,0,0.223,0.915,0.223,2.043C63.398,295.285,63.298,296.2,63.175,296.2z"/>
				</g>
			</g>
		</g>
		<g>
			<g>
				<path style="fill:#263238;" d="M66.43,293.851c-0.094,0.079-0.492-0.241-0.887-0.715c-0.395-0.473-0.639-0.921-0.545-1
					c0.095-0.079,0.492,0.241,0.887,0.715C66.281,293.324,66.525,293.772,66.43,293.851z"/>
			</g>
		</g>
		<g>
			<g>
				<path style="fill:#263238;" d="M66.242,287.638c0.087,0.087-0.175,0.493-0.585,0.907c-0.411,0.414-0.814,0.68-0.902,0.593
					c-0.087-0.087,0.175-0.493,0.585-0.907C65.751,287.817,66.155,287.552,66.242,287.638z"/>
			</g>
		</g>
		<g>
			<g>
				<path style="fill:#263238;" d="M61.626,289.221c-0.079,0.095-0.459-0.092-0.85-0.418c-0.391-0.325-0.644-0.666-0.565-0.76
					c0.079-0.095,0.459,0.092,0.85,0.418C61.452,288.786,61.705,289.126,61.626,289.221z"/>
			</g>
		</g>
		<g>
			<g>
				<path style="fill:#263238;" d="M61.445,291.959c0.091,0.083-0.137,0.482-0.51,0.89c-0.373,0.409-0.748,0.673-0.839,0.591
					c-0.091-0.083,0.137-0.482,0.51-0.891C60.978,292.141,61.354,291.876,61.445,291.959z"/>
			</g>
		</g>
	</g>
	<g>
		<path style="fill:#263238;" d="M211.744,272.953l0.231,0.555c0.404,0.969,1.178,1.737,2.152,2.132l0.603,0.245l-0.579,0.235
			c-0.987,0.401-1.77,1.185-2.168,2.173l-0.163,0.405l-0.244-0.508c-0.444-0.925-1.232-1.64-2.196-1.991l-0.526-0.192l0.687-0.333
			c0.865-0.419,1.546-1.14,1.916-2.027L211.744,272.953z"/>
	</g>
	<g>
		<path style="fill:#263238;" d="M104.138,201.692l0.231,0.555c0.404,0.97,1.178,1.737,2.152,2.132l0.603,0.245l-0.579,0.235
			c-0.987,0.401-1.77,1.185-2.168,2.173l-0.163,0.405l-0.244-0.508c-0.444-0.925-1.232-1.64-2.196-1.991l-0.526-0.192l0.687-0.333
			c0.865-0.419,1.546-1.14,1.916-2.027L104.138,201.692z"/>
	</g>
</g>
<g id="Device">
	<g>
		<g>
			<g>
				<g>
					<g>
						<path style="fill:#263238;" d="M610.256,381.775H237.355c-8.045,0-14.567-6.522-14.567-14.567V130.48
							c0-8.045,6.522-14.567,14.567-14.567h372.901c8.045,0,14.567,6.522,14.567,14.567v236.728
							C624.823,375.253,618.301,381.775,610.256,381.775z"/>
					</g>
				</g>
				<g>
					<g>
						<path style="fill:#263238;" d="M623.753,385.374h-399.98c-9.829,0-17.798-7.968-17.798-17.798v-5.465H641.55v5.465
							C641.55,377.406,633.582,385.374,623.753,385.374z"/>
					</g>
				</g>
				<g>
					<g>
						<rect x="233.58" y="126.475" style="fill:#455A64;" width="379.328" height="224.517"/>
					</g>
				</g>
				<g>
					<g>
						<polygon style="fill:#455A64;" points="384.173,362.111 389.578,370.709 465.635,370.709 470.654,362.111 						"/>
					</g>
				</g>
			</g>
			<g>
				<g>
					<g>
						<g>
							<g>
								<g>
									<path style="fill:#EBEBEB;" d="M602.602,350.273H244.666c-1.808,0-3.273-1.466-3.273-3.273V137.349
										c0-1.808,1.465-3.273,3.273-3.273h357.937c1.807,0,3.273,1.465,3.273,3.272v209.652
										C605.875,348.808,604.41,350.273,602.602,350.273z"/>
								</g>
							</g>
						</g>
						<g>
							<g>
								<g>
									<rect x="241.393" y="149.917" style="fill:#FAFAFA;" width="364.482" height="200.357"/>
								</g>
							</g>
						</g>
						<g>
							<g>
								<g>
									<path style="fill:#263238;" d="M271.286,142.425c0,1.608-1.303,2.911-2.911,2.911c-1.608,0-2.91-1.303-2.91-2.911
										c0-1.608,1.303-2.91,2.91-2.91C269.983,139.515,271.286,140.818,271.286,142.425z"/>
								</g>
							</g>
						</g>
						<g>
							<g>
								<g>
									<path style="fill:#263238;" d="M253.644,142.425c0,1.608-1.303,2.911-2.911,2.911c-1.607,0-2.911-1.303-2.911-2.911
										c0-1.608,1.304-2.91,2.911-2.91C252.341,139.515,253.644,140.818,253.644,142.425z"/>
								</g>
							</g>
						</g>
						<g>
							<g>
								<g>
									<path style="fill:#263238;" d="M262.112,142.425c0,1.608-1.303,2.911-2.911,2.911c-1.608,0-2.911-1.303-2.911-2.911
										c0-1.608,1.303-2.91,2.911-2.91C260.809,139.515,262.112,140.818,262.112,142.425z"/>
								</g>
							</g>
						</g>
					</g>
				</g>
			</g>
			<g>
				<g>
					<path style="fill:#455A64;" d="M621.369,362.111c0,0.144-89.233,0.26-199.281,0.26c-110.087,0-199.3-0.117-199.3-0.26
						c0-0.144,89.213-0.26,199.3-0.26C532.136,361.851,621.369,361.967,621.369,362.111z"/>
				</g>
			</g>
		</g>
		<g>
			<g>
				<rect x="266.652" y="250.846" style="fill:#E0E0E0;" width="83.174" height="5.564"/>
			</g>
			<g>
				<rect x="374.082" y="173.599" style="fill:#E0E0E0;" width="83.174" height="5.564"/>
			</g>
			<g>
				<g>
					<path style="fill:#E0E0E0;" d="M580.959,194.32c0,0.144-46.315,0.26-103.434,0.26c-57.139,0-103.444-0.117-103.444-0.26
						c0-0.144,46.305-0.26,103.444-0.26C534.644,194.059,580.959,194.176,580.959,194.32z"/>
				</g>
			</g>
			<g>
				<g>
					<path style="fill:#E0E0E0;" d="M580.959,206.469c0,0.144-46.315,0.26-103.434,0.26c-57.139,0-103.444-0.117-103.444-0.26
						s46.305-0.26,103.444-0.26C534.644,206.209,580.959,206.325,580.959,206.469z"/>
				</g>
			</g>
			<g>
				<g>
					<path style="fill:#E0E0E0;" d="M580.959,218.618c0,0.144-46.315,0.26-103.434,0.26c-57.139,0-103.444-0.117-103.444-0.26
						c0-0.144,46.305-0.26,103.444-0.26C534.644,218.358,580.959,218.475,580.959,218.618z"/>
				</g>
			</g>
			<g>
				<g>
					<path style="fill:#E0E0E0;" d="M580.959,230.768c0,0.144-46.315,0.26-103.434,0.26c-57.139,0-103.444-0.117-103.444-0.26
						s46.305-0.26,103.444-0.26C534.644,230.508,580.959,230.624,580.959,230.768z"/>
				</g>
			</g>
			<g>
				<g>
					<path style="fill:#E0E0E0;" d="M580.959,242.917c0,0.144-46.315,0.26-103.434,0.26c-57.139,0-103.444-0.117-103.444-0.26
						s46.305-0.26,103.444-0.26C534.644,242.657,580.959,242.773,580.959,242.917z"/>
				</g>
			</g>
			<g>
				<g>
					<path style="fill:#E0E0E0;" d="M454.836,255.066c0,0.144-18.079,0.26-40.375,0.26c-22.304,0-40.379-0.117-40.379-0.26
						c0-0.144,18.075-0.26,40.379-0.26C436.757,254.806,454.836,254.923,454.836,255.066z"/>
				</g>
			</g>
			<g>
				<g>
					<path style="fill:#E0E0E0;" d="M579.446,278.646c0,0.144-30.442,0.26-67.985,0.26c-37.556,0-67.991-0.117-67.991-0.26
						s30.435-0.26,67.991-0.26C549.005,278.385,579.446,278.502,579.446,278.646z"/>
				</g>
			</g>
			<g>
				<g>
					<path style="fill:#E0E0E0;" d="M579.446,291.542c0,0.144-30.442,0.26-67.985,0.26c-37.556,0-67.991-0.117-67.991-0.26
						s30.435-0.26,67.991-0.26C549.005,291.282,579.446,291.398,579.446,291.542z"/>
				</g>
			</g>
			<g>
				<g>
					<path style="fill:#E0E0E0;" d="M579.446,304.439c0,0.144-30.442,0.26-67.985,0.26c-37.556,0-67.991-0.117-67.991-0.26
						s30.435-0.26,67.991-0.26C549.005,304.179,579.446,304.295,579.446,304.439z"/>
				</g>
			</g>
			<g>
				<g>
					<path style="fill:#E0E0E0;" d="M579.446,317.336c0,0.144-30.442,0.26-67.985,0.26c-37.556,0-67.991-0.117-67.991-0.26
						s30.435-0.26,67.991-0.26C549.005,317.075,579.446,317.192,579.446,317.336z"/>
				</g>
			</g>
			<g>
				<g>
					<path style="fill:#E0E0E0;" d="M350.036,277.412c0,0.144-18.147,0.26-40.527,0.26c-22.388,0-40.53-0.116-40.53-0.26
						c0-0.144,18.143-0.26,40.53-0.26C331.889,277.151,350.036,277.268,350.036,277.412z"/>
				</g>
			</g>
			<g>
				<g>
					<path style="fill:#E0E0E0;" d="M350.036,287.54c0,0.144-18.147,0.26-40.527,0.26c-22.388,0-40.53-0.117-40.53-0.26
						s18.143-0.26,40.53-0.26C331.889,287.28,350.036,287.396,350.036,287.54z"/>
				</g>
			</g>
			<g>
				<g>
					<path style="fill:#E0E0E0;" d="M350.036,297.668c0,0.144-18.147,0.26-40.527,0.26c-22.388,0-40.53-0.117-40.53-0.26
						s18.143-0.26,40.53-0.26C331.889,297.408,350.036,297.525,350.036,297.668z"/>
				</g>
			</g>
			<g>
				<g>
					<path style="fill:#E0E0E0;" d="M350.036,307.796c0,0.144-18.147,0.26-40.527,0.26c-22.388,0-40.53-0.117-40.53-0.26
						s18.143-0.26,40.53-0.26C331.889,307.536,350.036,307.653,350.036,307.796z"/>
				</g>
			</g>
			<g>
				<g>
					<path style="fill:#E0E0E0;" d="M350.036,317.925c0,0.144-18.147,0.26-40.527,0.26c-22.388,0-40.53-0.117-40.53-0.26
						s18.143-0.26,40.53-0.26C331.889,317.664,350.036,317.781,350.036,317.925z"/>
				</g>
			</g>
			<g>
				<g>
					<g>
						<g>
							<rect x="374.031" y="272.492" style="fill:#F5F5F5;" width="59.012" height="57.093"/>
						</g>
					</g>
				</g>
				<g>
					<g>
						<g>
							<polygon style="fill:#EBEBEB;" points="378.607,324.698 394.931,295.319 408.283,314.098 416.397,304.125 428.467,324.698 
															"/>
						</g>
					</g>
				</g>
				<g>
					<g>
						<g>
							<path style="fill:#EBEBEB;" d="M413.971,289.605c0,2.346-1.901,4.247-4.247,4.247c-2.346,0-4.247-1.901-4.247-4.247
								c0-2.345,1.901-4.247,4.247-4.247C412.07,285.358,413.971,287.26,413.971,289.605z"/>
						</g>
					</g>
				</g>
				<g>
					<g>
						<g>
							<g>
								<path style="fill:#EBEBEB;" d="M428.467,324.858c-0.004-0.004-0.009-0.083-0.014-0.234
									c-0.003-0.171-0.008-0.389-0.013-0.666c-0.007-0.607-0.016-1.465-0.028-2.569c-0.015-2.264-0.036-5.538-0.062-9.696
									c-0.03-8.339-0.073-20.214-0.124-34.472l0.241,0.241c-14.441,0.012-31.559,0.025-49.856,0.04
									c-0.067,0.059,0.528-0.529,0.276-0.273v0.013v0.025v0.051v0.102v0.204v0.407v0.813v1.621c0,1.079,0,2.153,0,3.223
									c-0.001,2.139-0.001,4.259-0.002,6.357c-0.002,4.195-0.004,8.303-0.007,12.302c-0.009,7.996-0.019,15.556-0.027,22.509
									l-0.245-0.245c14.882,0.052,27.312,0.094,36.051,0.125c4.357,0.027,7.793,0.049,10.168,0.064
									c1.161,0.012,2.061,0.022,2.698,0.029c0.292,0.006,0.52,0.01,0.699,0.014C428.38,324.848,428.463,324.853,428.467,324.858
									c0.005,0.004-0.069,0.009-0.218,0.014c-0.172,0.003-0.392,0.008-0.672,0.014c-0.626,0.006-1.51,0.016-2.65,0.028
									c-2.362,0.015-5.779,0.036-10.113,0.064c-8.777,0.03-21.261,0.073-36.208,0.124l-0.245,0.001v-0.246
									c-0.008-6.954-0.018-14.514-0.027-22.509c-0.003-3.999-0.005-8.107-0.007-12.302c-0.001-2.098-0.001-4.217-0.001-6.357
									c0-1.07,0-2.144,0-3.223v-1.621l-0.001-0.813v-0.407v-0.204v-0.102v-0.051v-0.025v-0.013
									c-0.251,0.247,0.341-0.352,0.286-0.289c18.297,0.015,35.415,0.028,49.856,0.039l0.242,0.001l-0.001,0.241
									c-0.051,14.321-0.094,26.249-0.123,34.626c-0.027,4.134-0.048,7.391-0.063,9.641c-0.012,1.085-0.021,1.927-0.028,2.523
									c-0.006,0.266-0.01,0.475-0.014,0.64C428.477,324.792,428.472,324.862,428.467,324.858z"/>
							</g>
						</g>
					</g>
				</g>
			</g>
		</g>
		<g>
			<g>
				<g>
					<g>
						<rect x="268.22" y="164.1" style="fill:#F5F5F5;" width="80.038" height="77.435"/>
					</g>
				</g>
			</g>
			<g>
				<g>
					<g>
						<polygon style="fill:#E0E0E0;" points="274.426,234.908 296.567,195.061 314.676,220.529 325.681,207.004 342.052,234.908 
													"/>
					</g>
				</g>
			</g>
			<g>
				<g>
					<g>
						<path style="fill:#E0E0E0;" d="M322.391,187.311c0,3.181-2.579,5.76-5.76,5.76c-3.181,0-5.76-2.578-5.76-5.76
							c0-3.181,2.579-5.76,5.76-5.76C319.812,181.551,322.391,184.129,322.391,187.311z"/>
					</g>
				</g>
			</g>
			<g>
				<g>
					<g>
						<g>
							<path style="fill:#E0E0E0;" d="M342.052,235.123c-0.006-0.006-0.012-0.113-0.018-0.318c-0.004-0.232-0.01-0.527-0.018-0.903
								c-0.009-0.824-0.022-1.987-0.038-3.485c-0.02-3.071-0.048-7.512-0.085-13.151c-0.041-11.31-0.099-27.417-0.168-46.755
								l0.327,0.327c-19.586,0.016-42.803,0.034-67.62,0.054c-0.091,0.08,0.716-0.717,0.374-0.37v0.017v0.035v0.07v0.138v0.276
								v0.552v1.103v2.199c0,1.464-0.001,2.921-0.001,4.372c-0.001,2.901-0.001,5.776-0.003,8.622
								c-0.003,5.69-0.006,11.262-0.009,16.686c-0.012,10.845-0.025,21.098-0.036,30.53l-0.332-0.332
								c20.184,0.07,37.043,0.128,48.896,0.169c5.91,0.037,10.57,0.066,13.791,0.087c1.574,0.016,2.795,0.03,3.659,0.039
								c0.396,0.008,0.706,0.014,0.948,0.019C341.934,235.111,342.046,235.117,342.052,235.123c0.007,0.006-0.093,0.013-0.296,0.019
								c-0.233,0.005-0.531,0.011-0.912,0.019c-0.848,0.008-2.048,0.022-3.594,0.038c-3.204,0.02-7.839,0.049-13.716,0.087
								c-11.904,0.041-28.837,0.099-49.109,0.169l-0.332,0.001v-0.334c-0.011-9.432-0.024-19.685-0.036-30.53
								c-0.003-5.424-0.007-10.995-0.01-16.686c-0.001-2.845-0.001-5.72-0.002-8.622c-0.001-1.451-0.001-2.908-0.001-4.372v-2.199
								l-0.001-1.103v-0.552v-0.276v-0.138v-0.07v-0.035v-0.017c-0.34,0.335,0.463-0.478,0.388-0.392
								c24.816,0.02,48.034,0.038,67.62,0.053l0.329,0.001l-0.001,0.327c-0.069,19.424-0.127,35.602-0.167,46.963
								c-0.036,5.607-0.065,10.024-0.085,13.077c-0.017,1.472-0.029,2.613-0.038,3.422c-0.008,0.361-0.014,0.645-0.019,0.868
								C342.065,235.035,342.059,235.129,342.052,235.123z"/>
						</g>
					</g>
				</g>
			</g>
		</g>
	</g>
</g>
<g id="Padlock">
	<g>
		<g>
			<g>
				<path style="fill:#263238;" d="M463.816,221.813l-8-0.112l0.305-21.78c0-16.006-13.067-29.073-29.129-29.073
					c-16.063,0-29.13,13.067-29.13,29.129l-0.305,21.836l-8-0.112l0.305-21.78c0-20.417,16.656-37.073,37.13-37.073
					c20.473,0,37.129,16.656,37.129,37.129L463.816,221.813z"/>
			</g>
			<g>
				<path style="fill:#E8505B;" d="M464.557,319.507h-74.286c-10.099,0-18.285-8.187-18.285-18.285v-71.737
					c0-10.099,8.187-18.285,18.285-18.285h74.286c10.099,0,18.285,8.187,18.285,18.285v71.737
					C482.842,311.32,474.655,319.507,464.557,319.507z"/>
			</g>
			<g style="opacity:0.3;">
				<path d="M438.465,259.642c0-6.103-4.948-11.051-11.051-11.051s-11.051,4.948-11.051,11.051c0,3.966,2.096,7.434,5.234,9.384
					l-2.83,13.09h18.126c0,0-2.038-8.223-3.32-13.298C436.523,266.833,438.465,263.465,438.465,259.642z"/>
			</g>
		</g>
		<g style="opacity:0.2;">
			<g>
				<path style="fill:#FFFFFF;" d="M379.082,286.669c-0.719-0.015-1.037-12.652-0.711-28.222c0.326-15.575,1.173-28.185,1.892-28.17
					c0.719,0.015,1.037,12.649,0.711,28.224C380.648,274.071,379.801,286.684,379.082,286.669z"/>
			</g>
		</g>
		<g style="opacity:0.2;">
			<g>
				<path style="fill:#FFFFFF;" d="M379.164,299.197c-0.719,0.009-1.318-1.22-1.338-2.747c-0.02-1.527,0.547-2.772,1.266-2.781
					c0.719-0.009,1.318,1.22,1.338,2.747C380.449,297.942,379.883,299.188,379.164,299.197z"/>
			</g>
		</g>
		<g style="opacity:0.2;">
			<g>
				<path style="fill:#FFFFFF;" d="M413.94,283.887c-0.574-0.188,0.777-5.946,3.134-13.61l0.291,1.267
					c-1.063-1.064-2.177-2.178-3.338-3.403c-1.935-2.21-2.858-4.891-2.987-7.355c-0.143-2.483,0.568-4.678,1.475-6.245
					c0.911-1.587,1.996-2.607,2.811-3.174c0.824-0.568,1.37-0.718,1.469-0.58c0.258,0.317-1.436,1.655-2.626,4.562
					c-0.579,1.442-0.971,3.263-0.737,5.246c0.211,1.968,1.057,4.122,2.526,5.798c1.118,1.181,2.202,2.326,3.218,3.399l0.536,0.566
					l-0.244,0.702C416.832,278.634,414.514,284.075,413.94,283.887z"/>
			</g>
		</g>
		<g style="opacity:0.2;">
			<g>
				<path style="fill:#FFFFFF;" d="M459.701,218.724c-0.003,0.36-4.43,0.652-11.585,0.833c-7.155,0.181-17.038,0.252-27.953,0.169
					c-5.459-0.042-10.659-0.117-15.388-0.219c-4.734-0.055-9.007-0.391-12.418-0.035c-3.436,0.323-6.016,1.469-7.587,2.563
					c-1.586,1.087-2.242,2.002-2.417,1.879c-0.125-0.065,0.249-1.214,1.781-2.667c1.497-1.449,4.283-3.011,7.971-3.599
					c1.831-0.316,3.847-0.429,5.966-0.469c2.108-0.023,4.357-0.046,6.722-0.072c4.73-0.03,9.931-0.027,15.39,0.015
					c10.914,0.083,20.795,0.304,27.947,0.594S459.704,218.365,459.701,218.724z"/>
			</g>
		</g>
	</g>
</g>
<g id="Character">
	<g>
		<g>
			<g>
				<g>
					<path style="fill:#E8505B;" d="M85.586,450.164l-0.705,2.654c0,0-9.633,15.671-8.493,17.134
						c1.141,1.463,3.328,2.926,6.679,2.086c3.351-0.839,17.496-14.273,17.496-14.273l0.808-2.148L85.586,450.164z"/>
				</g>
				<g style="opacity:0.3;">
					<path d="M77.349,466.404c0,0,4.174-1.846,6.577,3.541c0,0,1.807-0.671,6.807-4.86c5-4.188,9.83-8.281,9.83-8.281
						s0.517-0.411,0.362,0c-0.154,0.41-0.361,1.134-0.361,1.134l-9.656,8.514c0,0-5.781,4.956-7.232,5.353
						c-1.451,0.398-2.914,0.883-4.758,0.059c-1.844-0.824-2.749-2.132-2.749-2.381C76.169,469.235,77.349,466.404,77.349,466.404z"
						/>
				</g>
				<g>
					<g>
						<path style="fill:#263238;" d="M84.486,471.71c-0.052,0.011-0.155-0.533-0.511-1.333c-0.349-0.797-1-1.846-2.02-2.7
							c-1.02-0.854-2.168-1.309-3.014-1.512c-0.851-0.209-1.404-0.215-1.402-0.268c-0.002-0.033,0.558-0.107,1.449,0.052
							c0.884,0.153,2.1,0.594,3.168,1.489c1.068,0.894,1.717,2.013,2.024,2.856C84.493,471.142,84.519,471.706,84.486,471.71z"/>
					</g>
				</g>
				<g>
					<g>
						<path style="fill:#263238;" d="M101.367,456.122c0.007,0.008-0.069,0.086-0.221,0.227c-0.2,0.179-0.421,0.377-0.673,0.603
							c-0.675,0.584-1.516,1.311-2.513,2.174c-2.229,1.887-5.145,4.354-8.369,7.083c-1.642,1.366-3.179,2.732-4.818,3.663
							c-1.625,0.938-3.366,1.336-4.79,1.136c-1.434-0.193-2.436-0.911-2.957-1.499c-0.53-0.601-0.642-1.042-0.642-1.042
							c0.03-0.018,0.189,0.401,0.731,0.958c0.532,0.546,1.519,1.206,2.895,1.363c1.37,0.164,3.043-0.239,4.621-1.167
							c1.589-0.919,3.118-2.286,4.762-3.655c3.246-2.701,6.181-5.143,8.425-7.01c1.023-0.832,1.885-1.534,2.577-2.098
							c0.266-0.209,0.5-0.393,0.711-0.558C101.271,456.176,101.36,456.114,101.367,456.122z"/>
					</g>
				</g>
				<g>
					<g>
						<path style="fill:#263238;" d="M86.111,462.714c-0.057,0.069-0.818-0.48-1.782-1.108c-0.963-0.631-1.771-1.107-1.731-1.187
							c0.036-0.075,0.921,0.283,1.902,0.925C85.482,461.984,86.166,462.65,86.111,462.714z"/>
					</g>
				</g>
				<g>
					<g>
						<path style="fill:#263238;" d="M88.179,460.459c-0.044,0.078-0.996-0.384-2.188-0.906c-1.19-0.526-2.174-0.916-2.146-1.001
							c0.025-0.08,1.065,0.182,2.272,0.715C87.325,459.796,88.221,460.387,88.179,460.459z"/>
					</g>
				</g>
				<g>
					<g>
						<path style="fill:#263238;" d="M90.095,458.527c-0.063,0.07-0.934-0.694-2.2-1.31c-1.26-0.628-2.396-0.853-2.379-0.946
							c0.004-0.078,1.206,0.014,2.517,0.666C89.349,457.579,90.155,458.476,90.095,458.527z"/>
					</g>
				</g>
				<g>
					<g>
						<path style="fill:#263238;" d="M91.214,456.226c-0.057,0.073-0.868-0.517-1.986-1.011c-1.114-0.503-2.094-0.714-2.078-0.806
							c0.007-0.08,1.047-0.002,2.205,0.52C90.518,455.444,91.269,456.167,91.214,456.226z"/>
					</g>
				</g>
				<g>
					<g>
						<path style="fill:#263238;" d="M90.725,454.05c-0.019,0.031-0.512-0.219-1.191-0.796c-0.338-0.288-0.717-0.661-1.09-1.118
							c-0.186-0.228-0.37-0.477-0.547-0.745c-0.086-0.132-0.185-0.273-0.248-0.457c-0.069-0.177-0.061-0.444,0.103-0.619
							c0.348-0.325,0.778-0.246,1.092-0.125c0.317,0.128,0.583,0.327,0.795,0.548c0.426,0.447,0.634,0.975,0.731,1.412
							c0.099,0.441,0.105,0.805,0.099,1.053c-0.009,0.248-0.034,0.384-0.055,0.384c-0.057,0.004-0.031-0.554-0.258-1.381
							c-0.119-0.407-0.332-0.878-0.723-1.267c-0.194-0.192-0.43-0.36-0.702-0.465c-0.247-0.109-0.597-0.11-0.747,0.049
							c-0.155,0.155-0.006,0.446,0.17,0.701c0.167,0.262,0.341,0.506,0.516,0.733c0.35,0.453,0.702,0.832,1.013,1.134
							C90.308,453.695,90.754,454.009,90.725,454.05z"/>
					</g>
				</g>
				<g>
					<g>
						<path style="fill:#263238;" d="M90.516,453.776c-0.016-0.006,0.007-0.147,0.107-0.382c0.099-0.234,0.277-0.564,0.572-0.919
							c0.298-0.349,0.715-0.724,1.262-1.004c0.274-0.141,0.571-0.258,0.906-0.338c0.172-0.034,0.358-0.053,0.558-0.004
							c0.201,0.042,0.41,0.22,0.456,0.451c0.07,0.467-0.214,0.775-0.414,1.022c-0.222,0.254-0.471,0.465-0.726,0.636
							c-0.512,0.344-1.048,0.522-1.502,0.596c-0.456,0.076-0.832,0.05-1.083,0.006c-0.252-0.043-0.383-0.1-0.379-0.117
							c0.007-0.06,0.563,0.087,1.42-0.106c0.423-0.096,0.916-0.285,1.381-0.616c0.232-0.165,0.457-0.364,0.658-0.598
							c0.199-0.228,0.388-0.518,0.342-0.753c-0.041-0.232-0.363-0.279-0.649-0.217c-0.293,0.067-0.582,0.171-0.838,0.296
							c-0.517,0.248-0.924,0.582-1.227,0.895C90.758,453.264,90.567,453.801,90.516,453.776z"/>
					</g>
				</g>
				<g>
					<g>
						<path style="fill:#263238;" d="M98.629,454.866c-0.009,0.052-0.542-0.237-1.358,0.072c-0.793,0.289-1.781,1.072-2.426,2.211
							c-0.654,1.146-0.744,2.387-0.643,3.238c0.101,0.861,0.33,1.366,0.279,1.385c-0.027,0.017-0.335-0.463-0.498-1.354
							c-0.164-0.875-0.107-2.204,0.589-3.422c0.688-1.21,1.75-2.008,2.63-2.267C98.116,454.451,98.673,454.848,98.629,454.866z"/>
					</g>
				</g>
				<g>
					<g>
						<path style="fill:#263238;" d="M92.921,461.183c0.056,0.066-0.674,0.778-1.63,1.591c-0.956,0.813-1.776,1.418-1.832,1.353
							c-0.056-0.066,0.674-0.778,1.63-1.591C92.045,461.723,92.865,461.117,92.921,461.183z"/>
					</g>
				</g>
				<g>
					<g>
						<g>
							<path style="fill:#263238;" d="M94.833,460.164c0.086-0.006,0.201,0.198,0.256,0.456c0.054,0.258,0.032,0.492-0.049,0.521
								c-0.081,0.029-0.197-0.174-0.256-0.456C94.724,460.403,94.747,460.17,94.833,460.164z"/>
						</g>
					</g>
					<g>
						<g>
							<path style="fill:#263238;" d="M95.077,458.191c0.081,0.03,0.098,0.264,0.038,0.522c-0.061,0.258-0.181,0.46-0.266,0.451
								c-0.086-0.009-0.103-0.243-0.038-0.522C94.877,458.362,94.996,458.161,95.077,458.191z"/>
						</g>
					</g>
					<g>
						<g>
							<path style="fill:#263238;" d="M96.135,456.511c0.067,0.069-0.057,0.255-0.205,0.475c-0.158,0.212-0.346,0.348-0.42,0.303
								c-0.074-0.044,0.004-0.268,0.177-0.499C95.849,456.552,96.083,456.454,96.135,456.511z"/>
						</g>
					</g>
					<g>
						<g>
							<path style="fill:#263238;" d="M97.826,455.472c0.027,0.082-0.146,0.241-0.385,0.355c-0.24,0.113-0.472,0.145-0.519,0.072
								c-0.046-0.073,0.126-0.232,0.385-0.354C97.567,455.421,97.8,455.389,97.826,455.472z"/>
						</g>
					</g>
					<g>
						<g>
							<path style="fill:#263238;" d="M99.799,455.24c-0.011,0.086-0.234,0.158-0.498,0.16c-0.264,0.002-0.488-0.067-0.5-0.153
								c-0.012-0.085,0.211-0.158,0.498-0.16C99.586,455.085,99.81,455.154,99.799,455.24z"/>
						</g>
					</g>
				</g>
			</g>
			<g>
				<g>
					<g>
						<path style="fill:#A56959;" d="M218.428,201.982c-0.614,0.749-1.502,8.691-1.502,8.691s-14.648,24.962-16.69,25.345
							c-2.042,0.383-10.922-17.342-10.922-17.342l-9.131,8.401c0,0,4.761,22.34,19.642,26.171
							c7.027,1.809,19.275-20.467,27.46-38.97c0.131-0.296,4.364-10.374,4.364-10.374L218.428,201.982z"/>
					</g>
					<g>
						<g>
							<g>
								<path style="fill:#A56959;" d="M231.49,204.759c0.015,0.019-0.004,0.109-0.05,0.253c-0.382,1.194-2.649,6.142-3.351,6.087
									c-0.786-0.061-2.317-1.201-2.145-1.909c0.172-0.708,3.04-6.137,3.04-6.137s0.508-0.83,2.087-0.39
									C232.048,202.935,231.49,204.759,231.49,204.759z"/>
							</g>
							<g>
								<path style="fill:#A56959;" d="M229.292,201.652c0.015,0.019-0.004,0.108-0.05,0.253c-0.382,1.194-2.649,6.142-3.351,6.087
									c-0.786-0.062-2.317-1.201-2.145-1.908c0.172-0.708,3.04-6.138,3.04-6.138s0.508-0.83,2.088-0.39
									C229.85,199.828,229.292,201.652,229.292,201.652z"/>
							</g>
							<g>
								<path style="fill:#A56959;" d="M226.763,199.471c0.015,0.019-0.004,0.109-0.05,0.253c-0.382,1.194-2.649,6.142-3.351,6.087
									c-0.786-0.061-2.317-1.201-2.145-1.908c0.172-0.708,3.04-6.138,3.04-6.138s0.508-0.83,2.087-0.39
									C227.321,197.647,226.763,199.471,226.763,199.471z"/>
							</g>
							<g>
								<path style="fill:#A56959;" d="M224.227,197.35c0.015,0.019-0.003,0.109-0.05,0.253c-0.382,1.194-2.649,6.142-3.351,6.087
									c-0.786-0.062-2.317-1.201-2.145-1.908c0.172-0.708,3.04-6.138,3.04-6.138s0.508-0.83,2.087-0.39
									C224.785,195.526,224.227,197.35,224.227,197.35z"/>
							</g>
							<g>
								<g>
									<path style="fill:#7C4435;" d="M226.564,207.725c0.089,0.031,0.671-1.009,1.301-2.321c0.63-1.313,1.068-2.402,0.979-2.433
										c-0.089-0.031-0.671,1.008-1.301,2.321C226.914,206.605,226.475,207.694,226.564,207.725z"/>
								</g>
							</g>
							<g>
								<g>
									<path style="fill:#7C4435;" d="M223.62,206.448c0.085,0.041,0.89-1.447,1.797-3.324c0.908-1.877,1.574-3.432,1.489-3.473
										c-0.085-0.041-0.89,1.447-1.797,3.324C224.202,204.851,223.535,206.406,223.62,206.448z"/>
								</g>
							</g>
							<g style="opacity:0.78;">
								<g>
									<path style="fill:#7C4435;" d="M220.746,204.886c0.085,0.041,0.89-1.447,1.797-3.324c0.908-1.877,1.574-3.432,1.489-3.473
										c-0.085-0.041-0.89,1.447-1.797,3.324C221.327,203.29,220.661,204.845,220.746,204.886z"/>
								</g>
							</g>
						</g>
						<g>
							<g>
								<path style="fill:#A56959;" d="M218.455,211.833l-0.999-4.387c-0.437-1.918-0.115-3.931,0.897-5.617l0.773-1.288
									l9.572,4.837c0,0-2.389,3.114-4.797,1.279l1.757,3.784L218.455,211.833z"/>
							</g>
						</g>
					</g>
					<g>
						<g>
							<path style="fill:#7C4435;" d="M224.801,210.776c-0.059-0.007,0.043-0.508-0.092-1.36c-0.134-0.831-0.574-2.075-1.722-3.001
								l-0.914-0.736l1.12,0.362c0.769,0.249,1.603,0.519,2.482,0.803l-0.054-0.012c1.034,0.118,2.273-0.189,2.872-1.192
								c0.044-0.076,0.092-0.166,0.114-0.222l0.137,0.325c-2.765-1.253-5.245-2.423-6.984-3.373
								c-1.743-0.941-2.764-1.613-2.731-1.67c0.037-0.065,1.118,0.493,2.896,1.346c1.774,0.861,4.266,1.972,7.035,3.223l0.224,0.101
								l-0.087,0.224c-0.047,0.122-0.098,0.212-0.157,0.314c-0.362,0.595-0.934,1.026-1.548,1.236
								c-0.614,0.223-1.245,0.234-1.819,0.179l-0.029-0.003l-0.026-0.009c-0.873-0.305-1.7-0.593-2.463-0.86l0.206-0.374
								c1.234,1.061,1.628,2.424,1.696,3.306C225.023,210.294,224.83,210.787,224.801,210.776z"/>
						</g>
					</g>
					<g>
						<g>
							<path style="fill:#7C4435;" d="M227.321,206.544c0.099,0.011-0.085,0.534,0.037,1.243c0.074,0.334,0.331,0.734,0.726,0.763
								c0.412,0.04,0.856-0.261,1.167-0.735c0.636-1.01,1.281-1.929,1.668-2.6c0.396-0.678,0.601-1.129,0.674-1.103
								c0.062,0.02-0.02,0.521-0.346,1.27c-0.329,0.759-0.907,1.682-1.57,2.733c-0.345,0.532-0.976,1.014-1.653,0.912
								c-0.709-0.119-0.987-0.762-1.029-1.178c-0.044-0.448,0.068-0.777,0.142-0.991
								C227.219,206.643,227.287,206.535,227.321,206.544z"/>
						</g>
					</g>
				</g>
			</g>
			<g>
				<g>
					<path style="fill:#455A64;" d="M185.785,270.47c0,0-8.157-20.074-8.117-20.449l2.11-7.467l0.856-4.324l2.755,3.204
						l13.47-14.076c0.248,0.339-6.097-8.876-12.528-17.895c-4.483-6.287-9.333-7.667-12.167-7.867
						c-2.141-0.627-3.61-0.738-3.61-0.738l-23.181-0.197c0,0-7.198-0.378-13.834,5.072c-1.069,0.878-9.952,12.686-16.006,24.362
						l18.643,13.458l3.073-5.406l0.013,0.107c0.258,1.833,1.361,7.178,1.725,8.993c1.13,5.634,1.487,12.413-1.256,17.065
						c0,0-3.089,7.446-5.342,15.948h57.193C189.585,280.262,187.741,275.3,185.785,270.47z"/>
				</g>
			</g>
			<g>
				<path style="fill:#A56959;" d="M139.758,262.08l-1.964-1.578c-0.011-0.113-0.017-0.18-0.017-0.18l-0.08,0.102l-12.945-10.402
					l5.553-9.15l-13.4-9.788c0.062,0.65-12.436,19.165-10.745,22.802c2.391,5.143,18.623,15.423,25.267,19.474
					c-0.707,0.1-3.868,0.563-5.366,1.056c-1.692,0.557,3.826,2.018,5.16,2.289c0.525,0.106,1.593-0.723,2.733-1.824
					c0.197,0.117,0.307,0.181,0.307,0.181l0.358-0.845c1.551-1.594,3.069-3.453,3.405-3.976c0.277-0.431,0.264-2.385,0.163-4.446
					L139.758,262.08z"/>
			</g>
			<g>
				<g>
					<g>
						<g>
							<g>
								<g>
									<path style="fill:#E8505B;" d="M211.446,455.601l-0.072-1.893l-19.173,0.554l0.166,6.242l1.186,0.039
										c5.275,0.13,26.834,0.318,30.324-0.769C227.77,458.561,211.446,455.601,211.446,455.601z"/>
								</g>
							</g>
						</g>
						<g style="opacity:0.3;">
							<g>
								<g>
									<path d="M199.284,460.179c-0.318-1.475-1.247-2.829-2.553-3.718c-1.306-0.889-2.893-1.333-4.502-1.17l0.15,4.96
										L199.284,460.179z"/>
								</g>
							</g>
						</g>
					</g>
					<g>
						<g>
							<g style="opacity:0.3;">
								<path d="M219.43,457.31c0,0,5.731,1.372,5.049,2.261c-0.682,0.889-22.476,1.462-32.112,0.933l0.018-0.397l25.427-0.467
									C217.812,459.64,218.32,457.383,219.43,457.31z"/>
							</g>
						</g>
					</g>
					<g>
						<g>
							<g>
								<g>
									<path style="fill:#263238;" d="M192.086,460.104c0,0.007,0.113,0.016,0.329,0.024c0.283,0.009,0.594,0.018,0.944,0.028
										c0.944,0.013,2.104,0.029,3.473,0.048c2.933,0.021,6.986,0,11.46-0.114c4.475-0.115,8.524-0.301,11.451-0.472
										c1.366-0.089,2.524-0.164,3.465-0.225c0.349-0.028,0.658-0.053,0.941-0.076c0.215-0.02,0.327-0.034,0.327-0.041
										c-0.001-0.007-0.114-0.008-0.33-0.002c-0.283,0.011-0.593,0.023-0.944,0.036c-0.942,0.043-2.101,0.095-3.468,0.157
										c-2.929,0.132-6.976,0.294-11.449,0.409c-4.472,0.114-8.522,0.159-11.454,0.177c-1.369,0.008-2.529,0.015-3.473,0.021
										c-0.35,0.005-0.661,0.009-0.944,0.012C192.199,460.09,192.086,460.096,192.086,460.104z"/>
								</g>
							</g>
						</g>
					</g>
					<g>
						<g>
							<g>
								<g>
									<path style="fill:#263238;" d="M217.816,459.916c0.071,0.006,0.102-0.765,0.601-1.557c0.485-0.799,1.187-1.212,1.145-1.266
										c-0.015-0.053-0.823,0.303-1.346,1.159C217.683,459.102,217.759,459.93,217.816,459.916z"/>
								</g>
							</g>
						</g>
					</g>
					<g>
						<g>
							<g>
								<g>
									<path style="fill:#263238;" d="M212.103,457.407c0.055,0.03,0.315-0.282,0.581-0.697s0.437-0.776,0.382-0.807
										c-0.055-0.031-0.315,0.281-0.581,0.697C212.219,457.016,212.048,457.377,212.103,457.407z"/>
								</g>
							</g>
						</g>
					</g>
					<g>
						<g>
							<g>
								<g>
									<path style="fill:#263238;" d="M210.534,456.688c0.044,0.043,0.34-0.152,0.66-0.435c0.32-0.283,0.544-0.548,0.501-0.591
										c-0.044-0.043-0.34,0.152-0.66,0.435C210.714,456.381,210.49,456.645,210.534,456.688z"/>
								</g>
							</g>
						</g>
					</g>
					<g>
						<g>
							<g>
								<g>
									<path style="fill:#263238;" d="M209.506,455.039c0.001,0.06,0.448,0.101,0.999,0.092c0.551-0.009,0.997-0.064,0.996-0.124
										c-0.001-0.059-0.449-0.1-1-0.092C209.951,454.924,209.505,454.98,209.506,455.039z"/>
								</g>
							</g>
						</g>
					</g>
					<g>
						<g>
							<g>
								<g>
									<path style="fill:#263238;" d="M209.135,453.867c-0.02,0.054,0.472,0.245,1.121,0.271c0.648,0.03,1.157-0.117,1.143-0.172
										c-0.013-0.061-0.516-0.013-1.132-0.043C209.65,453.898,209.153,453.807,209.135,453.867z"/>
								</g>
							</g>
						</g>
					</g>
					<g>
						<g>
							<g>
								<g>
									<path style="fill:#263238;" d="M212.703,455.842c-0.001,0.024,0.472,0.065,1.226-0.039
										c0.377-0.052,0.821-0.147,1.298-0.302c0.237-0.086,0.485-0.151,0.739-0.306c0.119-0.079,0.25-0.188,0.293-0.362
										c0.046-0.172-0.059-0.362-0.2-0.451c-1.19-0.534-2.345,0.11-2.763,0.685c-0.231,0.294-0.332,0.577-0.377,0.771
										c-0.043,0.196-0.036,0.307-0.022,0.309c0.044,0.014,0.069-0.451,0.529-0.988c0.227-0.263,0.575-0.522,1.029-0.66
										c0.429-0.131,1.045-0.179,1.465,0.054c0.199,0.129,0.129,0.344-0.084,0.47c-0.198,0.126-0.457,0.207-0.681,0.292
										c-0.46,0.161-0.889,0.269-1.254,0.339C213.17,455.794,212.702,455.807,212.703,455.842z"/>
								</g>
							</g>
						</g>
					</g>
					<g>
						<g>
							<g>
								<g>
									<path style="fill:#263238;" d="M213.023,455.891c0.018,0.012,0.19-0.284,0.117-0.795c-0.037-0.251-0.146-0.547-0.36-0.824
										c-0.224-0.247-0.513-0.589-1.039-0.555c-0.283,0.041-0.413,0.346-0.362,0.537c0.028,0.199,0.13,0.368,0.224,0.504
										c0.191,0.28,0.404,0.505,0.6,0.675c0.395,0.339,0.703,0.465,0.716,0.443c0.021-0.028-0.25-0.198-0.6-0.55
										c-0.174-0.176-0.363-0.4-0.534-0.671c-0.176-0.237-0.304-0.666,0.002-0.726c0.306-0.035,0.628,0.24,0.823,0.463
										c0.2,0.242,0.315,0.505,0.369,0.732C213.087,455.584,212.981,455.883,213.023,455.891z"/>
								</g>
							</g>
						</g>
					</g>
					<g>
						<g>
							<g>
								<g>
									<path style="fill:#263238;" d="M192.328,455.238c0.005,0.04,0.545-0.063,1.411,0.009c0.857,0.066,2.056,0.36,3.112,1.098
										c1.056,0.739,1.694,1.728,2,2.475c0.314,0.753,0.358,1.264,0.401,1.257c0.014-0.001,0.017-0.129-0.01-0.358
										c-0.027-0.229-0.096-0.559-0.237-0.952c-0.274-0.781-0.913-1.824-2.014-2.595c-1.102-0.769-2.357-1.05-3.241-1.078
										c-0.445-0.017-0.805,0.013-1.049,0.053C192.456,455.187,192.325,455.225,192.328,455.238z"/>
								</g>
							</g>
						</g>
					</g>
					<g>
						<g>
							<g>
								<g>
									<path style="fill:#263238;" d="M201.633,458.386c-0.007,0.056,1.243,0.213,2.794,0.184
										c1.552-0.025,2.794-0.226,2.785-0.281c-0.008-0.062-1.252,0.042-2.789,0.066
										C202.886,458.384,201.639,458.323,201.633,458.386z"/>
								</g>
							</g>
						</g>
					</g>
					<g>
						<g>
							<g>
								<g>
									<path style="fill:#263238;" d="M197.892,458.479c-0.045,0.045,0.11,0.243,0.245,0.505c0.139,0.261,0.212,0.496,0.278,0.491
										c0.062-0.002,0.09-0.283-0.07-0.585C198.187,458.587,197.932,458.435,197.892,458.479z"/>
								</g>
							</g>
						</g>
					</g>
					<g>
						<g>
							<g>
								<g>
									<path style="fill:#263238;" d="M196.432,456.885c-0.044,0.043,0.085,0.224,0.288,0.405c0.203,0.181,0.404,0.293,0.448,0.25
										c0.044-0.043-0.085-0.224-0.288-0.405C196.677,456.954,196.477,456.842,196.432,456.885z"/>
								</g>
							</g>
						</g>
					</g>
					<g>
						<g>
							<g>
								<g>
									<path style="fill:#263238;" d="M194.392,456.193c0.015,0.06,0.269,0.051,0.552,0.136c0.285,0.078,0.49,0.218,0.538,0.176
										c0.05-0.034-0.118-0.282-0.47-0.382C194.661,456.021,194.371,456.138,194.392,456.193z"/>
								</g>
							</g>
						</g>
					</g>
					<g>
						<g>
							<g>
								<g>
									<path style="fill:#263238;" d="M192.945,455.879c-0.021,0.056,0.091,0.144,0.251,0.197c0.16,0.053,0.307,0.05,0.329-0.005
										c0.021-0.056-0.091-0.144-0.251-0.197C193.114,455.82,192.967,455.823,192.945,455.879z"/>
								</g>
							</g>
						</g>
					</g>
				</g>
			</g>
			<g>
				<g>
					<path style="fill:#263238;" d="M155.28,153.56c-2.192-1.938-5.69-2.208-8.154-0.631c-1.229,0.787-2.201,1.967-3.527,2.576
						c-2.205,1.013-4.805,0.223-7.201,0.608c-3.54,0.568-6.359,4.058-6.172,7.637c0.101,1.922,0.924,3.989-0.014,5.67
						c-0.824,1.478-2.67,1.993-3.983,3.061c-2.236,1.817-2.623,5.511-0.79,7.734c0.7,0.849,1.655,1.481,2.25,2.407
						c0.943,1.466,0.809,3.343,1.047,5.07c0.238,1.727,1.239,3.677,2.978,3.79c1.402,0.092,2.661-1.085,4.061-0.97
						c1.964,0.161,2.767,2.514,3.903,4.124c1.436,2.035,4.048,3.173,6.516,2.837c1.785-0.243,3.554-1.187,5.3-0.744
						c2.196,0.558,3.516,3.132,5.759,3.453c1.67,0.239,3.215-0.87,4.454-2.015c1.239-1.145,2.499-2.45,4.159-2.748
						c1.998-0.359,3.921,0.849,5.932,1.125c2.596,0.357,5.345-1.022,6.611-3.317c1.105-2.003,1.102-4.461,2.135-6.502
						c0.692-1.367,1.807-2.467,2.666-3.736c0.859-1.269,1.467-2.877,0.961-4.323c-0.363-1.039-1.243-1.824-1.67-2.838
						c-0.64-1.519-0.17-3.243,0.004-4.881c0.174-1.639-0.168-3.627-1.67-4.305c-0.619-0.279-1.348-0.282-1.924-0.641
						c-1.169-0.727-1.107-2.396-1.214-3.768c-0.157-2.002-1.089-4.054-2.837-5.041c-1.749-0.987-4.334-0.507-5.222,1.295"/>
				</g>
				<g>
					<path style="fill:#E8505B;" d="M144.09,172.036c-1.785-3.284-2.06-7.352-0.733-10.847c1.327-3.495,4.233-6.355,7.748-7.626
						c2.492-0.902,5.199-1.023,7.846-0.916c2.263,0.091,4.573,0.357,6.606,1.356c2.033,0.999,3.76,2.85,4.091,5.091"/>
				</g>
				<g>
					<g>
						<g>
							<g>
								<g>
									<path style="fill:#A56959;" d="M156.569,212.479L156.569,212.479c5.196,0.399,9.681-3.6,9.882-8.808
										c0.192-5.001,0.36-10.056,0.36-10.056s7.577-0.71,8.127-8.209c0.55-7.499,0.299-24.811,0.299-24.811l0,0
										c-8.46-4.263-18.564-3.613-26.409,1.698l-1.164,0.788l0.424,40.336C148.138,208.18,151.82,212.114,156.569,212.479z"/>
								</g>
							</g>
							<g>
								<g>
									<g>
										<path style="fill:#263238;" d="M171.669,173.791c-0.421-0.432-0.413-1.123,0.018-1.544
											c0.432-0.421,1.123-0.413,1.544,0.019c0.421,0.431,0.413,1.123-0.019,1.544
											C172.782,174.231,172.09,174.223,171.669,173.791z"/>
									</g>
								</g>
								<g>
									<g>
										<g>
											<path style="fill:#263238;" d="M174.593,172.525c-0.125,0.123-0.828-0.489-1.861-0.557
												c-1.033-0.083-1.816,0.42-1.922,0.281c-0.052-0.062,0.079-0.29,0.422-0.519c0.337-0.228,0.902-0.433,1.546-0.386
												c0.644,0.047,1.174,0.332,1.474,0.606C174.557,172.227,174.653,172.471,174.593,172.525z"/>
										</g>
									</g>
								</g>
							</g>
							<g>
								<g>
									<g>
										<path style="fill:#263238;" d="M161.87,172.378c0.493,0.346,0.613,1.027,0.266,1.521
											c-0.346,0.493-1.027,0.613-1.521,0.266c-0.493-0.346-0.613-1.027-0.266-1.521
											C160.696,172.151,161.377,172.031,161.87,172.378z"/>
									</g>
								</g>
								<g>
									<g>
										<g>
											<path style="fill:#263238;" d="M163.317,172.764c-0.025-0.002-0.63-0.735-1.861-0.557
												c-1.033-0.083-1.816,0.42-1.922,0.281c-0.052-0.062,0.079-0.29,0.422-0.519c0.336-0.228,0.902-0.433,1.546-0.386
												c0.644,0.047,1.174,0.332,1.473,0.606C163.281,172.467,163.378,172.71,163.317,172.764z"/>
										</g>
									</g>
								</g>
							</g>
							<g>
								<g>
									<g>
										<path style="fill:#263238;" d="M166.99,180.791c-0.002-0.081,0.645-0.172,1.693-0.253
											c0.272-0.013,0.488-0.061,0.517-0.205c0.059-0.161-0.029-0.456-0.146-0.786c-0.224-0.7-0.452-1.408-0.689-2.15
											c-0.947-3.061-1.589-5.581-1.433-5.629c0.155-0.048,1.049,2.394,1.996,5.455c0.223,0.747,0.435,1.46,0.645,2.164
											c0.08,0.319,0.246,0.695,0.079,1.133c-0.088,0.219-0.311,0.367-0.492,0.403c-0.182,0.043-0.335,0.034-0.465,0.032
											C167.643,180.929,166.992,180.872,166.99,180.791z"/>
									</g>
								</g>
							</g>
							<g>
								<g>
									<path style="fill:#7C4435;" d="M166.83,193.507c0,0-4.766,0.097-9.615-3.376c0,0,1.984,5.542,9.514,5.322L166.83,193.507z"
										/>
								</g>
							</g>
						</g>
					</g>
					<g>
						<path style="fill:#263238;" d="M154.51,157.995c0.281,3.096,2.923,5.815,6.01,6.184c1.845,0.221,3.839-0.291,5.498,0.546
							c1.194,0.602,1.959,1.785,2.806,2.821c0.847,1.036,1.983,2.031,3.32,1.987c0.645-0.021,1.253-0.286,1.879-0.443
							c0.626-0.157,1.345-0.189,1.86,0.2c0.822-2.237,1.452-4.629,1.109-6.987c-0.343-2.358-1.858-4.674-4.142-5.354
							c-1.49-0.444-3.101-0.161-4.633-0.425c-1.263-0.218-2.429-0.799-3.597-1.327c-1.949-0.879-4.071-1.637-6.185-1.318
							c-2.114,0.32-4.151,2.062-4.097,4.2"/>
					</g>
					<g>
						<path style="fill:#263238;" d="M148.188,178.523c2.719,2.184,5.996-3.476,7.45-7.027c1.454-3.551,1.901-7.474,2.11-11.344
							c0.068-1.268,0.078-2.659-0.659-3.655c-0.779-1.052-1.125,0.241-1.973-0.748c-1.665-1.941-4.749-0.892-6.267-0.234
							c-2.529,1.098-4.112,3.922-4.611,6.791c-0.499,2.87-0.091,5.82,0.317,8.707c0.186,1.318,0.373,2.636,0.559,3.954
							c0.132,0.932,0.277,1.9,0.783,2.672C146.402,178.41,147.385,178.912,148.188,178.523"/>
					</g>
					<g>
						<g>
							<g>
								<path style="fill:#A56959;" d="M148.087,172.354c-0.005-0.606-0.478-1.118-1.084-1.135c-1.4-0.038-3.69,0.52-3.902,4.384
									c-0.303,5.52,5.006,4.139,5.024,3.981C148.139,179.461,148.103,174.499,148.087,172.354z"/>
							</g>
						</g>
						<g>
							<g>
								<g>
									<path style="fill:#7C4435;" d="M146.907,177.416c-0.023-0.019-0.1,0.062-0.266,0.128c-0.162,0.064-0.438,0.099-0.72-0.025
										c-0.571-0.246-1.012-1.199-0.984-2.195c0.013-0.503,0.145-0.976,0.345-1.362c0.191-0.395,0.467-0.662,0.764-0.699
										c0.296-0.051,0.494,0.136,0.553,0.295c0.066,0.159,0.025,0.267,0.053,0.278c0.015,0.015,0.123-0.086,0.092-0.316
										c-0.017-0.111-0.074-0.244-0.198-0.358c-0.127-0.115-0.319-0.181-0.524-0.17c-0.427,0.006-0.832,0.377-1.052,0.801
										c-0.243,0.425-0.403,0.955-0.418,1.52c-0.026,1.114,0.486,2.186,1.272,2.461c0.383,0.122,0.713,0.023,0.888-0.098
										C146.89,177.549,146.925,177.427,146.907,177.416z"/>
								</g>
							</g>
						</g>
					</g>
				</g>
				<g>
					<path style="fill:#7C4435;" d="M164.35,182.118c-0.375,0.651-0.143,1.58,0.493,1.978c0.637,0.398,1.573,0.201,1.995-0.421
						c0.421-0.622,0.258-1.565-0.348-2.009c-0.606-0.444-1.554-0.315-2.02,0.275"/>
				</g>
				<g>
					<g>
						<path style="fill:#263238;" d="M167.795,183.193c0.03,0.133-1.073,0.381-2.34-0.078c-1.271-0.448-1.967-1.338-1.86-1.422
							c0.105-0.11,0.889,0.533,2.035,0.932C166.769,183.042,167.783,183.041,167.795,183.193z"/>
					</g>
				</g>
				<g>
					<path style="fill:#E8505B;" d="M153.716,153.682c-2.042-0.286-3.501-2.281-3.844-4.314c-0.343-2.033,0.185-4.101,0.722-6.091
						c1.668,1.16,2.908,2.921,3.439,4.882c0.532,1.961,0.35,4.107-0.503,5.95"/>
				</g>
				<g>
					<path style="fill:#E8505B;" d="M153.695,153.374c-0.493-1.47,0.389-3.141,1.708-3.955c1.32-0.814,2.957-0.926,4.501-0.794
						c0.133,0.011,0.273,0.027,0.382,0.104c0.148,0.105,0.205,0.296,0.233,0.476c0.24,1.507-0.815,2.982-2.152,3.718
						c-1.337,0.736-2.905,0.895-4.424,1.04c-0.239,0.023-0.491,0.043-0.707-0.061c-0.216-0.104-0.367-0.382-0.25-0.591"/>
				</g>
				<g>
					<g>
						<path style="fill:#263238;" d="M181.025,163.281c-0.025,0.004-0.035-0.106-0.134-0.262c-0.1-0.152-0.329-0.336-0.678-0.377
							c-0.331-0.047-0.826,0.076-0.956,0.537c-0.145,0.43,0.101,1.065,0.62,1.329c0.514,0.263,1.278,0.024,1.699-0.547
							c0.432-0.559,0.457-1.43,0.152-2.197c-0.576-1.559-2.592-2.701-4.473-2.215c-0.104,0.033-0.209,0.065-0.305,0.095
							l-1.388,0.434l1.139-0.884c0.703-0.546,0.909-1.58,0.656-2.395c-0.243-0.827-0.953-1.434-1.705-1.729
							c-1.561-0.623-3.151-0.027-4.218,0.62c-0.548,0.329-1.005,0.718-1.474,0.985c-0.462,0.275-0.935,0.413-1.32,0.409
							c-0.798,0.001-1.102-0.421-1.07-0.42c0.02-0.046,0.346,0.284,1.059,0.22c0.35-0.028,0.758-0.174,1.18-0.455
							c0.426-0.272,0.864-0.678,1.431-1.048c0.563-0.365,1.233-0.709,2.021-0.894c0.779-0.19,1.697-0.197,2.564,0.139
							c0.855,0.322,1.705,1.006,2.019,2.026c0.306,0.977,0.094,2.225-0.825,2.954l-0.249-0.45c0.112-0.035,0.232-0.073,0.353-0.111
							c2.171-0.548,4.401,0.742,5.055,2.548c0.334,0.879,0.31,1.921-0.26,2.633c-0.537,0.689-1.499,0.992-2.211,0.608
							c-0.676-0.387-0.939-1.169-0.724-1.751c0.103-0.289,0.339-0.512,0.584-0.593c0.244-0.09,0.481-0.088,0.68-0.048
							c0.404,0.081,0.653,0.332,0.737,0.526C181.065,163.167,181.034,163.282,181.025,163.281z"/>
					</g>
				</g>
				<g>
					<g>
						<path style="fill:#263238;" d="M126.105,172.187c0,0,0.189-0.053,0.541,0.032c0.343,0.088,0.856,0.351,1.232,0.942
							c0.183,0.291,0.341,0.662,0.356,1.095c0.019,0.428-0.118,0.922-0.464,1.302c-0.335,0.385-0.84,0.65-1.406,0.739
							c-0.56,0.079-1.224-0.029-1.727-0.475c-0.988-0.92-1.053-2.505-0.598-3.854c0.464-1.372,1.552-2.675,3.102-3.284
							c0.769-0.296,1.58-0.411,2.338-0.65c0.759-0.223,1.452-0.644,1.809-1.345c0.368-0.69,0.4-1.555,0.284-2.391
							c-0.109-0.847-0.415-1.668-0.702-2.539c-0.282-0.865-0.542-1.766-0.534-2.705c-0.008-0.937,0.35-1.878,0.96-2.554
							c0.602-0.684,1.389-1.155,2.219-1.402c0.83-0.243,1.685-0.275,2.489-0.179c1.635,0.166,2.981,0.993,4.3,1.195
							c0.658,0.11,1.3,0.029,1.84-0.253c0.54-0.284,0.978-0.713,1.377-1.141c0.78-0.865,1.525-1.739,2.441-2.133
							c0.891-0.41,1.754-0.471,2.425-0.401c0.677,0.071,1.174,0.272,1.488,0.431c0.159,0.078,0.272,0.153,0.345,0.206
							c0.074,0.052,0.109,0.082,0.105,0.09c-0.023,0.063-0.644-0.429-1.955-0.525c-0.645-0.036-1.462,0.054-2.282,0.462
							c-0.838,0.388-1.513,1.215-2.296,2.119c-0.399,0.445-0.854,0.915-1.462,1.249c-0.609,0.335-1.37,0.438-2.09,0.324
							c-1.456-0.218-2.765-1.013-4.291-1.146c-1.493-0.19-3.199,0.197-4.269,1.439c-0.533,0.603-0.832,1.39-0.827,2.224
							c-0.007,0.835,0.232,1.687,0.511,2.539c0.279,0.848,0.604,1.718,0.72,2.63c0.12,0.897,0.098,1.864-0.346,2.701
							c-0.432,0.852-1.305,1.357-2.112,1.582c-0.814,0.248-1.612,0.356-2.315,0.623c-1.402,0.535-2.423,1.722-2.865,2.977
							c-0.443,1.238-0.369,2.68,0.438,3.441c0.821,0.73,2.104,0.446,2.669-0.188c0.625-0.654,0.472-1.574,0.151-2.097
							c-0.32-0.558-0.776-0.833-1.091-0.947C126.293,172.207,126.103,172.215,126.105,172.187z"/>
					</g>
				</g>
				<g>
					<g>
						<path style="fill:#263238;" d="M157.918,177.492c-0.134,0.053-0.279,0.005-0.324-0.108c-0.045-0.113,0.026-0.248,0.16-0.302
							c0.133-0.053,0.279-0.005,0.324,0.109C158.123,177.303,158.052,177.439,157.918,177.492z"/>
					</g>
				</g>
				<g>
					<g>
						<path style="fill:#263238;" d="M159.887,177.328c-0.142,0.02-0.276-0.092-0.299-0.25c-0.023-0.159,0.074-0.304,0.217-0.324
							c0.142-0.02,0.276,0.092,0.299,0.25C160.127,177.163,160.029,177.308,159.887,177.328z"/>
					</g>
				</g>
				<g>
					<g>
						<path style="fill:#263238;" d="M161.678,177.736c-0.143-0.018-0.24-0.18-0.217-0.361c0.023-0.181,0.157-0.314,0.3-0.296
							c0.143,0.018,0.24,0.18,0.217,0.361C161.955,177.622,161.821,177.754,161.678,177.736z"/>
					</g>
				</g>
				<g>
					<g>
						<ellipse style="fill:#263238;" cx="159.559" cy="178.723" rx="0.26" ry="0.246"/>
					</g>
				</g>
				<g>
					<g>
						<path style="fill:#263238;" d="M172.018,177.986c-0.143,0.02-0.276-0.093-0.298-0.252c-0.022-0.159,0.076-0.303,0.218-0.323
							c0.142-0.02,0.276,0.093,0.298,0.252C172.258,177.822,172.161,177.966,172.018,177.986z"/>
					</g>
				</g>
				<g>
					<g>
						<path style="fill:#263238;" d="M173.33,178.062c-0.136-0.046-0.192-0.248-0.123-0.452c0.068-0.204,0.234-0.332,0.371-0.286
							c0.136,0.046,0.191,0.248,0.123,0.452C173.632,177.979,173.466,178.108,173.33,178.062z"/>
					</g>
				</g>
				<g>
					<g>
						<path style="fill:#263238;" d="M172.673,179.869c-0.142-0.022-0.238-0.167-0.214-0.326c0.024-0.158,0.159-0.269,0.301-0.248
							c0.142,0.021,0.238,0.167,0.214,0.326C172.95,179.78,172.815,179.891,172.673,179.869z"/>
					</g>
				</g>
			</g>
			<g>
				<g>
					<path style="fill:#263238;" d="M212.78,454.271l-22.56-163.458l0,0l-0.634-10.551l-56.446-2.678l-2.355,8.888
						c-7.925,27.917-47.943,162.931-47.943,162.931l19.552,6.168l58.195-154.7l27.094,153.125L212.78,454.271z"/>
				</g>
				<g>
					<g>
						<g>
							<g>
								<path style="fill:#455A64;" d="M186.708,278.682c-0.143,0.014-0.292-0.309-0.331-0.721s0.044-0.758,0.187-0.772
									c0.143-0.014,0.292,0.309,0.331,0.722C186.934,278.323,186.851,278.669,186.708,278.682z"/>
							</g>
						</g>
						<g>
							<g>
								<path style="fill:#455A64;" d="M187.299,284.631c-0.143,0.014-0.326-0.64-0.409-1.461c-0.083-0.821-0.034-1.499,0.109-1.513
									s0.326,0.64,0.409,1.461C187.491,283.939,187.442,284.617,187.299,284.631z"/>
							</g>
						</g>
						<g>
							<g>
								<path style="fill:#455A64;" d="M187.916,290.577c-0.143,0.015-0.329-0.638-0.415-1.459c-0.086-0.821-0.04-1.499,0.103-1.513
									c0.143-0.015,0.329,0.638,0.415,1.459C188.105,289.884,188.059,290.562,187.916,290.577z"/>
							</g>
						</g>
						<g>
							<g>
								<path style="fill:#455A64;" d="M188.557,296.52c-0.143,0.016-0.331-0.637-0.421-1.457c-0.089-0.821-0.046-1.498,0.097-1.514
									c0.143-0.016,0.331,0.637,0.421,1.457C188.744,295.827,188.7,296.504,188.557,296.52z"/>
							</g>
						</g>
						<g>
							<g>
								<path style="fill:#455A64;" d="M189.221,302.461c-0.143,0.016-0.334-0.636-0.426-1.456c-0.092-0.82-0.051-1.498,0.092-1.514
									c0.143-0.016,0.334,0.636,0.426,1.456C189.405,301.767,189.364,302.445,189.221,302.461z"/>
							</g>
						</g>
						<g>
							<g>
								<path style="fill:#455A64;" d="M189.905,308.399c-0.143,0.017-0.336-0.635-0.431-1.454c-0.095-0.82-0.057-1.498,0.086-1.515
									c0.143-0.017,0.336,0.634,0.431,1.454C190.087,307.704,190.048,308.382,189.905,308.399z"/>
							</g>
						</g>
						<g>
							<g>
								<path style="fill:#455A64;" d="M190.609,314.335c-0.143,0.017-0.338-0.634-0.436-1.453c-0.098-0.82-0.061-1.498,0.082-1.515
									c0.143-0.017,0.338,0.633,0.436,1.453C190.788,313.64,190.751,314.318,190.609,314.335z"/>
							</g>
						</g>
						<g>
							<g>
								<path style="fill:#455A64;" d="M191.329,320.269c-0.143,0.017-0.34-0.633-0.44-1.452c-0.1-0.819-0.066-1.498,0.077-1.515
									c0.143-0.017,0.34,0.633,0.44,1.452C191.507,319.573,191.472,320.252,191.329,320.269z"/>
							</g>
						</g>
						<g>
							<g>
								<path style="fill:#455A64;" d="M192.066,326.202c-0.143,0.018-0.341-0.632-0.443-1.451
									c-0.102-0.819-0.069-1.497,0.073-1.515c0.143-0.018,0.341,0.632,0.443,1.451
									C192.242,325.505,192.209,326.184,192.066,326.202z"/>
							</g>
						</g>
						<g>
							<g>
								<path style="fill:#455A64;" d="M192.816,332.132c-0.143,0.018-0.343-0.631-0.447-1.45c-0.104-0.819-0.073-1.497,0.07-1.515
									c0.143-0.018,0.343,0.631,0.447,1.45C192.99,331.435,192.959,332.114,192.816,332.132z"/>
							</g>
						</g>
						<g>
							<g>
								<path style="fill:#455A64;" d="M193.579,338.061c-0.143,0.018-0.344-0.63-0.45-1.449c-0.106-0.819-0.076-1.497,0.067-1.516
									c0.143-0.018,0.344,0.63,0.45,1.449C193.752,337.364,193.722,338.043,193.579,338.061z"/>
							</g>
						</g>
						<g>
							<g>
								<path style="fill:#455A64;" d="M194.353,343.989c-0.143,0.019-0.345-0.63-0.452-1.448c-0.107-0.819-0.079-1.497,0.064-1.516
									c0.143-0.019,0.345,0.63,0.452,1.448C194.524,343.292,194.496,343.97,194.353,343.989z"/>
							</g>
						</g>
						<g>
							<g>
								<path style="fill:#455A64;" d="M195.136,349.916c-0.143,0.019-0.346-0.629-0.454-1.447
									c-0.108-0.818-0.081-1.497,0.062-1.516c0.143-0.019,0.346,0.629,0.454,1.448
									C195.306,349.218,195.279,349.897,195.136,349.916z"/>
							</g>
						</g>
						<g>
							<g>
								<path style="fill:#455A64;" d="M195.926,355.841c-0.143,0.019-0.347-0.629-0.456-1.447c-0.109-0.818-0.082-1.497,0.06-1.516
									c0.143-0.019,0.347,0.629,0.456,1.447C196.096,355.144,196.069,355.822,195.926,355.841z"/>
							</g>
						</g>
						<g>
							<g>
								<path style="fill:#455A64;" d="M196.723,361.766c-0.143,0.019-0.347-0.628-0.458-1.446c-0.11-0.818-0.084-1.497,0.059-1.516
									c0.143-0.019,0.347,0.628,0.457,1.447C196.891,361.068,196.865,361.747,196.723,361.766z"/>
							</g>
						</g>
						<g>
							<g>
								<path style="fill:#455A64;" d="M197.523,367.691c-0.143,0.019-0.348-0.628-0.458-1.446
									c-0.111-0.818-0.085-1.497,0.058-1.516c0.143-0.019,0.348,0.628,0.458,1.446
									C197.691,366.993,197.665,367.671,197.523,367.691z"/>
							</g>
						</g>
						<g>
							<g>
								<path style="fill:#455A64;" d="M198.325,373.615c-0.143,0.019-0.348-0.628-0.459-1.446
									c-0.111-0.818-0.085-1.497,0.057-1.516c0.142-0.019,0.348,0.628,0.459,1.446
									C198.493,372.917,198.468,373.595,198.325,373.615z"/>
							</g>
						</g>
						<g>
							<g>
								<path style="fill:#455A64;" d="M199.147,379.529c-0.142,0.021-0.352-0.625-0.468-1.442
									c-0.116-0.817-0.095-1.496,0.047-1.515c0.142-0.019,0.352,0.626,0.468,1.442C199.311,378.83,199.29,379.509,199.147,379.529
									z"/>
							</g>
						</g>
						<g>
							<g>
								<path style="fill:#455A64;" d="M200.022,385.436c-0.142,0.021-0.356-0.622-0.477-1.438
									c-0.122-0.815-0.105-1.493,0.038-1.514c0.142-0.021,0.356,0.622,0.478,1.438
									C200.182,384.737,200.165,385.415,200.022,385.436z"/>
							</g>
						</g>
						<g>
							<g>
								<path style="fill:#455A64;" d="M200.91,391.343c-0.142,0.021-0.357-0.623-0.48-1.439c-0.123-0.816-0.107-1.495,0.035-1.517
									c0.142-0.021,0.357,0.623,0.48,1.439C201.068,390.643,201.052,391.322,200.91,391.343z"/>
							</g>
						</g>
						<g>
							<g>
								<path style="fill:#455A64;" d="M201.804,397.252c-0.142,0.021-0.357-0.622-0.481-1.437
									c-0.123-0.816-0.108-1.494,0.034-1.515c0.142-0.022,0.357,0.622,0.481,1.437
									C201.961,396.552,201.946,397.23,201.804,397.252z"/>
							</g>
						</g>
						<g>
							<g>
								<path style="fill:#455A64;" d="M202.699,403.153c-0.142,0.022-0.358-0.621-0.482-1.436
									c-0.124-0.815-0.109-1.493,0.034-1.514c0.142-0.022,0.358,0.621,0.481,1.436
									C202.856,402.454,202.841,403.132,202.699,403.153z"/>
							</g>
						</g>
						<g>
							<g>
								<path style="fill:#455A64;" d="M203.596,409.056c-0.142,0.022-0.358-0.622-0.482-1.437
									c-0.124-0.815-0.109-1.493,0.033-1.515c0.142-0.022,0.358,0.621,0.482,1.437
									C203.753,408.356,203.739,409.034,203.596,409.056z"/>
							</g>
						</g>
						<g>
							<g>
								<path style="fill:#455A64;" d="M204.495,414.962c-0.142,0.022-0.358-0.622-0.482-1.438
									c-0.124-0.816-0.109-1.495,0.033-1.516c0.142-0.022,0.358,0.622,0.482,1.438
									C204.652,414.262,204.637,414.941,204.495,414.962z"/>
							</g>
						</g>
						<g>
							<g>
								<path style="fill:#455A64;" d="M205.395,420.876c-0.142,0.022-0.358-0.623-0.482-1.44c-0.124-0.817-0.11-1.497,0.033-1.518
									c0.142-0.022,0.358,0.623,0.482,1.44C205.551,420.175,205.537,420.855,205.395,420.876z"/>
							</g>
						</g>
						<g>
							<g>
								<path style="fill:#455A64;" d="M206.294,426.787c-0.142,0.022-0.358-0.622-0.482-1.438
									c-0.124-0.816-0.109-1.495,0.033-1.517c0.142-0.022,0.358,0.622,0.482,1.439
									C206.45,426.086,206.436,426.765,206.294,426.787z"/>
							</g>
						</g>
						<g>
							<g>
								<path style="fill:#455A64;" d="M207.191,432.697c-0.142,0.022-0.358-0.623-0.482-1.439
									c-0.124-0.816-0.109-1.495,0.033-1.517c0.142-0.021,0.358,0.622,0.482,1.439
									C207.348,431.996,207.333,432.676,207.191,432.697z"/>
							</g>
						</g>
						<g>
							<g>
								<path style="fill:#455A64;" d="M208.086,438.609c-0.142,0.022-0.358-0.623-0.481-1.439
									c-0.123-0.816-0.108-1.495,0.034-1.517c0.142-0.022,0.357,0.623,0.481,1.439
									C208.243,437.908,208.228,438.587,208.086,438.609z"/>
							</g>
						</g>
						<g>
							<g>
								<path style="fill:#455A64;" d="M208.977,444.522c-0.142,0.021-0.357-0.623-0.48-1.44c-0.123-0.817-0.107-1.496,0.035-1.517
									c0.142-0.021,0.357,0.623,0.48,1.44C209.134,443.822,209.119,444.501,208.977,444.522z"/>
							</g>
						</g>
						<g>
							<g>
								<path style="fill:#455A64;" d="M209.858,450.441c-0.142,0.021-0.356-0.624-0.477-1.442
									c-0.121-0.818-0.104-1.497,0.038-1.518c0.142-0.021,0.356,0.624,0.477,1.442C210.017,449.74,210,450.42,209.858,450.441z"/>
							</g>
						</g>
						<g>
							<g>
								<path style="fill:#455A64;" d="M210.501,454.916c-0.143,0.019-0.304-0.297-0.362-0.706
									c-0.057-0.409,0.012-0.757,0.154-0.777c0.142-0.021,0.304,0.295,0.362,0.705
									C210.713,454.548,210.644,454.897,210.501,454.916z"/>
							</g>
						</g>
					</g>
				</g>
				<g>
					<g>
						<g>
							<path style="fill:#455A64;" d="M101.01,451.3c0.137,0.043,0.147,0.398,0.023,0.793c-0.124,0.395-0.336,0.68-0.474,0.636
								c-0.137-0.043-0.147-0.398-0.023-0.793C100.661,451.542,100.873,451.257,101.01,451.3z"/>
						</g>
					</g>
					<g>
						<g>
							<path style="fill:#455A64;" d="M102.857,445.513c0.137,0.044,0.04,0.727-0.216,1.526c-0.256,0.799-0.575,1.411-0.712,1.367
								c-0.137-0.044-0.04-0.727,0.216-1.526C102.401,446.081,102.72,445.469,102.857,445.513z"/>
						</g>
					</g>
					<g>
						<g>
							<path style="fill:#455A64;" d="M104.735,439.735c0.137,0.045,0.036,0.727-0.224,1.525c-0.26,0.798-0.582,1.408-0.719,1.363
								c-0.137-0.045-0.036-0.727,0.224-1.525C104.276,440.301,104.598,439.69,104.735,439.735z"/>
						</g>
					</g>
					<g>
						<g>
							<path style="fill:#455A64;" d="M106.643,433.966c0.137,0.045,0.033,0.728-0.232,1.524c-0.265,0.796-0.59,1.405-0.726,1.36
								c-0.136-0.045-0.033-0.728,0.232-1.524C106.182,434.53,106.507,433.921,106.643,433.966z"/>
						</g>
					</g>
					<g>
						<g>
							<path style="fill:#455A64;" d="M108.579,428.206c0.136,0.046,0.029,0.728-0.239,1.523c-0.268,0.795-0.596,1.402-0.733,1.356
								c-0.136-0.046-0.029-0.728,0.239-1.523C108.115,428.767,108.443,428.16,108.579,428.206z"/>
						</g>
					</g>
					<g>
						<g>
							<path style="fill:#455A64;" d="M110.543,422.453c0.136,0.047,0.026,0.728-0.246,1.522c-0.272,0.794-0.603,1.4-0.739,1.353
								c-0.136-0.047-0.026-0.728,0.246-1.522C110.076,423.013,110.407,422.407,110.543,422.453z"/>
						</g>
					</g>
					<g>
						<g>
							<path style="fill:#455A64;" d="M112.533,416.71c0.136,0.047,0.023,0.728-0.253,1.521c-0.276,0.793-0.609,1.397-0.745,1.35
								c-0.136-0.047-0.022-0.728,0.253-1.521C112.063,417.267,112.397,416.662,112.533,416.71z"/>
						</g>
					</g>
					<g>
						<g>
							<path style="fill:#455A64;" d="M114.547,410.973c0.136,0.048,0.02,0.728-0.259,1.52c-0.279,0.792-0.615,1.395-0.751,1.347
								c-0.136-0.048-0.019-0.728,0.259-1.52C114.075,411.528,114.411,410.925,114.547,410.973z"/>
						</g>
					</g>
					<g>
						<g>
							<path style="fill:#455A64;" d="M116.584,405.244c0.135,0.048,0.017,0.729-0.265,1.519c-0.282,0.791-0.62,1.393-0.756,1.344
								c-0.135-0.048-0.017-0.728,0.265-1.519C116.11,405.797,116.448,405.196,116.584,405.244z"/>
						</g>
					</g>
					<g>
						<g>
							<path style="fill:#455A64;" d="M118.642,399.522c0.135,0.049,0.014,0.729-0.271,1.518c-0.285,0.79-0.626,1.391-0.761,1.342
								c-0.135-0.049-0.014-0.729,0.271-1.519C118.166,400.074,118.507,399.473,118.642,399.522z"/>
						</g>
					</g>
					<g>
						<g>
							<path style="fill:#455A64;" d="M120.72,393.806c0.135,0.049,0.011,0.729-0.276,1.518c-0.288,0.789-0.63,1.389-0.766,1.339
								c-0.135-0.049-0.011-0.729,0.276-1.518C120.243,394.357,120.585,393.757,120.72,393.806z"/>
						</g>
					</g>
					<g>
						<g>
							<path style="fill:#455A64;" d="M122.818,388.097c0.135,0.05,0.009,0.729-0.281,1.517c-0.29,0.788-0.635,1.387-0.77,1.337
								c-0.135-0.05-0.009-0.729,0.281-1.517C122.338,388.646,122.683,388.047,122.818,388.097z"/>
						</g>
					</g>
					<g>
						<g>
							<path style="fill:#455A64;" d="M124.933,382.393c0.135,0.05,0.007,0.729-0.286,1.516c-0.293,0.787-0.639,1.385-0.774,1.335
								c-0.135-0.05-0.007-0.729,0.286-1.516C124.451,382.941,124.798,382.343,124.933,382.393z"/>
						</g>
					</g>
					<g>
						<g>
							<path style="fill:#455A64;" d="M127.064,376.695c0.135,0.051,0.005,0.729-0.29,1.515c-0.295,0.787-0.643,1.383-0.778,1.333
								c-0.135-0.05-0.005-0.729,0.29-1.516C126.581,377.242,126.929,376.645,127.064,376.695z"/>
						</g>
					</g>
					<g>
						<g>
							<path style="fill:#455A64;" d="M129.209,371.003c0.135,0.051,0.003,0.729-0.294,1.515c-0.297,0.786-0.646,1.382-0.781,1.331
								c-0.134-0.051-0.003-0.729,0.294-1.515C128.725,371.548,129.075,370.952,129.209,371.003z"/>
						</g>
					</g>
					<g>
						<g>
							<path style="fill:#455A64;" d="M131.368,365.315c0.134,0.051,0.001,0.729-0.297,1.514c-0.299,0.785-0.65,1.38-0.784,1.329
								c-0.134-0.051-0.001-0.729,0.297-1.514C130.883,365.859,131.234,365.264,131.368,365.315z"/>
						</g>
					</g>
					<g>
						<g>
							<path style="fill:#455A64;" d="M133.539,359.632c0.134,0.051,0,0.729-0.3,1.514c-0.3,0.785-0.652,1.379-0.787,1.328
								c-0.134-0.051,0-0.729,0.3-1.514C133.052,360.175,133.404,359.58,133.539,359.632z"/>
						</g>
					</g>
					<g>
						<g>
							<path style="fill:#455A64;" d="M135.72,353.952c0.134,0.052-0.001,0.729-0.303,1.513c-0.302,0.784-0.655,1.378-0.789,1.326
								c-0.134-0.052,0.001-0.729,0.303-1.513C135.232,354.495,135.586,353.901,135.72,353.952z"/>
						</g>
					</g>
					<g>
						<g>
							<path style="fill:#455A64;" d="M137.91,348.277c0.134,0.052-0.002,0.729-0.305,1.512c-0.303,0.784-0.657,1.377-0.791,1.325
								c-0.134-0.052,0.003-0.729,0.305-1.513C137.422,348.818,137.776,348.225,137.91,348.277z"/>
						</g>
					</g>
					<g>
						<g>
							<path style="fill:#455A64;" d="M140.109,342.605c0.134,0.052-0.004,0.729-0.307,1.512c-0.304,0.783-0.659,1.376-0.793,1.324
								c-0.134-0.052,0.003-0.729,0.307-1.512C139.62,343.145,139.975,342.553,140.109,342.605z"/>
						</g>
					</g>
					<g>
						<g>
							<path style="fill:#455A64;" d="M142.313,336.935c0.134,0.052-0.004,0.729-0.309,1.512c-0.305,0.783-0.66,1.375-0.794,1.323
								c-0.134-0.052,0.004-0.729,0.309-1.512C141.824,337.476,142.179,336.883,142.313,336.935z"/>
						</g>
					</g>
					<g>
						<g>
							<path style="fill:#455A64;" d="M144.523,331.269c0.134,0.052-0.005,0.729-0.31,1.511c-0.305,0.782-0.661,1.374-0.795,1.322
								c-0.134-0.052,0.005-0.729,0.31-1.511C144.033,331.809,144.389,331.217,144.523,331.269z"/>
						</g>
					</g>
					<g>
						<g>
							<path style="fill:#455A64;" d="M146.736,325.605c0.134,0.052-0.005,0.729-0.311,1.511c-0.306,0.782-0.662,1.374-0.796,1.321
								c-0.134-0.052,0.005-0.729,0.311-1.511C146.246,326.144,146.602,325.552,146.736,325.605z"/>
						</g>
					</g>
					<g>
						<g>
							<path style="fill:#455A64;" d="M148.953,319.943c0.134,0.053-0.007,0.728-0.313,1.51c-0.306,0.782-0.662,1.373-0.796,1.32
								c-0.134-0.052,0.006-0.728,0.312-1.51C148.46,320.481,148.819,319.89,148.953,319.943z"/>
						</g>
					</g>
					<g>
						<g>
							<path style="fill:#455A64;" d="M151.271,314.323c0.132,0.058-0.026,0.73-0.352,1.501c-0.326,0.771-0.698,1.352-0.831,1.298
								c-0.133-0.054,0.024-0.726,0.352-1.501C150.767,314.847,151.139,314.265,151.271,314.323z"/>
						</g>
					</g>
					<g>
						<g>
							<path style="fill:#455A64;" d="M153.879,308.831c0.127,0.068-0.072,0.729-0.444,1.477c-0.372,0.749-0.78,1.306-0.91,1.245
								c-0.13-0.061,0.068-0.722,0.444-1.478C153.345,309.321,153.752,308.764,153.879,308.831z"/>
						</g>
					</g>
					<g>
						<g>
							<path style="fill:#455A64;" d="M157.112,303.687c0.111,0.091-0.181,0.717-0.653,1.399c-0.473,0.682-0.956,1.174-1.079,1.099
								c-0.123-0.074,0.169-0.701,0.653-1.399C156.517,304.088,157,303.596,157.112,303.687z"/>
						</g>
					</g>
					<g>
						<g>
							<path style="fill:#455A64;" d="M160.589,300.87c0.039,0.139-0.225,0.339-0.567,0.522c-0.344,0.181-0.672,0.281-0.758,0.164
								c-0.085-0.114,0.126-0.419,0.515-0.624C160.167,300.723,160.551,300.731,160.589,300.87z"/>
						</g>
					</g>
				</g>
			</g>
		</g>
		<g>
			<g>
				<g>
					<path style="fill:#E8505B;" d="M151.451,215.198l-35.767-0.965H79.207c-4.781,0-8.656,4.027-8.656,8.995v24.735
						c0,17.178,3.892,34.199,11.899,49.227c6.738,12.646,17.171,25.667,33.233,33.943c14.765-5.547,25.786-20.332,32.524-32.978
						c8.007-15.028,11.899-32.05,11.899-49.227v-24.735C160.107,219.225,156.232,215.198,151.451,215.198z"/>
				</g>
				<g>
					<polygon style="fill:#FFFFFF;" points="114.446,273.086 101.211,262.136 105.673,256.743 113.651,263.344 126.705,248.365 
						131.983,252.963 					"/>
				</g>
			</g>
			<g style="opacity:0.3;">
				<path d="M151.451,215.198l-35.767-0.965H79.207c-4.781,0-8.656,4.027-8.656,8.995v24.735c0,17.178,3.892,34.199,11.899,49.227
					c6.738,12.646,17.171,25.667,33.233,33.943c14.765-5.547,25.786-20.332,32.524-32.978c8.007-15.028,11.899-32.05,11.899-49.227
					v-24.735C160.107,219.225,156.232,215.198,151.451,215.198z M150.269,250.757c0,13.59-3.079,27.058-9.414,38.947
					c-5.331,10.005-13.173,20.307-25.88,26.855c-12.708-6.548-20.253-16.85-25.584-26.855c-6.335-11.89-9.414-25.357-9.414-38.947
					v-19.569c0-3.93,3.066-7.116,6.848-7.116h27.737h1.122h27.737c3.782,0,6.849,3.186,6.849,7.116V250.757z"/>
			</g>
		</g>
	</g>
</g>
</svg>
