<?xml version="1.0" encoding="utf-8"?>
<!-- Generator: Adobe Illustrator 27.5.0, SVG Export Plug-In . SVG Version: 6.00 Build 0)  -->
<svg version="1.1" id="Capa_1" xmlns="http://www.w3.org/2000/svg" xmlns:xlink="http://www.w3.org/1999/xlink" x="0px" y="0px"
	 viewBox="0 0 425.2 425.2" style="enable-background:new 0 0 425.2 425.2;" xml:space="preserve">
<rect x="0.002" y="0.002" style="fill:#FFFFFF;" width="425.197" height="425.196"/>
<path style="fill:#A7DEF1;" d="M53.887,294.261c-17.629-18.596-28.169-43.87-24.848-69.963
	c6.725-52.808,73.162-50.935,95.563-91.287c11.851-21.345,6.619-47.952,21.154-68.543c15.641-22.153,47-43.746,75.109-32.912
	c35.705,13.759,21.453,70.143,61.193,81.17c25.58,7.099,52.141,2.233,78.156,3.949c50.873,3.352,52.902,71.994,30.396,104.896
	c-20.607,30.125-52.927,50.347-90.153,46.907c-32.762-3.025-79.13-46.807-110.039-17.674c-7.914,7.459-7.707,20.795-7.814,30.627
	c-0.264,24.22-15.396,35.133-37.468,40.145c-26.841,6.095-50.659,2.694-73.754-12.609C65.04,304.765,59.146,299.81,53.887,294.261z"
	/>
<g>
	<path style="fill:#E5C7C0;" d="M316.914,383.807c0,7.061-48.73,12.784-108.838,12.784c-60.117,0-108.842-5.723-108.842-12.784
		c0-7.063,48.725-12.788,108.842-12.788C268.184,371.019,316.914,376.744,316.914,383.807z"/>
	<g>
		<g>
			<polygon style="fill:#F8B78F;" points="231.627,180.492 213.924,157.274 228.338,145.221 243.623,174.569 			"/>
			<path style="fill:#F8B78F;" d="M233.758,174.27c-3.914,3.882-2.131,6.222-2.131,6.222c5.908,5.358,9.344,5.23,9.344,5.23
				l13.215-13.78l15.256-22.684l-3.881-3.399C265.561,145.857,243.334,163.385,233.758,174.27z"/>
			<g>
				<g>
					<g>
						<path style="fill:#4958A7;" d="M236.529,157.051c-12.258-22.751-12.516-22.606-23.215-36.467c0,0-8.578-8.389-14.916-0.093
							c0,0-6.496,7.604-0.986,15.727c0,0,11.682,19.791,22.078,32.422C225.789,166.463,231.752,162.298,236.529,157.051z"/>
					</g>
				</g>
			</g>
			<g>
				<path style="fill:#F8B78F;" d="M278.318,144.587c0,0-2.381,1.776-8.877,4.67l-3.881-3.399l2.889-8.235l4.541-6.674l0.088,6.089
					l6.855-4.288l0.244,1.979l2.49,1.102c-1.291,3.097-1.73,6.6-1.73,6.6L278.318,144.587z"/>
			</g>
		</g>
		<g>
			<path style="fill:#A36448;" d="M314.572,121.256l-0.592-6.855l1.717-7.024l1.982,5.081l4.41-5.747l0.826,1.584l2.434,0.143
				c-0.113,3.003,0.617,6.081,0.617,6.081l-1.521,2.631c0,0-1.336,2.229-5.879,6.694l-9.83,16.258c0,0-15.248,21.993-15.123,20.993
				c-2.752,1.667-4.727,0-4.727,0l-23.705-18.122c-8.174-7.156-8.648-16.359-8.648-16.359c1.756-8.261,11.133-2.681,11.133-2.681
				l22.072,23.456l13.332-13.767L314.572,121.256z"/>
			<path style="fill:#3C2415;" d="M217.822,73.53c-0.424,2.604-0.879,7.151-0.408,9.664c0.549,2.933,3.615,5.122,3.666,8.41
				c0.045,2.981-2.27,5.073-3.592,7.665c-1.457,2.856-2.182,5.376-2.074,8.668c0.164,5.098,4.256,11.5,9.35,12.657
				c6.971,1.584,9.518-3.371,15.15-6.424c4.828-2.616,12.469,1.539,15.24-3.549c5.16-9.475-5.789-14.821-6.074-23.351
				c-0.104-3.127,1.939-5.395,1.666-8.725c-0.566-6.869-5.906-5.42-10.006-8.602c-4.166-3.233-2.662-12.136-10.129-10.794
				C224.17,60.308,218.813,67.449,217.822,73.53z"/>
			<polygon style="fill:#A36448;" points="246.205,292.611 247.119,321.604 250.523,371.647 257.344,371.647 261.416,321.604 
				261.416,292.611 			"/>
			<g>
				<rect x="228.119" y="365.028" style="fill:#A36448;" width="7" height="9.184"/>
				<path style="fill:#003A54;" d="M227.279,370.207l-20.266,8.145c-0.771,0.355-0.486,0.998-0.486,0.998
					c2.037,2.961,13.631,1.252,13.631,1.252l16.598-3.652c0.113-3.484-1.154-7.119-1.154-7.119h-0.539
					c-0.914,0.203-1.449,1.281-2.15,1.855c-0.715,0.588-1.707,0.66-2.596,0.643l0.555-0.791c0.178-0.256-0.045-0.393-0.045-0.393
					l-2.764-0.977C228.063,370.168,227.699,370.04,227.279,370.207z"/>
				<g>
					<path style="fill:#FFFFFF;" d="M223.846,371.055c1.031,0.387,2.096,1.408,2.371,2.494c0.16,0.627-0.805,0.891-0.963,0.266
						c-0.186-0.73-0.971-1.531-1.674-1.795C222.98,371.795,223.24,370.829,223.846,371.055L223.846,371.055z"/>
				</g>
				<g>
					<path style="fill:#FFFFFF;" d="M221.539,371.846c1.021,0.688,1.854,1.445,2.422,2.553c0.293,0.574-0.57,1.08-0.865,0.506
						c-0.49-0.959-1.176-1.6-2.063-2.195C220.502,372.352,221.002,371.485,221.539,371.846L221.539,371.846z"/>
				</g>
				<g>
					<path style="fill:#FFFFFF;" d="M219.666,372.756c0.877,0.68,1.863,1.424,2.102,2.572c0.133,0.629-0.832,0.896-0.963,0.266
						c-0.201-0.957-1.119-1.566-1.846-2.131C218.451,373.069,219.164,372.368,219.666,372.756L219.666,372.756z"/>
				</g>
				<g>
					<path style="fill:#FFFFFF;" d="M217.652,373.512c0.9,0.633,1.592,1.406,2.092,2.387c0.293,0.574-0.568,1.08-0.863,0.506
						c-0.422-0.826-0.973-1.494-1.734-2.029C216.625,374.008,217.123,373.141,217.652,373.512L217.652,373.512z"/>
				</g>
				<path style="fill:#FFFFFF;" d="M236.756,376.95l-16.598,3.652c0,0-12.309,1.676-13.682-1.574c0,0,0,3.25,4.418,3.707
					c0,0,4.242,0.709,9.537-0.541l16.324-3.5C236.756,378.694,236.957,378.454,236.756,376.95z"/>
			</g>
			<g>
				<rect x="250.344" y="365.028" style="fill:#A36448;" width="7" height="9.184"/>
				<path style="fill:#003A54;" d="M258.182,370.207l20.266,8.145c0.772,0.355,0.486,0.998,0.486,0.998
					c-2.037,2.961-13.631,1.252-13.631,1.252l-16.598-3.652c-0.111-3.484,1.154-7.119,1.154-7.119h0.539
					c0.916,0.203,1.449,1.281,2.15,1.855c0.717,0.588,1.707,0.66,2.598,0.643l-0.555-0.791c-0.18-0.256,0.045-0.393,0.045-0.393
					l2.764-0.977C257.4,370.168,257.764,370.04,258.182,370.207z"/>
				<g>
					<path style="fill:#FFFFFF;" d="M261.617,371.055c-1.033,0.387-2.096,1.408-2.373,2.494c-0.158,0.627,0.807,0.891,0.965,0.266
						c0.185-0.73,0.971-1.531,1.674-1.795C262.48,371.795,262.223,370.829,261.617,371.055L261.617,371.055z"/>
				</g>
				<g>
					<path style="fill:#FFFFFF;" d="M263.924,371.846c-1.021,0.688-1.855,1.445-2.422,2.553c-0.293,0.574,0.57,1.08,0.863,0.506
						c0.49-0.959,1.178-1.6,2.063-2.195C264.961,372.352,264.461,371.485,263.924,371.846L263.924,371.846z"/>
				</g>
				<g>
					<path style="fill:#FFFFFF;" d="M265.795,372.756c-0.875,0.68-1.861,1.424-2.102,2.572c-0.131,0.629,0.832,0.896,0.965,0.266
						c0.199-0.957,1.117-1.566,1.844-2.131C267.012,373.069,266.299,372.368,265.795,372.756L265.795,372.756z"/>
				</g>
				<g>
					<path style="fill:#FFFFFF;" d="M267.811,373.512c-0.9,0.633-1.592,1.406-2.094,2.387c-0.293,0.574,0.57,1.08,0.863,0.506
						c0.422-0.826,0.975-1.494,1.734-2.029C268.838,374.008,268.338,373.141,267.811,373.512L267.811,373.512z"/>
				</g>
				<path style="fill:#FFFFFF;" d="M248.705,376.95l16.598,3.652c0,0,12.309,1.676,13.684-1.574c0,0,0,3.25-4.418,3.707
					c0,0-4.242,0.709-9.539-0.541l-16.324-3.5C248.705,378.694,248.506,378.454,248.705,376.95z"/>
			</g>
			<path style="fill:#A36448;" d="M207.201,163.552l21.826-32.037c0,0,3.713-6.608-1.787-10.539c0,0-7.447-3.935-12.766,7.701
				l-14.477,28.838l-2.898,8.547L207.201,163.552z"/>
			<path style="fill:#A36448;" d="M207.201,163.552c0,0-4.32,8.4-10.24,6.175l-22.986-34.232l4.012-3.247L207.201,163.552z"/>
			<g>
				<path style="fill:#F8B78F;" d="M243.922,194.774v-9.105h-22.428c-1.188,3.705-2.043,6.598-2.668,9.105H243.922z"/>
				<polygon style="fill:#A36448;" points="235.035,368.067 228.215,368.067 223.24,289.604 237.809,289.604 240.156,308.604 				
					"/>
				<path style="fill:#D1D3D4;" d="M237.813,270.018l2.156-35.309l3.953-24.053c-1.484,0.211-2.971,0.342-4.441,0.4
					c-4.445,0.172-9.027-0.199-13.324-1.475c0.283,0.273,0.566,0.547,0.84,0.832c2.266,2.338,4.672,4.619,6.254,7.504
					c1.859,3.389,1.973,7.305,2.521,11.045L237.813,270.018z"/>
			</g>
			<path style="fill:#F8B78F;" d="M266.022,194.774c-0.877-2.83-1.984-5.861-3.395-9.105h-24.818
				c-0.014,1.66-0.025,4.816-0.01,9.105H266.022z"/>
			<g>
				<path style="fill:#134F7F;" d="M219.805,297.789l-1.021-16.946l-1.99-49.047c-0.256-25.596-1.189-27.744,4.701-46.127h22.428v28
					l-4.441,70.898l0.496,12.037C239.977,296.603,234.855,300.455,219.805,297.789z"/>
				<path style="fill:#D1D3D4;" d="M240.393,270.018l2.188-35.025l1.342-24.336c-1.484,0.211-2.971,0.342-4.441,0.4
					c-4.445,0.172-9.027-0.199-13.324-1.475c0.283,0.273,0.566,0.547,0.84,0.832c2.266,2.338,4.672,4.619,6.254,7.504
					c1.859,3.389,1.973,7.305,2.521,11.045L240.393,270.018z"/>
			</g>
			<path style="fill:#134F7F;" d="M263.537,296.603l-0.375-14.541c0,0,2.055-49.612,3.916-59.011c0,0,6.266-12.727-4.451-37.383
				h-24.818c-0.066,8.414,2.16,49.041,5.104,96.519l1.01,14.5C243.922,296.687,254.414,300.437,263.537,296.603z"/>
			<path style="fill:#3C2415;" d="M224.127,63.6c-1.486,2.896-2.426,7.064-1.227,10.137c2.656,6.801,15.689,9.068,19.555,2.537
				c2.883-4.869,1.539-12.094-2.063-16.242C235.385,54.266,227.305,57.395,224.127,63.6z"/>
			<g>
				<rect x="235.408" y="103.669" style="fill:#A36448;" width="13.619" height="15.533"/>
			</g>
			<g>
				<path style="fill:#8F573D;" d="M235.408,110.797v-7.129h13.619v8.516C244.213,112.229,239.584,112.2,235.408,110.797z"/>
			</g>
			<path style="fill:#A36448;" d="M216.537,125.919c3.229-4.994,8.301-6.35,8.301-6.35l12.156-4.504H248.6l12.15,4.504
				c0,0,5.074,1.355,8.303,6.35H216.537z"/>
			<path style="fill:#00B9C5;" d="M262.627,185.669c-4.334-9.307-5.772-15.387-5.772-15.387l6.266-27.254l1.311-12.32
				c2.248-9.457-0.857-10.559-0.857-10.559l-11.816-3.912c0,0-2.053,7.289-13.408,5.914c0,0-8.566-0.9-5.146-5.68l-7.203,2.73
				c0,0-2.119,6.844-8.008,23.66c0,0-1.455,7.348,6.645,14.4l-4.25,31.945C220.387,189.208,262.068,194.774,262.627,185.669z"/>
			<path style="fill:#A36448;" d="M253.426,99.368c-0.537,1.121-1.264,2.148-2.254,3.031c-4.414,3.93-10.213,6.576-16.182,6.348
				c-15.316-7.408-9.107-37.211-9.107-37.211c2.895-14.266,15.174-13.76,15.174-13.76c9.293-0.046,17.588,4.664,18.637,14.492
				c0.402,3.766-0.475,7.758-0.809,11.492c-0.244,2.75-0.688,5.477-1.668,8.066C256.219,94.469,254.641,96.829,253.426,99.368z"/>
			<path style="fill:#F17C79;" d="M265.639,195.389"/>
			<path style="fill:#A36448;" d="M255.295,88.021c0,0,1.945-4.601,5.648-2.573c0,0,2.203,1.303,0.441,4.893
				c0,0-2.369,4.75-6.09,2.756V88.021z"/>
			<g>
				<path style="fill:none;stroke:#27303B;stroke-linecap:round;stroke-linejoin:round;stroke-miterlimit:10;" d="M228.832,85.861
					c0-1.049,0.584-1.896,1.305-1.896c0.719,0,1.307,0.848,1.307,1.896"/>
				<path style="fill:none;stroke:#27303B;stroke-linecap:round;stroke-linejoin:round;stroke-miterlimit:10;" d="M240.242,85.861
					c0-1.049,0.584-1.896,1.307-1.896c0.719,0,1.303,0.848,1.303,1.896"/>
				<path style="fill:#8F573D;" d="M237.455,93.302c0,0-0.434,0.152-0.826,0.402c-0.115,0.043-0.24,0.072-0.346,0.123
					c-0.113,0.039-0.215,0.117-0.326,0.119c-0.107,0.021-0.213,0.025-0.303,0.074c-0.104-0.008-0.197-0.01-0.293,0.004
					c-0.098,0.016-0.207-0.027-0.314-0.025c-0.107,0.008-0.227-0.041-0.346-0.064c-0.254-0.029-0.461-0.135-0.713-0.178
					c-0.24-0.07-0.471-0.182-0.635-0.219c-0.168-0.045-0.275-0.061-0.275-0.061s0.012,0.107,0.049,0.277
					c0.049,0.168,0.078,0.402,0.234,0.65c0.168,0.246,0.387,0.576,0.736,0.775c0.174,0.098,0.328,0.256,0.563,0.289
					c0.223,0.047,0.443,0.127,0.684,0.131c0.242-0.027,0.484-0.066,0.715-0.113c0.215-0.082,0.406-0.225,0.588-0.336
					c0.201-0.098,0.287-0.287,0.404-0.428c0.107-0.145,0.199-0.291,0.262-0.428C237.498,93.709,237.455,93.302,237.455,93.302z"/>
				<path style="fill:#3C2415;" d="M233.371,81.71c-0.1,0.523-0.566,0.863-1.051,0.789c-1.693-0.258-3.408-0.258-5.102,0
					c-0.484,0.074-0.953-0.266-1.049-0.789l0,0c-0.098-0.521,0.26-1.039,0.803-1.121c1.855-0.283,3.736-0.283,5.592,0
					C233.109,80.671,233.469,81.189,233.371,81.71L233.371,81.71z"/>
				<path style="fill:#3C2415;" d="M244.791,81.71c-0.096,0.523-0.566,0.863-1.051,0.789c-1.691-0.258-3.408-0.258-5.1,0
					c-0.484,0.074-0.953-0.266-1.053-0.789l0,0c-0.094-0.521,0.264-1.039,0.807-1.121c1.855-0.283,3.738-0.283,5.592,0
					C244.529,80.671,244.889,81.189,244.791,81.71L244.791,81.71z"/>
				<path style="fill:#985841;" d="M231.131,90.597c0,1.148-1.395,2.082-3.113,2.082c-1.723,0-3.113-0.934-3.113-2.082
					c0-1.15,1.391-2.084,3.113-2.084C229.736,88.513,231.131,89.447,231.131,90.597z"/>
				<path style="fill:#985841;" d="M247.025,90.597c0,1.148-1.561,2.082-3.488,2.082c-1.924,0-3.484-0.934-3.484-2.082
					c0-1.15,1.561-2.084,3.484-2.084C245.465,88.513,247.025,89.447,247.025,90.597z"/>
				<path style="fill:#FFFFFF;" d="M240.008,97.562c-0.209,2.533-2.25,4.523-4.74,4.523c-2.49,0-4.529-1.99-4.738-4.523H240.008z"/>
			</g>
			<path style="fill:#3C2415;" d="M227.895,59.167c0,0-7.912,12.208,17.479,24.1c0,0,1.922,2.104,9.016,7.964
				c0,0,0.563-7.24,6.361-5.541c0,0,4.195-4.766,3.629-14.393c0,0,2.732-11.529-12.473-16.234
				C251.906,55.063,236.113,49.855,227.895,59.167z"/>
			<g>
				<path style="fill:#A36448;" d="M165.287,130.485c0,0,2.309,1.866,8.688,5.01l4.012-3.247l-2.566-8.34l-4.279-6.845l-0.324,6.08
					l-6.684-4.55l-0.322,1.967l-2.531,1.004c1.172,3.145,1.475,6.662,1.475,6.662L165.287,130.485z"/>
			</g>
			<path style="fill:#3C2415;" d="M257.43,117.939c1.641-1.61,3.217-3.017,5.592-3.29c3.965-0.457,8.096-0.459,10.154-4.633
				c0.568-1.152,0.844-2.336,0.939-3.535c-0.096-1.072-0.352-2.2-0.838-3.418c-1.18-2.961-2.703-5.846-3.008-9.002
				c-0.354-3.648,1.602-6.283,2.268-9.747c1.523-7.911-5.855-18.242-10.971-23.364c-2.877-2.881-6.824-4.206-10.871-3.178
				c-7.668,1.947-8.959,20.967-6.084,26.697c1.639,3.262,3.498,5.386,3.844,9.186c0.6,6.613-6.508,12.12-3.268,19.092
				c0.969,2.083,1.893,3.387,2.369,5.117C250.625,120.836,254.277,121.032,257.43,117.939z"/>
		</g>
		<g>
			<g>
				<rect x="159.256" y="373.015" style="fill:#F8B78F;" width="7" height="9.184"/>
				<path style="fill:#005CAB;" d="M158.418,378.194l-20.266,8.145c-0.771,0.355-0.486,0.998-0.486,0.998
					c2.037,2.961,13.631,1.252,13.631,1.252l16.598-3.652c0.111-3.484-1.154-7.119-1.154-7.119h-0.539
					c-0.916,0.203-1.449,1.281-2.15,1.855c-0.717,0.588-1.707,0.66-2.598,0.642l0.555-0.791c0.18-0.256-0.045-0.393-0.045-0.393
					l-2.764-0.977C159.199,378.155,158.836,378.026,158.418,378.194z"/>
				<g>
					<path style="fill:#FFFFFF;" d="M154.982,379.042c1.033,0.387,2.096,1.408,2.373,2.494c0.158,0.627-0.807,0.891-0.965,0.266
						c-0.186-0.73-0.971-1.531-1.674-1.795C154.119,379.782,154.377,378.815,154.982,379.042L154.982,379.042z"/>
				</g>
				<g>
					<path style="fill:#FFFFFF;" d="M152.676,379.833c1.021,0.688,1.855,1.445,2.422,2.553c0.293,0.574-0.57,1.08-0.863,0.506
						c-0.49-0.959-1.178-1.6-2.063-2.195C151.639,380.339,152.139,379.472,152.676,379.833L152.676,379.833z"/>
				</g>
				<g>
					<path style="fill:#FFFFFF;" d="M150.805,380.743c0.875,0.68,1.861,1.424,2.102,2.572c0.131,0.629-0.832,0.897-0.965,0.266
						c-0.199-0.957-1.117-1.566-1.844-2.131C149.588,381.056,150.301,380.354,150.805,380.743L150.805,380.743z"/>
				</g>
				<g>
					<path style="fill:#FFFFFF;" d="M148.789,381.499c0.9,0.633,1.592,1.406,2.094,2.387c0.293,0.574-0.57,1.08-0.863,0.506
						c-0.422-0.826-0.975-1.494-1.734-2.029C147.762,381.995,148.262,381.128,148.789,381.499L148.789,381.499z"/>
				</g>
				<path style="fill:#FFFFFF;" d="M167.895,384.936l-16.598,3.652c0,0-12.309,1.676-13.684-1.574c0,0,0,3.25,4.418,3.707
					c0,0,4.242,0.709,9.539-0.541l16.324-3.5C167.895,386.681,168.094,386.44,167.895,384.936z"/>
			</g>
			<g>
				<rect x="197.773" y="371.897" style="fill:#F8B78F;" width="7" height="9.184"/>
				<path style="fill:#005CAB;" d="M205.613,377.077l20.266,8.145c0.771,0.355,0.486,0.998,0.486,0.998
					c-2.037,2.961-13.631,1.252-13.631,1.252l-16.598-3.652c-0.113-3.484,1.154-7.119,1.154-7.119h0.539
					c0.914,0.203,1.449,1.281,2.15,1.855c0.715,0.588,1.707,0.66,2.596,0.643l-0.555-0.791c-0.178-0.256,0.045-0.393,0.045-0.393
					l2.764-0.977C204.83,377.038,205.193,376.909,205.613,377.077z"/>
				<g>
					<path style="fill:#FFFFFF;" d="M209.047,377.925c-1.031,0.387-2.096,1.408-2.371,2.494c-0.16,0.627,0.805,0.891,0.963,0.266
						c0.186-0.73,0.971-1.531,1.674-1.795C209.912,378.665,209.652,377.698,209.047,377.925L209.047,377.925z"/>
				</g>
				<g>
					<path style="fill:#FFFFFF;" d="M211.354,378.716c-1.021,0.688-1.854,1.445-2.422,2.553c-0.293,0.574,0.57,1.08,0.865,0.506
						c0.49-0.959,1.176-1.6,2.063-2.195C212.391,379.222,211.891,378.354,211.354,378.716L211.354,378.716z"/>
				</g>
				<g>
					<path style="fill:#FFFFFF;" d="M213.227,379.626c-0.877,0.68-1.863,1.424-2.102,2.572c-0.133,0.629,0.832,0.896,0.963,0.266
						c0.201-0.957,1.119-1.566,1.846-2.131C214.441,379.939,213.729,379.237,213.227,379.626L213.227,379.626z"/>
				</g>
				<g>
					<path style="fill:#FFFFFF;" d="M215.24,380.382c-0.9,0.633-1.592,1.406-2.092,2.387c-0.293,0.574,0.568,1.08,0.863,0.506
						c0.422-0.826,0.973-1.494,1.734-2.029C216.268,380.878,215.77,380.011,215.24,380.382L215.24,380.382z"/>
				</g>
				<path style="fill:#FFFFFF;" d="M196.137,383.819l16.598,3.652c0,0,12.309,1.676,13.682-1.574c0,0,0,3.25-4.418,3.707
					c0,0-4.242,0.709-9.537-0.541l-16.324-3.5C196.137,385.564,195.936,385.323,196.137,383.819z"/>
			</g>
			<g>
				<polygon style="fill:#F8B78F;" points="143.732,184.233 146.701,155.186 165.459,156.255 156.535,188.118 				"/>
				<g>
					<path style="fill:#F8B78F;" d="M143.732,184.233c-0.861,14.47,1.488,49.921,1.488,49.921l4.295,0.273l6.672-31.612
						l0.844-14.859l-4.061-7.464L143.732,184.233z"/>
				</g>
				<g>
					<g>
						<g>
							<path style="fill:#4958A7;" d="M163.342,170.488c6.158-23.237,8.01-42.481,8.01-42.481s-3.846-12.299-14.564-8.962
								c0,0-8.094,1.708-7.729,9.489c0,0-5.018,22.427-6.072,38.752C149.068,170.005,156.268,171.046,163.342,170.488z"/>
						</g>
					</g>
				</g>
				<polygon style="fill:#F8B78F;" points="145.221,234.154 143.543,243.264 146.361,248.256 151.844,254.264 151.844,252.518 
					149.471,246.014 150.16,240.471 149.516,234.427 				"/>
				<path style="fill:#F8B78F;" d="M149.789,236.991l3.182,6.48c0,0-2.053,2.836-4.902-3.24L149.789,236.991z"/>
			</g>
			<g>
				<path style="fill:#282041;" d="M190.439,218.273l-13.797,77.198l-0.834,24.75l-3.117,56.161c0,0-9.227,3.243-17.639-0.448
					l-0.637-87.265l1.566-70.396H190.439z"/>
			</g>
			<path style="fill:#D1D3D4;" d="M187.615,234.023l-9.119,48.779c-0.285-5.857-0.049-13.025-0.627-18.871
				c-0.984-9.949-1.057-24.033-6.529-29.908H187.615z"/>
			<path style="fill:#282041;" d="M175.525,218.273l12.09,73.803l2.229,31.309l3.178,52.454c0,0,8.006,2.51,14.422,0l1.842-81.62
				l1.277-75.946H175.525z"/>
			<g>
				<rect x="175.004" y="94.658" style="fill:#F8B78F;" width="14.84" height="20.613"/>
			</g>
			<g>
				<path style="fill:#F6A47A;" d="M189.844,104.236v-9.578h-14.84v12.023C180.766,107.47,185.975,106.902,189.844,104.236z"/>
			</g>
			<path style="fill:#F8B78F;" d="M211.984,122.83c-3.633-5.619-9.344-7.143-9.344-7.143l-13.686-5.072h-13.063l-13.68,5.072
				c0,0-5.713,1.523-9.344,7.143H211.984z"/>
			<path style="fill:#4958A7;" d="M193.424,112.271l13.375,4.242c0,0,7.662,3.271,7.662,13.375v14.057l0.832,74.328
				c0,0-16.732,18.021-61.371,7.73l1.377-81.51l-3.455-20.627c0-4.99,8.102-7.971,8.102-7.971l11.48-3.625c0,0,0,5.505,6.889,6.45
				C178.314,118.721,190.805,120.221,193.424,112.271z"/>
			<path style="fill:#F8B78F;" d="M176.594,101.785c2.252-0.479,6.1-1.725,6.1-1.725c8.777-3.811,11.789-3.871,13.27-8.721
				c0.045-0.15,4.27-24.922,4.27-24.922c0.121-12.706-13.297-14.25-15.318-14.412c-2.008-0.293-16.057-3.698-18.777,8.716
				c0.301-1.476-2.541,17.848,1.131,32.642c2.213,6.41,5.309,7.973,5.309,7.973S174.193,102.205,176.594,101.785z"/>
			<g>
				<path style="fill:#F6A47A;" d="M175.697,83.061c0,0,0.518,0.18,0.99,0.479c0.137,0.053,0.287,0.09,0.412,0.15
					c0.135,0.043,0.258,0.141,0.391,0.141c0.129,0.025,0.258,0.031,0.363,0.088c0.123-0.008,0.236-0.01,0.352,0.006
					c0.117,0.021,0.246-0.031,0.375-0.029c0.125,0.008,0.273-0.049,0.414-0.078c0.305-0.035,0.553-0.16,0.852-0.211
					c0.287-0.084,0.564-0.219,0.762-0.262c0.199-0.055,0.328-0.074,0.328-0.074s-0.014,0.129-0.059,0.332
					c-0.059,0.201-0.094,0.48-0.281,0.777c-0.199,0.295-0.463,0.691-0.881,0.93c-0.209,0.117-0.393,0.305-0.672,0.346
					c-0.268,0.059-0.533,0.152-0.818,0.154c-0.291-0.029-0.58-0.078-0.855-0.133c-0.26-0.1-0.486-0.27-0.703-0.402
					c-0.24-0.117-0.344-0.344-0.482-0.512c-0.131-0.174-0.24-0.348-0.314-0.512C175.645,83.545,175.697,83.061,175.697,83.061z"/>
				<path style="fill:#303945;" d="M180.838,73.032c0.115,0.625,0.678,1.031,1.258,0.943c2.023-0.309,4.078-0.309,6.102,0
					c0.582,0.088,1.145-0.318,1.26-0.943l0,0c0.115-0.625-0.313-1.246-0.961-1.344c-2.223-0.338-4.475-0.338-6.697,0
					C181.15,71.786,180.721,72.407,180.838,73.032L180.838,73.032z"/>
				<path style="fill:#303945;" d="M167.17,73.032c0.117,0.625,0.678,1.031,1.258,0.943c2.027-0.309,4.078-0.309,6.104,0
					c0.58,0.088,1.141-0.318,1.26-0.943l0,0c0.111-0.625-0.316-1.246-0.965-1.344c-2.221-0.338-4.475-0.338-6.693,0
					C167.484,71.786,167.055,72.407,167.17,73.032L167.17,73.032z"/>
				<path style="fill:none;stroke:#27303B;stroke-linecap:round;stroke-linejoin:round;stroke-miterlimit:10;" d="M170.32,77.122
					c0-1.045,0.584-1.895,1.305-1.895s1.305,0.85,1.305,1.895"/>
				<path style="fill:none;stroke:#27303B;stroke-linecap:round;stroke-linejoin:round;stroke-miterlimit:10;" d="M184.205,77.122
					c0-1.045,0.584-1.895,1.307-1.895c0.721,0,1.303,0.85,1.303,1.895"/>
				<path style="fill:#FFFFFF;" d="M173.574,90.619c0.209,2.533,2.25,4.522,4.74,4.522c2.49,0,4.529-1.989,4.738-4.522H173.574z"/>
			</g>
			<path style="fill:#303945;" d="M165.383,76.757l-1.23-17.036c0,0-4.182-7.667,2.332-9.545c6.168-1.778,0.494-8.455,9.324-10.122
				c0,0,1.176-0.667,3.67,1.333c0,0,3.096,2,10.961,1c0,0,10.055,1.334,9.793,6.334c0,0,0.738,5.666,4.072,7
				c0,0,4,4.015,2.666,10.674l-11.008,24.944l-0.465-10.83l-2.453-6.521v-7.593l-2.605-8.008l-10.961,2l-12.328-1.666
				L165.383,76.757z"/>
			<path style="fill:#F8B78F;" d="M195.498,80.509c0,0,1.832-5.049,5.578-2.453c0,0,1.701,1.115-0.002,4.531
				c0,0-2.471,4.916-6.107,2.604L195.498,80.509z"/>
		</g>
		<g>
			<path style="fill:#F8B78F;" d="M276.643,133.17c-0.522,0.628-1.592,0.601-2.395-0.063c-0.803-0.662-1.031-1.709-0.516-2.337
				c0.52-0.628,1.59-0.601,2.395,0.063C276.93,131.496,277.158,132.542,276.643,133.17z"/>
			<path style="fill:#F8B78F;" d="M283.389,140.26c-1.199,1.208-3.926,0.444-6.082-1.705c-2.156-2.148-2.932-4.869-1.729-6.076
				c1.203-1.207,3.926-0.444,6.082,1.704C283.816,136.332,284.592,139.052,283.389,140.26z"/>
		</g>
		<g>
			<path style="fill:#A36448;" d="M162.068,115.996c-0.359-0.733,0.107-1.697,1.043-2.156c0.934-0.459,1.982-0.235,2.342,0.494
				c0.357,0.733-0.109,1.697-1.045,2.157C163.475,116.948,162.426,116.724,162.068,115.996z"/>
			<path style="fill:#A36448;" d="M152.828,119.22c-0.607-1.59,1.213-3.759,4.061-4.839c2.844-1.079,5.643-0.664,6.248,0.93
				c0.604,1.593-1.215,3.76-4.061,4.838C156.229,121.229,153.432,120.813,152.828,119.22z"/>
		</g>
	</g>
</g>
</svg>
