<?xml version="1.0" encoding="utf-8"?>
<!-- Generator: Adobe Illustrator 27.5.0, SVG Export Plug-In . SVG Version: 6.00 Build 0)  -->
<svg version="1.1" xmlns="http://www.w3.org/2000/svg" xmlns:xlink="http://www.w3.org/1999/xlink" x="0px" y="0px"
	 viewBox="0 0 750 500" style="enable-background:new 0 0 750 500;" xml:space="preserve">
<g id="BACKGROUND">
</g>
<g id="OBJECTS">
	<g>
		<g>
			<ellipse style="fill:#BCBEC0;" cx="123.144" cy="400.91" rx="66.796" ry="6.832"/>
			<path style="fill:#344580;" d="M152.874,235.602h-46.028C96.106,259.303,81.23,388.695,81.23,388.695h25.616l21.977-110.496
				l11.53,110.496l20.935-1.583C161.289,330.438,152.874,235.602,152.874,235.602z"/>
			<path style="fill:#171A2A;" d="M154.062,233.911l-24.554,1.098l-24.554-1.098c0,0-1.929,6.57-1.118,8.191
				c0.808,1.615,18.667,4.436,25.632,4.457v0.001c0.013,0,0.027,0,0.04,0c0.013,0,0.027,0,0.04,0v-0.001
				c6.966-0.021,24.825-2.842,25.632-4.457C155.991,240.481,154.062,233.911,154.062,233.911z"/>
			<polygon style="fill:#3D4E8A;" points="117.676,167.346 120.097,179.799 139.463,175.921 139.463,166.967 			"/>
			<g>
				<defs>
					<path id="SVGID_1_" d="M109.358,133.258c-0.451-1.72-1.808-3.175-3.493-3.744c-0.743-0.251-1.595-0.327-2.287,0.043
						c-0.746,0.4-1.15,1.226-1.431,2.023c-1.102,3.128-0.997,6.703,0.475,9.675c1.471,2.972,4.34,5.262,7.605,5.843
						c1.441,0.256,3.193,0.046,3.935-1.216L109.358,133.258z"/>
				</defs>
				<clipPath id="SVGID_00000053506811261698268560000011885384837160557229_">
					<use xlink:href="#SVGID_1_"  style="overflow:visible;"/>
				</clipPath>
				<g style="clip-path:url(#SVGID_00000053506811261698268560000011885384837160557229_);">
					<path style="fill:#CEA28B;" d="M109.358,133.258c-0.451-1.72-1.808-3.175-3.493-3.744c-0.743-0.251-1.595-0.327-2.287,0.043
						c-0.746,0.4-1.15,1.226-1.431,2.023c-1.102,3.128-0.997,6.703,0.475,9.675c1.471,2.972,4.34,5.262,7.605,5.843
						c1.441,0.256,3.193,0.046,3.935-1.216L109.358,133.258z"/>
				</g>
				<g style="clip-path:url(#SVGID_00000053506811261698268560000011885384837160557229_);">
					<g>
						<path style="fill:#4A0F00;" d="M101.238,137.521c-0.072-0.744-0.073-1.692,0.253-2.378c1.095-2.295,3.046-0.293,3.742,0.513
							c0.726,0.84,1.324,1.813,1.887,2.766c1.088,1.841,1.985,3.786,2.864,5.733c0.283,0.626,1.205,0.083,0.923-0.54
							c-0.929-2.055-1.878-4.106-3.048-6.037c-0.816-1.346-1.782-3.046-3.178-3.893c-2.927-1.776-4.773,1.158-4.514,3.835
							C100.234,138.199,101.304,138.206,101.238,137.521L101.238,137.521z"/>
					</g>
				</g>
				<g style="clip-path:url(#SVGID_00000053506811261698268560000011885384837160557229_);">
					<g>
						<path style="fill:#4A0F00;" d="M107.198,137.785c-1.918,0.341-2.351,3.196-2.101,4.737c0.11,0.678,1.14,0.39,1.031-0.284
							c-0.157-0.971,0.091-3.197,1.354-3.422C108.159,138.696,107.872,137.665,107.198,137.785L107.198,137.785z"/>
					</g>
				</g>
			</g>
			<g>
				<defs>
					<path id="SVGID_00000148643994631997696310000013371387008209454773_" d="M150.094,134.973c0.451-1.72,1.808-3.175,3.493-3.744
						c0.743-0.251,1.595-0.327,2.287,0.043c0.746,0.4,1.15,1.226,1.431,2.023c1.102,3.128,0.997,6.703-0.475,9.675
						c-1.471,2.972-4.34,5.262-7.605,5.843c-1.441,0.256-3.193,0.046-3.935-1.216L150.094,134.973z"/>
				</defs>
				<clipPath id="SVGID_00000002372661978356137530000002645580271443177900_">
					<use xlink:href="#SVGID_00000148643994631997696310000013371387008209454773_"  style="overflow:visible;"/>
				</clipPath>
				<g style="clip-path:url(#SVGID_00000002372661978356137530000002645580271443177900_);">
					<path style="fill:#CEA28B;" d="M150.094,134.973c0.451-1.72,1.808-3.175,3.493-3.744c0.743-0.251,1.595-0.327,2.287,0.043
						c0.746,0.4,1.15,1.226,1.431,2.023c1.102,3.128,0.997,6.703-0.475,9.675c-1.471,2.972-4.34,5.262-7.605,5.843
						c-1.441,0.256-3.193,0.046-3.935-1.216L150.094,134.973z"/>
				</g>
				<g style="clip-path:url(#SVGID_00000002372661978356137530000002645580271443177900_);">
					<g>
						<path style="fill:#4A0F00;" d="M159.284,139.236c0.262-2.705-1.58-5.573-4.514-3.835c-1.306,0.774-2.221,2.347-2.994,3.589
							c-1.256,2.017-2.255,4.179-3.232,6.341c-0.281,0.622,0.64,1.167,0.923,0.54c0.88-1.946,1.776-3.892,2.864-5.733
							c0.481-0.813,0.99-1.622,1.564-2.373c0.216-0.262,0.432-0.524,0.648-0.785c0.525-0.795,1.223-0.924,2.093-0.387
							c1.073-0.209,1.569,0.156,1.487,1.095c0.181,0.509,0.212,1.026,0.092,1.55C158.148,139.92,159.218,139.916,159.284,139.236
							L159.284,139.236z"/>
					</g>
				</g>
				<g style="clip-path:url(#SVGID_00000002372661978356137530000002645580271443177900_);">
					<g>
						<path style="fill:#4A0F00;" d="M151.97,140.531c1.263,0.225,1.512,2.451,1.354,3.422c-0.109,0.673,0.921,0.963,1.031,0.284
							c0.25-1.544-0.184-4.396-2.101-4.737C151.581,139.38,151.293,140.411,151.97,140.531L151.97,140.531z"/>
					</g>
				</g>
			</g>
			<polygon style="fill:#CEA28B;" points="136.656,170.732 136.656,155.406 121.686,154.693 121.686,170.732 117.409,170.732 
				118.344,188.733 127.745,199.248 142.181,171.445 			"/>
			<g>
				<path style="fill:#BCBEC0;" d="M121.686,165.147c4.894,1.242,10.098,1.209,14.97-0.116v-9.626l-14.97-0.713V165.147z"/>
			</g>
			<path style="fill:#344580;" d="M197.607,217.337c-1.069-5.614-35.287-44.109-39.565-46.783c-4.277-2.673-18.98-1.871-18.98-1.871
				l-10.159,21.921L116.58,169.03c0,0-2.379-1.15-10.132-4.625s-32.347-7.218-32.347-7.218s14.97-19.515,14.97-21.921
				S78.379,122.97,76.24,123.504s-27.802,36.891-27.535,43.842S102.438,189,102.438,189s-2.139,39.03,1.871,44.911
				c4.01,5.881,46.248,3.743,49.189,2.139s4.277-40.099,4.277-40.099l16.307,22.188c0,0-0.535,0.802,0,2.941
				c0,0-15.772,14.436-15.505,16.842s7.218,11.495,11.228,11.495S198.677,222.951,197.607,217.337z"/>
			<path style="fill:#BCBEC0;" d="M80.192,131.983c2.284,2.384,7.992,4.056,8.88,3.284c0-2.406-10.693-12.297-12.832-11.762
				C75.952,124.389,77.908,129.599,80.192,131.983z"/>
			<g>
				<g>
					<path style="fill:#171A2A;" d="M128.289,190.604c0,15.629,0,31.258,0,46.886c0,0.688,1.069,0.689,1.069,0
						c0-15.629,0-31.258,0-46.886C129.358,189.916,128.289,189.915,128.289,190.604L128.289,190.604z"/>
				</g>
			</g>
			<polygon style="fill:#485CA3;" points="117.676,167.346 128.904,190.604 118.745,190.604 119.013,183.119 107.785,172.96 			"/>
			<polygon style="fill:#485CA3;" points="139.463,166.967 128.904,190.604 139.062,190.604 138.795,183.119 150.023,172.96 			"/>
			<path style="fill:#CEA28B;" d="M129.795,110.316c-10.426,0-22.901,4.99-22.901,4.99s2.673,35.644,5.525,39.386
				c1.28,1.68,4.911,3.108,8.525,4.173c5.787,1.704,11.916,1.704,17.702,0c3.614-1.064,7.245-2.493,8.525-4.173
				c2.852-3.743,5.525-39.386,5.525-39.386S140.221,110.316,129.795,110.316z"/>
			<g>
				<path style="fill:#4A0F00;" d="M110.77,127.908c0,0,2.205-3.501,6.398-2.705c4.193,0.796,6.004,2.949,6.398,2.867
					s2.185-0.416,1.387-1.679c-0.797-1.264-5.272-3.447-7.564-3.493c-2.292-0.046-5.39,1.379-7.08,3.413
					S110.77,127.908,110.77,127.908z"/>
				<g>
					<circle style="fill:#4A0F00;" cx="118.69" cy="134.153" r="5.81"/>
					<g>
						<defs>
							<circle id="SVGID_00000087382495331235427680000007696007869702845335_" cx="118.981" cy="135.623" r="5.81"/>
						</defs>
						<clipPath id="SVGID_00000008837495328122393420000002447837479678348195_">
							<use xlink:href="#SVGID_00000087382495331235427680000007696007869702845335_"  style="overflow:visible;"/>
						</clipPath>
						
							<circle style="clip-path:url(#SVGID_00000008837495328122393420000002447837479678348195_);fill:#EFEFEF;" cx="118.981" cy="135.623" r="5.81"/>
						
							<circle style="clip-path:url(#SVGID_00000008837495328122393420000002447837479678348195_);fill:#4A0F00;" cx="119.224" cy="135.646" r="5.147"/>
					</g>
				</g>
				<path style="fill:#4A0F00;" d="M147.444,126.067c0,0-1.341-3.914-5.604-4.104c-4.263-0.19-6.522,1.489-6.886,1.319
					c-0.364-0.17-2.03-0.907-0.964-1.954s5.924-2.142,8.165-1.66c2.241,0.482,4.928,2.582,6.105,4.95
					C149.437,126.985,147.444,126.067,147.444,126.067z"/>
				<g>
					<circle style="fill:#4A0F00;" cx="140.9" cy="134.153" r="5.81"/>
					<g>
						<defs>
							<circle id="SVGID_00000132079714324810802190000016740975816724351127_" cx="140.609" cy="134.937" r="5.81"/>
						</defs>
						<clipPath id="SVGID_00000175286441960133411460000013492638191250464699_">
							<use xlink:href="#SVGID_00000132079714324810802190000016740975816724351127_"  style="overflow:visible;"/>
						</clipPath>
						
							<circle style="clip-path:url(#SVGID_00000175286441960133411460000013492638191250464699_);fill:#EFEFEF;" cx="140.609" cy="134.937" r="5.81"/>
						
							<circle style="clip-path:url(#SVGID_00000175286441960133411460000013492638191250464699_);fill:#4A0F00;" cx="140.366" cy="134.96" r="5.147"/>
					</g>
				</g>
			</g>
			<path style="fill:#7D4921;" d="M129.795,129.92c-0.966-0.145-2.762,11.762-1.827,12.564c0.936,0.802,3.074,1.069,3.876,0
				C132.646,141.415,130.686,130.054,129.795,129.92z"/>
			<g>
				<g>
					<path style="fill:#4A0F00;" d="M127.033,150.646c3.639-0.312,7.109-1.231,10.426-2.758c0.624-0.287,0.082-1.209-0.54-0.923
						c-3.146,1.448-6.436,2.316-9.886,2.612C126.353,149.635,126.346,150.705,127.033,150.646L127.033,150.646z"/>
				</g>
			</g>
			<path style="fill:#4A0F00;" d="M102.973,117.088c0,0-3.609,2.899-3.609,6.395s1.804,4.859,1.804,4.859l1.804-3.635
				c0,0,2.142,12.111,6.15,13.541l-1.338-23.281l16.715-4.283c0,0,1.79,8.944,7.611,14.023c5.821,5.079,11.763,4.196,11.897,3.635
				c0.134-0.561-2.301-7.971-2.301-7.971s5.133,10.806,6.925,10.645c1.792-0.161,2.46-8.12,2.46-8.12s-2.406,16.514-1.069,15.979
				c1.337-0.535,7.218-16.574,6.416-21.119c-0.802-4.545-14.643-12.965-26.569-12.965S106.502,111.557,102.973,117.088z"/>
			<path style="fill:#344580;" d="M161.703,105.935c-1.223-3.844-21.515-19.536-31.833-19.61v-0.003
				c-0.012,0-0.025,0.002-0.037,0.002c-0.012,0-0.025-0.002-0.037-0.002v0.003c-10.318,0.074-30.61,15.766-31.833,19.61
				c-1.226,3.853,5.011,11.153,5.011,11.153h26.822h0.075h26.822C156.692,117.088,162.929,109.787,161.703,105.935z"/>
			<path style="fill:#171A2A;" d="M102.973,117.088l53.466,0.668c0,0-17.287-7.441-26.644-7.441S102.973,117.088,102.973,117.088z"
				/>
			<path style="fill:#FFB721;" d="M136.815,94.766c0,0-1.028,0.936-3.113,0.802c-2.085-0.134-3.585-0.802-3.585-0.802
				s-1.5,0.668-3.585,0.802c-2.085,0.134-3.113-0.802-3.113-0.802s-1.352,2.406,0.519,6.282s6.179,6.282,6.179,6.282
				s4.307-2.406,6.179-6.282C138.168,97.172,136.815,94.766,136.815,94.766z"/>
			<rect x="106.846" y="195.151" style="fill:#FFB721;" width="16.326" height="3.394"/>
			<path style="fill:#FFB721;" d="M149.901,192.263c0,0-0.708,0.936-2.143,0.802c-1.435-0.134-2.468-0.802-2.468-0.802
				s-1.033,0.668-2.468,0.802c-1.435,0.134-2.143-0.802-2.143-0.802s-0.931,2.406,0.357,6.282c1.288,3.876,4.254,6.282,4.254,6.282
				s2.965-2.406,4.254-6.282C150.832,194.669,149.901,192.263,149.901,192.263z"/>
			<path style="fill:#BCBEC0;" d="M158.577,237.921c0.267,2.406,7.218,11.495,11.228,11.495
				C171.168,245.058,160.85,237.619,158.577,237.921z"/>
			<path style="fill:#CEA28B;" d="M161.512,238.995l-1.697,1.627l-0.937,0.898l5.012,10.415l3.012-3.64l2.073-2.504
				C167.371,243.174,164.056,240.455,161.512,238.995z"/>
			<g>
				<path style="fill:#CEA28B;" d="M155.689,238.895c2.777-0.103,5.177,1.664,7.21,4.252s2.588,11.647,1.664,13.311
					c-0.924,1.664-13.879,4.437-17.755-2.034C142.933,247.954,150.698,239.08,155.689,238.895z"/>
				<g>
					<defs>
						<path id="SVGID_00000095307512720978847990000001174209961633462187_" d="M155.689,238.895
							c2.777-0.103,5.177,1.664,7.21,4.252s2.588,11.647,1.664,13.311c-0.924,1.664-13.879,4.437-17.755-2.034
							C142.933,247.954,150.698,239.08,155.689,238.895z"/>
					</defs>
					<clipPath id="SVGID_00000106127718967730194870000017943501180421102782_">
						<use xlink:href="#SVGID_00000095307512720978847990000001174209961633462187_"  style="overflow:visible;"/>
					</clipPath>
					<g style="clip-path:url(#SVGID_00000106127718967730194870000017943501180421102782_);">
						<g>
							<path style="fill:#4A0F00;" d="M158.924,246.573c-5.44,3.624-10.88,7.247-16.32,10.871c-0.489,0.326-0.03,1.12,0.463,0.792
								c5.44-3.624,10.88-7.247,16.32-10.871C159.875,247.039,159.417,246.244,158.924,246.573L158.924,246.573z"/>
						</g>
					</g>
					<g style="clip-path:url(#SVGID_00000106127718967730194870000017943501180421102782_);">
						<g>
							<path style="fill:#4A0F00;" d="M156.054,242.713c-5.795,2.999-10.943,6.948-15.341,11.767
								c-0.397,0.435,0.25,1.085,0.648,0.648c4.347-4.763,9.429-8.661,15.156-11.624
								C157.041,243.233,156.578,242.442,156.054,242.713L156.054,242.713z"/>
						</g>
					</g>
					<g style="clip-path:url(#SVGID_00000106127718967730194870000017943501180421102782_);">
						<g>
							<path style="fill:#4A0F00;" d="M161.747,250.575c-5.499,4.697-11.764,8.246-18.617,10.554
								c-0.556,0.187-0.318,1.073,0.244,0.884c7.003-2.358,13.403-5.99,19.022-10.789
								C162.845,250.839,162.194,250.193,161.747,250.575L161.747,250.575z"/>
						</g>
					</g>
				</g>
			</g>
			<g>
				<g>
					<defs>
						<path id="SVGID_00000165192622359666718710000008855234267025613499_" d="M101.374,232.666
							c1.86-1.212,10.686-0.44,12.823,1.234c2.137,1.674-0.777,18.771-3.886,19.549c-3.109,0.777-10.686-0.777-12.24-2.914
							C96.517,248.397,97.488,235.197,101.374,232.666z"/>
					</defs>
					<clipPath id="SVGID_00000183231904975203446080000012803702891791129781_">
						<use xlink:href="#SVGID_00000165192622359666718710000008855234267025613499_"  style="overflow:visible;"/>
					</clipPath>
					<path style="clip-path:url(#SVGID_00000183231904975203446080000012803702891791129781_);fill:#343A5E;" d="M101.374,232.666
						c1.86-1.212,10.686-0.44,12.823,1.234c2.137,1.674-0.777,18.771-3.886,19.549c-3.109,0.777-10.686-0.777-12.24-2.914
						C96.517,248.397,97.488,235.197,101.374,232.666z"/>
					<g style="clip-path:url(#SVGID_00000183231904975203446080000012803702891791129781_);">
						<g>
							<path style="fill:#171A2A;" d="M109.174,236.68c-2.153,6.523-3.267,13.259-3.335,20.126c-0.007,0.685,1.057,0.685,1.064,0
								c0.068-6.774,1.174-13.411,3.298-19.843C110.415,236.311,109.388,236.032,109.174,236.68L109.174,236.68z"/>
						</g>
					</g>
					<g style="clip-path:url(#SVGID_00000183231904975203446080000012803702891791129781_);">
						<g>
							<path style="fill:#171A2A;" d="M99.419,235.203c0.146,2.262,0.91,4.013,3.454,3.706c3.693-0.446,7.674-1.839,10.958-3.56
								c0.606-0.318,0.069-1.236-0.537-0.918c-1.969,1.033-4.028,1.783-6.168,2.371c-2.131,0.585-6.394,2.28-6.644-1.598
								C100.438,234.523,99.375,234.518,99.419,235.203L99.419,235.203z"/>
						</g>
					</g>
					<g style="clip-path:url(#SVGID_00000183231904975203446080000012803702891791129781_);">
						<g>
							<path style="fill:#171A2A;" d="M103.335,236.095c0.684,0,0.685-1.064,0-1.064
								C102.651,235.032,102.65,236.095,103.335,236.095L103.335,236.095z"/>
						</g>
					</g>
				</g>
			</g>
			<g>
				<g>
					<path style="fill:#BCBEC0;" d="M129.298,277.671c-1.403-1.936-2.997-3.696-4.8-5.266c-0.517-0.45-1.276,0.303-0.756,0.756
						c1.733,1.509,3.284,3.189,4.633,5.05C128.774,278.762,129.702,278.229,129.298,277.671L129.298,277.671z"/>
				</g>
			</g>
			<g>
				<g>
					<path style="fill:#BCBEC0;" d="M125.518,276.595c-0.848-0.422-1.697-0.844-2.545-1.266c-0.614-0.306-1.157,0.616-0.54,0.923
						c0.848,0.422,1.697,0.844,2.545,1.266C125.593,277.824,126.135,276.902,125.518,276.595L125.518,276.595z"/>
				</g>
			</g>
			<path style="fill:#435891;" d="M120.325,247.968c0.775-0.93,0.954-12.177,0-12.366c-0.954-0.189-2.861-0.507-3.496,0.129
				c-0.636,0.636-1.112,12.237-0.636,12.237C116.67,247.968,119.531,248.921,120.325,247.968z"/>
			<path style="fill:#435891;" d="M143.528,247.968c0.775-0.93,0.954-12.177,0-12.366c-0.954-0.189-2.861-0.507-3.496,0.129
				c-0.636,0.636-1.112,12.237-0.636,12.237S142.733,248.921,143.528,247.968z"/>
			<path style="fill:#FFB721;" d="M134.191,237.166c-0.764-0.382-9.167-0.783-10.122,0.325c-0.46,0.533-1.719,8.842,0,9.892
				c1.719,1.05,9.644,0.095,10.122,0C134.668,247.287,134.955,237.547,134.191,237.166z M132.179,245.448
				c-0.295,0.059-5.192,0.649-6.254,0c-1.062-0.649-0.284-5.782,0-6.112c0.59-0.684,5.782-0.437,6.254-0.201
				C132.651,239.371,132.474,245.389,132.179,245.448z"/>
			<path style="fill:#171A2A;" d="M81.23,388.695c0,0,2.433-3.023,8.798-3.023c6.365,0,16.818,3.023,16.818,3.023v11.497h-3.889
				l-0.199-2.984c0,0-0.597,3.381-3.779,4.376c-3.182,0.995-20.487,1.392-22.079,0S75.018,394.901,81.23,388.695z"/>
			<path style="fill:#171A2A;" d="M165.797,388.695c0,0-2.433-3.023-8.798-3.023c-6.365,0-16.818,3.023-16.818,3.023v11.497h3.889
				l0.199-2.984c0,0,0.597,3.381,3.779,4.376c3.182,0.995,20.487,1.392,22.079,0S172.009,394.901,165.797,388.695z"/>
			<path style="fill:#CEA28B;" d="M77.965,128.342c0,0,1.122,4.238,5.71,5.81l4.282-4.234c0,0,2.345,0.912,4.894-0.617
				c2.549-1.529,3.389-4.378,4.951-5.098c1.562-0.72,4.736-1.873,4.634-2.364c-0.102-0.491,0.187-1.742-1.028-2.289
				c-1.215-0.547-6.313,1.084-6.313,1.084s4.784-5.652,5.604-6.599c0.82-0.947,7.949-2.884,7.086-4.413
				c-0.863-1.529-5.655-4.384-10.447-4.18c-4.792,0.204-13.051,10.551-15.294,14.35C79.8,123.592,78.985,127.281,77.965,128.342z"/>
			<g>
				<defs>
					<path id="SVGID_00000020377804661593108620000016869248713783222153_" d="M77.965,128.342c0,0,1.122,4.238,5.71,5.81
						l4.282-4.234c0,0,2.345,0.912,4.894-0.617c2.549-1.529,3.389-4.378,4.951-5.098c1.562-0.72,4.736-1.873,4.634-2.364
						c-0.102-0.491,0.187-1.742-1.028-2.289c-1.215-0.547-6.313,1.084-6.313,1.084s4.784-5.652,5.604-6.599
						c0.82-0.947,7.949-2.884,7.086-4.413c-0.863-1.529-5.655-4.384-10.447-4.18c-4.792,0.204-13.051,10.551-15.294,14.35
						C79.8,123.592,78.985,127.281,77.965,128.342z"/>
				</defs>
				<clipPath id="SVGID_00000052808233020641237330000009459225702305280421_">
					<use xlink:href="#SVGID_00000020377804661593108620000016869248713783222153_"  style="overflow:visible;"/>
				</clipPath>
				<g style="clip-path:url(#SVGID_00000052808233020641237330000009459225702305280421_);">
					<g>
						<path style="fill:#4A0F00;" d="M91.11,115.69c0.967-1.239,2.025-2.352,3.186-3.409c0.786-0.715,1.66-1.42,2.004-2.464
							c0.664-2.02-1.019-3.407-2.739-3.993c-0.653-0.223-0.933,0.81-0.284,1.031c1.667,0.569,2.764,1.707,1.452,3.546
							c-0.363,0.508-0.946,0.903-1.406,1.32c-1.089,0.985-2.066,2.057-2.969,3.214C89.936,115.47,90.687,116.232,91.11,115.69
							L91.11,115.69z"/>
					</g>
				</g>
				<g style="clip-path:url(#SVGID_00000052808233020641237330000009459225702305280421_);">
					<g>
						<path style="fill:#4A0F00;" d="M94.983,115.082c1.457-2.082,3.461-3.779,4.866-5.86c1.104-1.636,0.524-3.107-0.544-4.606
							c-0.396-0.556-1.324-0.022-0.923,0.54c0.945,1.327,1.228,2.765,0.063,4.104c-0.502,0.577-1.063,1.105-1.571,1.679
							c-1.013,1.145-1.939,2.353-2.815,3.604C93.664,115.108,94.591,115.643,94.983,115.082L94.983,115.082z"/>
					</g>
				</g>
				<g style="clip-path:url(#SVGID_00000052808233020641237330000009459225702305280421_);">
					<g>
						<path style="fill:#4A0F00;" d="M90.553,116.128c2.35-0.51,4.66-1.152,7.084-0.859c0.682,0.082,0.676-0.988,0-1.069
							c-2.519-0.304-4.926,0.368-7.368,0.897C89.597,115.242,89.881,116.273,90.553,116.128L90.553,116.128z"/>
					</g>
				</g>
				<g style="clip-path:url(#SVGID_00000052808233020641237330000009459225702305280421_);">
					<g>
						<path style="fill:#4A0F00;" d="M89.444,124.578c0.895-0.759,1.862-1.411,2.893-1.971c0.605-0.329,0.066-1.252-0.54-0.923
							c-1.111,0.604-2.145,1.321-3.109,2.139C88.162,124.267,88.922,125.02,89.444,124.578L89.444,124.578z"/>
					</g>
				</g>
				<g style="clip-path:url(#SVGID_00000052808233020641237330000009459225702305280421_);">
					<g>
						<path style="fill:#4A0F00;" d="M97.813,114.896c1.393-2.085,3.443-3.003,5.227-4.639c1.186-1.088,1.835-2.492,1.512-4.094
							c-0.136-0.674-1.167-0.389-1.031,0.284c0.496,2.461-2.14,3.672-3.755,4.86c-1.153,0.848-2.083,1.861-2.876,3.048
							C96.507,114.93,97.432,115.466,97.813,114.896L97.813,114.896z"/>
					</g>
				</g>
			</g>
			<g>
				<g>
					<path style="fill:#BCBEC0;" d="M67.725,164.481c2.613-1.676,4.782-3.864,6.432-6.494c0.367-0.585-0.558-1.122-0.923-0.54
						c-1.553,2.476-3.588,4.533-6.049,6.111C66.608,163.928,67.144,164.854,67.725,164.481L67.725,164.481z"/>
				</g>
			</g>
		</g>
		<g>
			<ellipse style="fill:#BCBEC0;" cx="627.527" cy="402.61" rx="73.77" ry="7.545"/>
			<path style="fill:#4A0F00;" d="M649.134,107.976l-7.97,36.914c0,0,3.739,1.16,10.443-9.746
				C658.312,124.238,653.155,112.143,649.134,107.976z"/>
			<g>
				<path style="fill:#4A0F00;" d="M632.315,147.327l-13.944-3.241c-3.347-0.864-7.064-0.225-9.896,1.758
					c-2.832,1.982-4.713,5.285-4.912,8.735c-0.192,3.307,1.12,6.604,3.246,9.145c4.096,4.896,11.316,6.905,17.353,4.828
					c6.036-2.077,10.492-8.104,10.707-14.484C634.953,151.572,634.305,148.838,632.315,147.327z"/>
			</g>
			<g>
				<path style="fill:#A46C35;" d="M564.565,210.509c-0.4,4.198,32.387,23.791,33.387,23.191c1-0.6,2.275-6.597,2.275-6.597
					l-13.871-20.951l0.67-0.466c-4.217-3.168-8.698-5.982-13.383-8.405C568.483,203.638,564.708,209.003,564.565,210.509z"/>
				<path style="fill:#435891;" d="M674.58,296.589c-10.899-52.477-20.183-57.321-23.662-64.889c0,0-2.292-7.197-2.457-9.996
					c-0.165-2.799,6.363-9.796,7.686-14.394c1.323-4.598,0.876-10.196,0.876-10.196s5.798-24.99-2.599-27.189
					c-8.397-2.199-14.774,2.799-14.774,2.799l-11.463,11.012l-11.463-11.012c0,0-6.377-4.998-14.774-2.799
					c-5.386,1.411-19.074,15.979-28.307,27.355c4.685,2.423,9.166,5.237,13.383,8.405l14.639-8.571c0,0-1.323,6.056,0,10.654
					s6.413,11.137,6.248,13.936c-0.165,2.799-2.457,9.996-2.457,9.996c-3.479,7.568-12.763,12.412-23.662,64.889
					c-10.899,52.477-15.339,88-15.339,88s6.862,4.844,19.376,0c0,0,20.623-56.179,42.356-117.62
					c21.734,61.441,42.356,117.62,42.356,117.62c12.514,4.844,19.376,0,19.376,0S685.479,349.066,674.58,296.589z"/>
				<g>
					<g>
						<path style="fill:#171A2A;" d="M629.318,196.031c0,9.654,0,19.307,0,28.961c0,0.688,1.069,0.689,1.069,0
							c0-9.654,0-19.307,0-28.961C630.387,195.343,629.318,195.342,629.318,196.031L629.318,196.031z"/>
					</g>
				</g>
				<rect x="604.63" y="196.851" style="fill:#FFB721;" width="16.326" height="3.394"/>
			</g>
			<path style="fill:#435891;" d="M671.745,162.384c0,0-26.174,6.092-32.095,10.339l17.373,24.39l19.009-12.166L671.745,162.384z"/>
			<path style="fill:#A46C35;" d="M637.177,173.71c-0.117-0.816-0.529-11.781-0.529-11.781l-6.796-0.816v-0.058l-6.796,0.816
				c0,0-0.412,10.964-0.529,11.781c-0.117,0.816-2.449,5.599-2.449,5.599v7.89l9.774,8.673v0.058l10.076-9.234l-0.302-7.329
				C639.627,179.308,637.294,174.526,637.177,173.71z"/>
			<g>
				<path style="fill:#BCBEC0;" d="M629.852,161.112v-0.058l-6.796,0.816c0,0-0.135,3.605-0.273,6.835
					c4.354,2.272,9.374,3.271,14.263,2.822c-0.165-3.428-0.397-9.599-0.397-9.599L629.852,161.112z"/>
			</g>
			<g>
				<defs>
					<path id="SVGID_00000021840185807049864740000001452901457005243045_" d="M612.082,140.925
						c-0.74-1.514-1.497-3.055-2.658-4.276c-1.161-1.221-2.812-2.096-4.488-1.915c-1.488,0.161-2.811,1.147-3.601,2.418
						c-0.79,1.271-1.094,2.797-1.107,4.294c-0.028,3.135,1.284,6.36,3.809,8.218c2.525,1.858,6.287,2.067,8.757,0.136
						L612.082,140.925z"/>
				</defs>
				<clipPath id="SVGID_00000148632677444664469220000013061400175523760267_">
					<use xlink:href="#SVGID_00000021840185807049864740000001452901457005243045_"  style="overflow:visible;"/>
				</clipPath>
				<g style="clip-path:url(#SVGID_00000148632677444664469220000013061400175523760267_);">
					<path style="fill:#A46C35;" d="M612.082,140.925c-0.74-1.514-1.497-3.055-2.658-4.276c-1.161-1.221-2.812-2.096-4.488-1.915
						c-1.488,0.161-2.811,1.147-3.601,2.418c-0.79,1.271-1.094,2.797-1.107,4.294c-0.028,3.135,1.284,6.36,3.809,8.218
						c2.525,1.858,6.287,2.067,8.757,0.136L612.082,140.925z"/>
				</g>
				<g style="clip-path:url(#SVGID_00000148632677444664469220000013061400175523760267_);">
					<g>
						<path style="fill:#4A0F00;" d="M602.186,141.317c2.895-1.48,5.855,0.343,7.272,2.952c1.127,2.076,1.469,4.431,1.806,6.737
							c0.099,0.678,1.13,0.39,1.031-0.284c-0.471-3.22-1.049-6.701-3.481-9.083c-1.95-1.91-4.714-2.499-7.168-1.245
							C601.033,140.707,601.574,141.63,602.186,141.317L602.186,141.317z"/>
					</g>
				</g>
				<g style="clip-path:url(#SVGID_00000148632677444664469220000013061400175523760267_);">
					<g>
						<path style="fill:#4A0F00;" d="M609.345,142.609c-1.805,0.068-2.637,1.713-3.032,3.258c-0.17,0.667,0.861,0.952,1.031,0.284
							c0.262-1.027,0.729-2.425,2.001-2.473C610.031,143.652,610.034,142.583,609.345,142.609L609.345,142.609z"/>
					</g>
				</g>
			</g>
			<g>
				<defs>
					<path id="SVGID_00000139266018271412836650000009556907056821720751_" d="M645.53,140.925c0.74-1.514,1.497-3.055,2.658-4.276
						c1.161-1.221,2.812-2.096,4.488-1.915c1.488,0.161,2.811,1.147,3.601,2.418c0.79,1.271,1.094,2.797,1.107,4.294
						c0.028,3.135-1.284,6.36-3.809,8.218c-2.525,1.858-6.287,2.067-8.757,0.136L645.53,140.925z"/>
				</defs>
				<clipPath id="SVGID_00000050622387864760567320000001890051602815357596_">
					<use xlink:href="#SVGID_00000139266018271412836650000009556907056821720751_"  style="overflow:visible;"/>
				</clipPath>
				<g style="clip-path:url(#SVGID_00000050622387864760567320000001890051602815357596_);">
					<path style="fill:#A46C35;" d="M645.53,140.925c0.74-1.514,1.497-3.055,2.658-4.276c1.161-1.221,2.812-2.096,4.488-1.915
						c1.488,0.161,2.811,1.147,3.601,2.418c0.79,1.271,1.094,2.797,1.107,4.294c0.028,3.135-1.284,6.36-3.809,8.218
						c-2.525,1.858-6.287,2.067-8.757,0.136L645.53,140.925z"/>
				</g>
				<g style="clip-path:url(#SVGID_00000050622387864760567320000001890051602815357596_);">
					<g>
						<path style="fill:#4A0F00;" d="M655.966,140.393c-2.454-1.255-5.218-0.666-7.168,1.245c-2.431,2.381-3.01,5.863-3.481,9.083
							c-0.099,0.673,0.932,0.964,1.031,0.284c0.615-4.205,2.922-12.835,9.078-9.688C656.038,141.629,656.58,140.707,655.966,140.393
							L655.966,140.393z"/>
					</g>
				</g>
				<g style="clip-path:url(#SVGID_00000050622387864760567320000001890051602815357596_);">
					<g>
						<path style="fill:#4A0F00;" d="M648.267,143.678c1.272,0.048,1.739,1.446,2.001,2.473c0.17,0.666,1.202,0.384,1.031-0.284
							c-0.395-1.545-1.227-3.19-3.032-3.258C647.579,142.583,647.58,143.652,648.267,143.678L648.267,143.678z"/>
					</g>
				</g>
			</g>
			<path style="fill:#A46C35;" d="M628.847,109.708c-9.53,0-20.934,9.603-20.934,9.603s2.444,35.644,5.05,39.386
				c1.17,1.68,4.489,3.108,7.793,4.173c5.29,1.704,10.892,1.704,16.182,0c3.304-1.064,6.623-2.493,7.793-4.173
				c2.607-3.743,5.05-39.386,5.05-39.386S638.377,109.708,628.847,109.708z"/>
			<g>
				<g>
					
						<ellipse transform="matrix(0.6333 -0.7739 0.7739 0.6333 119.8415 528.6703)" style="fill:#4A0F00;" cx="617.798" cy="137.873" rx="5.102" ry="7.085"/>
					<g>
						<defs>
							
								<ellipse id="SVGID_00000107586125872854744050000011771504358302668167_" transform="matrix(0.6333 -0.7739 0.7739 0.6333 119.1526 528.9967)" cx="617.798" cy="138.763" rx="5.102" ry="7.085"/>
						</defs>
						<clipPath id="SVGID_00000078036019254479510270000004684769849793444736_">
							<use xlink:href="#SVGID_00000107586125872854744050000011771504358302668167_"  style="overflow:visible;"/>
						</clipPath>
						
							<ellipse transform="matrix(0.6333 -0.7739 0.7739 0.6333 119.1526 528.9967)" style="clip-path:url(#SVGID_00000078036019254479510270000004684769849793444736_);fill:#EFEFEF;" cx="617.798" cy="138.763" rx="5.102" ry="7.085"/>
						
							<circle style="clip-path:url(#SVGID_00000078036019254479510270000004684769849793444736_);fill:#4A0F00;" cx="618.526" cy="138.763" r="5.182"/>
					</g>
				</g>
			</g>
			<g>
				<g>
					
						<ellipse transform="matrix(0.7739 -0.6333 0.6333 0.7739 57.053 436.3816)" style="fill:#4A0F00;" cx="639.68" cy="138.288" rx="7.085" ry="5.102"/>
					<g>
						<defs>
							
								<ellipse id="SVGID_00000036241624985515076730000006942194639141475204_" transform="matrix(0.7739 -0.6333 0.6333 0.7739 56.4893 436.5829)" cx="639.68" cy="139.178" rx="7.085" ry="5.102"/>
						</defs>
						<clipPath id="SVGID_00000117645629381311438660000017762129245244828812_">
							<use xlink:href="#SVGID_00000036241624985515076730000006942194639141475204_"  style="overflow:visible;"/>
						</clipPath>
						
							<ellipse transform="matrix(0.7739 -0.6333 0.6333 0.7739 56.4893 436.5829)" style="clip-path:url(#SVGID_00000117645629381311438660000017762129245244828812_);fill:#EFEFEF;" cx="639.68" cy="139.178" rx="7.085" ry="5.102"/>
						
							<circle style="clip-path:url(#SVGID_00000117645629381311438660000017762129245244828812_);fill:#4A0F00;" cx="638.951" cy="139.178" r="5.182"/>
					</g>
				</g>
			</g>
			<path style="fill:#4A0F00;" d="M646.352,126.585c0,0-1.708-4.786-6.514-3.958c-4.806,0.828-7.66,5.89-7.66,5.89
				s3.497-0.736,5.43-2.577S640.001,121.339,646.352,126.585z"/>
			<path style="fill:#4A0F00;" d="M609.572,127.806c0,0,1.106-4.96,5.978-4.729c4.872,0.231,8.326,4.903,8.326,4.903
				s-3.561-0.3-5.706-1.889C616.025,124.502,615.229,121.818,609.572,127.806z"/>
			<path style="fill:#7D4921;" d="M629.397,135.145c1.323,0.029,1.203,6.952,1.203,6.952s3.55,2.684,0.002,3.936
				S626.475,135.08,629.397,135.145z"/>
			<g>
				<g>
					<path style="fill:#4A0F00;" d="M622.786,151.826c4.041,1.776,8.332,1.76,12.359-0.055c0.626-0.282,0.083-1.204-0.54-0.923
						c-3.639,1.64-7.622,1.662-11.28,0.055C622.702,150.628,622.157,151.549,622.786,151.826L622.786,151.826z"/>
				</g>
			</g>
			<path style="fill:#4A0F00;" d="M651.689,124.497c2.516-2.839-1.562-13.964-2.555-16.521
				c-11.601-10.697-33.145-7.081-40.227,6.478c-7.081,13.56,0.664,27.484,0.664,27.484s0-5.959,0.692-13.422
				c2.676-4.975,14.789-11.803,17.263-14.665c0,0,1.353,13.75,10.76,21.292c0,0,1.473-4.339-1.771-14.981
				c2.058,5.415,6.009,14.043,11.609,18.506C647.702,138.314,652.397,132.969,651.689,124.497z"/>
			<path style="fill:#4F65B3;" d="M622.819,167.852c-0.648,0.117-11.125,3.225-12.967,4.952c-1.151,1.842,4.605,5.181,4.605,5.181
				l-0.921,6.332l16.316,11.495c0,0-9.612-15.722-9.395-17.35c0,0,1.983-3.51,2.07-4.811
				C622.615,172.349,622.819,167.852,622.819,167.852z"/>
			<path style="fill:#4F65B3;" d="M636.886,167.852c0.648,0.117,11.125,3.225,12.967,4.952c1.151,1.842-4.605,5.181-4.605,5.181
				l0.921,6.332l-16.316,11.495c0,0,9.612-15.722,9.395-17.35c0,0-1.983-3.51-2.07-4.811
				C637.09,172.349,636.886,167.852,636.886,167.852z"/>
			<path style="fill:#171A2A;" d="M649.329,221.626c-5.529,1.792-15.588,3.983-20.377,3.784c-4.789,0.199-14.848-1.992-20.377-3.784
				c0,0-3.614,2.804-3.121,10.074c7.174,4.099,23.498,5.261,23.498,5.261s16.324-1.162,23.498-5.261
				C652.944,224.429,649.329,221.626,649.329,221.626z"/>
			<path style="fill:#435891;" d="M617.171,238.807c1.006-1.208,1.238-15.816,0-16.062c-1.239-0.245-3.716-0.658-4.541,0.168
				c-0.826,0.826-1.445,15.894-0.826,15.894S616.139,240.045,617.171,238.807z"/>
			<path style="fill:#435891;" d="M647.308,238.807c1.006-1.208,1.239-15.816,0-16.062c-1.238-0.245-3.715-0.658-4.541,0.168
				c-0.826,0.826-1.445,15.894-0.826,15.894C642.56,238.807,646.276,240.045,647.308,238.807z"/>
			<path style="fill:#FFB721;" d="M635.181,224.776c-0.992-0.496-11.907-1.017-13.147,0.422c-0.597,0.693-2.232,11.485,0,12.849
				c2.232,1.364,12.527,0.124,13.147,0C635.801,237.923,636.173,225.272,635.181,224.776z M632.568,235.534
				c-0.383,0.077-6.743,0.843-8.123,0c-1.379-0.843-0.369-7.511,0-7.939c0.766-0.889,7.51-0.567,8.123-0.261
				C633.181,227.641,632.951,235.457,632.568,235.534z"/>
			<g>
				<defs>
					<path id="SVGID_00000144298981762327765350000015499037041166796956_" d="M689.919,125.524
						c-0.925-3.304,1.116-12.011-2.712-20.433s-14.549-9.763-16.08-7.657c-1.531,2.106,1.723,4.786,3.438,6.317
						c1.715,1.531,1.467,9.571,1.467,9.571s-2.416-4.786-3.182-5.36c-0.766-0.574-2.297-1.149-4.02,0
						c-1.723,1.149,1.914,4.977,2.106,6.194c0.191,1.217,0.383,7.972,2.297,10.077c1.914,2.106,7.274,3.746,7.274,3.746
						s0.574,29.754,0,30.902c-0.574,1.149-6.509,2.871-8.762,3.502l3.695,19.448c0,0,21.53-15.676,21.913-17.685
						C697.736,162.138,690.844,128.828,689.919,125.524z"/>
				</defs>
				<clipPath id="SVGID_00000062891899450620668640000015403762988531943870_">
					<use xlink:href="#SVGID_00000144298981762327765350000015499037041166796956_"  style="overflow:visible;"/>
				</clipPath>
				<path style="clip-path:url(#SVGID_00000062891899450620668640000015403762988531943870_);fill:#A46C35;" d="M689.919,125.524
					c-0.925-3.304,1.116-12.011-2.712-20.433s-14.549-9.763-16.08-7.657c-1.531,2.106,1.723,4.786,3.438,6.317
					c1.715,1.531,1.467,9.571,1.467,9.571s-2.416-4.786-3.182-5.36c-0.766-0.574-2.297-1.149-4.02,0
					c-1.723,1.149,1.914,4.977,2.106,6.194c0.191,1.217,0.383,7.972,2.297,10.077c1.914,2.106,7.274,3.746,7.274,3.746
					s0.574,29.754,0,30.902c-0.574,1.149-6.509,2.871-8.762,3.502l3.695,19.448c0,0,21.53-15.676,21.913-17.685
					C697.736,162.138,690.844,128.828,689.919,125.524z"/>
				<g style="clip-path:url(#SVGID_00000062891899450620668640000015403762988531943870_);">
					<g>
						<path style="fill:#4A0F00;" d="M678.255,110.172c2.151-0.022,4.078,0.819,5.994,1.707c0.62,0.288,1.164-0.634,0.54-0.923
							c-2.086-0.967-4.194-1.878-6.533-1.853C677.568,109.11,677.566,110.179,678.255,110.172L678.255,110.172z"/>
					</g>
				</g>
				<g style="clip-path:url(#SVGID_00000062891899450620668640000015403762988531943870_);">
					<g>
						<path style="fill:#4A0F00;" d="M684.285,110.672c0.186-1.739,0-3.145-0.795-4.705c-1.529-3.001-2.577-6.056,0.863-8.275
							c0.576-0.372,0.041-1.298-0.54-0.923c-1.729,1.115-2.882,2.814-2.966,4.916c-0.041,1.041,0.212,1.927,0.636,2.874
							c0.978,2.187,1.998,3.627,1.732,6.113C683.142,111.356,684.212,111.351,684.285,110.672L684.285,110.672z"/>
					</g>
				</g>
				<g style="clip-path:url(#SVGID_00000062891899450620668640000015403762988531943870_);">
					<g>
						<path style="fill:#4A0F00;" d="M681.875,109.701c-0.497-5.07-5.04-9.34-2.665-14.616c0.28-0.622-0.641-1.167-0.923-0.54
							c-0.898,1.994-0.973,4.281-0.615,6.434c0.179,1.077,0.555,1.93,1.107,2.874c1.145,1.958,1.802,3.545,2.027,5.848
							C680.872,110.379,681.942,110.386,681.875,109.701L681.875,109.701z"/>
					</g>
				</g>
				<g style="clip-path:url(#SVGID_00000062891899450620668640000015403762988531943870_);">
					<g>
						<path style="fill:#4A0F00;" d="M679.057,109.004c-0.035-2.171-0.845-3.799-2.025-5.593c-0.831-1.263-1.886-2.532-2.311-4.01
							c-0.654-2.278,0.194-3.892,1.258-5.743c0.343-0.598-0.58-1.137-0.923-0.54c-1.108,1.928-2.015,3.805-1.487,6.066
							c0.847,3.628,4.356,5.897,4.418,9.82C677.999,109.692,679.068,109.694,679.057,109.004L679.057,109.004z"/>
					</g>
				</g>
			</g>
			<path style="fill:#FFB721;" d="M650.591,193.586c0,0-0.886,0.936-2.682,0.802s-3.09-0.802-3.09-0.802s-1.293,0.668-3.09,0.802
				c-1.797,0.134-2.683-0.802-2.683-0.802s-1.166,2.406,0.447,6.282c1.613,3.876,5.325,6.282,5.325,6.282s3.712-2.406,5.325-6.282
				C651.757,195.992,650.591,193.586,650.591,193.586z"/>
			<g>
				<path style="fill:#A46C35;" d="M602.903,224.062c-2.696-0.677-5.409,0.553-7.936,2.663s-4.949,10.856-4.39,12.676
					c0.559,1.82,12.656,7.221,17.79,1.695S607.747,225.279,602.903,224.062z"/>
				<g>
					<defs>
						<path id="SVGID_00000091715367024439493720000012502737465535568034_" d="M602.903,224.062
							c-2.696-0.677-5.409,0.553-7.936,2.663s-4.949,10.856-4.39,12.676c0.559,1.82,12.656,7.221,17.79,1.695
							S607.747,225.279,602.903,224.062z"/>
					</defs>
					<clipPath id="SVGID_00000089543452500781491530000004295554491834358935_">
						<use xlink:href="#SVGID_00000091715367024439493720000012502737465535568034_"  style="overflow:visible;"/>
					</clipPath>
					<g style="clip-path:url(#SVGID_00000089543452500781491530000004295554491834358935_);">
						<g>
							<path style="fill:#4A0F00;" d="M597.513,231.565c4.569,4.674,9.139,9.348,13.708,14.021c0.413,0.423,1.061-0.226,0.648-0.648
								c-4.569-4.674-9.139-9.348-13.708-14.021C597.748,230.494,597.1,231.143,597.513,231.565L597.513,231.565z"/>
						</g>
					</g>
					<g style="clip-path:url(#SVGID_00000089543452500781491530000004295554491834358935_);">
						<g>
							<path style="fill:#4A0F00;" d="M601.121,228.385c4.988,4.088,9.153,8.949,12.418,14.513c0.298,0.509,1.091,0.048,0.792-0.463
								c-3.302-5.626-7.514-10.562-12.561-14.698C601.317,227.366,600.664,228.011,601.121,228.385L601.121,228.385z"/>
						</g>
					</g>
					<g style="clip-path:url(#SVGID_00000089543452500781491530000004295554491834358935_);">
						<g>
							<path style="fill:#4A0F00;" d="M593.772,234.712c4.503,5.864,9.995,10.747,16.36,14.509c0.509,0.301,0.971-0.491,0.463-0.792
								c-6.221-3.677-11.629-8.448-16.031-14.18C594.21,233.788,593.413,234.244,593.772,234.712L593.772,234.712z"/>
						</g>
					</g>
				</g>
			</g>
			<g>
				<g>
					<path style="fill:#171A2A;" d="M624.583,202.367c0.688,0,0.689-1.069,0-1.069C623.895,201.298,623.894,202.367,624.583,202.367
						L624.583,202.367z"/>
				</g>
			</g>
			<g>
				<g>
					<path style="fill:#171A2A;" d="M624.767,210.642c0.688,0,0.689-1.069,0-1.069C624.079,209.572,624.078,210.642,624.767,210.642
						L624.767,210.642z"/>
				</g>
			</g>
			<g>
				<g>
					<path style="fill:#171A2A;" d="M624.767,219.284c0.688,0,0.689-1.069,0-1.069C624.079,218.215,624.078,219.284,624.767,219.284
						L624.767,219.284z"/>
				</g>
			</g>
			<g>
				<g>
					<path style="fill:#BCBEC0;" d="M641.854,244.47c2.329,4.828,6.778,8.174,12.066,9.061c0.673,0.113,0.963-0.917,0.284-1.031
						c-5.043-0.846-9.206-3.964-11.427-8.569C642.478,243.311,641.556,243.852,641.854,244.47L641.854,244.47z"/>
				</g>
			</g>
			<g>
				<g>
					<path style="fill:#BCBEC0;" d="M615.112,243.93c-2.222,4.607-6.385,7.724-11.427,8.569c-0.677,0.114-0.39,1.144,0.284,1.031
						c5.288-0.887,9.737-4.233,12.066-9.061C616.333,243.853,615.411,243.31,615.112,243.93L615.112,243.93z"/>
				</g>
			</g>
			
				<ellipse transform="matrix(0.8735 -0.4868 0.4868 0.8735 -36.2408 346.2288)" style="fill:none;stroke:#AFAFAF;stroke-width:2.5039;stroke-miterlimit:10;" cx="648.152" cy="242.855" rx="6.046" ry="9.924"/>
			
				<ellipse transform="matrix(0.8384 -0.545 0.545 0.8384 -22.564 397.8109)" style="fill:none;stroke:#AFAFAF;stroke-width:2.5039;stroke-miterlimit:10;" cx="659.654" cy="236.961" rx="6.046" ry="9.924"/>
			<g>
				<g>
					<defs>
						<path id="SVGID_00000040553338382482180460000005338929489023399314_" d="M654.778,220.692
							c-1.86-1.212-10.686-0.44-12.823,1.234s0.777,18.771,3.886,19.549c3.109,0.777,10.686-0.777,12.24-2.914
							S658.664,223.224,654.778,220.692z"/>
					</defs>
					<clipPath id="SVGID_00000148643080478855752630000014663422379755191230_">
						<use xlink:href="#SVGID_00000040553338382482180460000005338929489023399314_"  style="overflow:visible;"/>
					</clipPath>
					<path style="clip-path:url(#SVGID_00000148643080478855752630000014663422379755191230_);fill:#343A5E;" d="M654.778,220.692
						c-1.86-1.212-10.686-0.44-12.823,1.234s0.777,18.771,3.886,19.549c3.109,0.777,10.686-0.777,12.24-2.914
						S658.664,223.224,654.778,220.692z"/>
					<g style="clip-path:url(#SVGID_00000148643080478855752630000014663422379755191230_);">
						<g>
							<path style="fill:#171A2A;" d="M645.952,224.989c2.123,6.432,3.229,13.069,3.297,19.843c0.007,0.684,1.07,0.686,1.064,0
								c-0.069-6.868-1.182-13.603-3.336-20.126C646.764,224.059,645.737,224.337,645.952,224.989L645.952,224.989z"/>
						</g>
					</g>
					<g style="clip-path:url(#SVGID_00000148643080478855752630000014663422379755191230_);">
						<g>
							<path style="fill:#171A2A;" d="M655.67,223.229c-0.249,3.86-4.529,2.183-6.644,1.598c-2.138-0.591-4.2-1.339-6.168-2.371
								c-0.606-0.318-1.144,0.6-0.537,0.918c3.291,1.726,7.261,3.114,10.958,3.56c2.535,0.306,3.308-1.436,3.454-3.706
								C656.777,222.546,655.714,222.548,655.67,223.229L655.67,223.229z"/>
						</g>
					</g>
					<g style="clip-path:url(#SVGID_00000148643080478855752630000014663422379755191230_);">
						<g>
							<path style="fill:#171A2A;" d="M652.817,224.121c0.684,0,0.685-1.064,0-1.064
								C652.132,223.058,652.131,224.121,652.817,224.121L652.817,224.121z"/>
						</g>
					</g>
				</g>
			</g>
			<g>
				<g>
					<path style="fill:#AFAFAF;" d="M652.461,250.815c1.302,0.928,2.604,1.856,3.905,2.784c0.561,0.4,1.096-0.527,0.54-0.923
						c-1.302-0.928-2.604-1.856-3.905-2.784C652.439,249.492,651.905,250.419,652.461,250.815L652.461,250.815z"/>
				</g>
			</g>
			<g>
				<g>
					<path style="fill:#AFAFAF;" d="M659.784,252.61c-1.012-1.114-3.023-2.255-3.984-0.397c-0.75,1.452,0.36,3.089,1.772,3.561
						c1.097,0.366,3.888,0.279,3.783-1.447c-0.049-0.806-0.844-1.573-1.437-2.033c-0.681-0.528-1.399-0.754-2.245-0.588
						c-0.675,0.133-0.389,1.164,0.284,1.031c0.711-0.14,1.913,0.59,2.175,1.313c0.376,1.038-1.62,0.881-2.122,0.735
						c-0.733-0.213-1.547-0.937-1.364-1.801c0.331-1.561,1.889-0.16,2.381,0.381C659.491,253.877,660.246,253.119,659.784,252.61
						L659.784,252.61z"/>
				</g>
			</g>
			<g>
				<g>
					<path style="fill:#AFAFAF;" d="M659.331,254.583c1.182-0.365,2.364-0.73,3.545-1.094c0.656-0.202,0.376-1.235-0.284-1.031
						c-1.182,0.365-2.364,0.73-3.545,1.094C658.391,253.754,658.671,254.787,659.331,254.583L659.331,254.583z"/>
				</g>
			</g>
			<g>
				<g>
					<path style="fill:#AFAFAF;" d="M662.958,249.712c-1.121,0.698-1.999,1.989-1.841,3.361c0.175,1.525,1.664,1.817,2.896,1.309
						c1.254-0.516,2.138-1.632,1.729-3.032c-0.436-1.489-1.95-2.114-3.389-2.095c-0.688,0.009-0.69,1.078,0,1.069
						c0.805-0.01,1.709,0.173,2.177,0.904c0.538,0.84,0.128,1.645-0.694,2.065c-0.307,0.157-0.872,0.411-1.224,0.262
						c-0.541-0.229-0.485-0.825-0.374-1.271c0.176-0.708,0.653-1.271,1.261-1.65C664.081,250.272,663.544,249.347,662.958,249.712
						L662.958,249.712z"/>
				</g>
			</g>
			<g>
				<g>
					<path style="fill:#AFAFAF;" d="M664.646,251.21c0.135-0.755,0.271-1.511,0.407-2.266c0.121-0.673-0.91-0.962-1.031-0.284
						c-0.135,0.755-0.271,1.511-0.407,2.266C663.494,251.599,664.525,251.888,664.646,251.21L664.646,251.21z"/>
				</g>
			</g>
			<g>
				<g>
					<path style="fill:#AFAFAF;" d="M663.768,244.283c-1.095,1.146-1.891,2.717-1.254,4.301c0.498,1.239,1.97,1.984,3.226,1.378
						c2.834-1.367,0.349-7.365-2.651-5.92c-0.62,0.299-0.078,1.221,0.54,0.923c1.786-0.861,3.51,4.283,1.066,4.126
						c-0.892-0.057-1.357-0.927-1.344-1.741c0.015-0.912,0.568-1.68,1.172-2.312C665,244.541,664.245,243.784,663.768,244.283
						L663.768,244.283z"/>
				</g>
			</g>
			<path style="fill:#171A2A;" d="M585.83,384.588h-19.376c0,0-7.924,15.726-5.449,19.597c2.475,3.871,13.612,4.696,19.387,1.19
				l2.475-8.456v7.267l3.3-1.575C586.167,402.61,589,388.758,585.83,384.588z"/>
			<path style="fill:#171A2A;" d="M670.54,384.588h19.376c0,0,7.924,15.726,5.449,19.597c-2.475,3.871-13.612,4.696-19.387,1.19
				l-2.475-8.456v7.267l-3.3-1.575C670.203,402.61,667.371,388.758,670.54,384.588z"/>
		</g>
		<g>
			<ellipse style="fill:#BCBEC0;" cx="453.877" cy="400.448" rx="78.287" ry="8.007"/>
			<polygon style="fill:#ECC19C;" points="462.354,161.641 444.504,164.43 441.899,173.357 451.607,186.188 456.801,187.572 
				466.26,174.397 			"/>
			<g>
				<path style="fill:#BCBEC0;" d="M442.704,170.598c1.665,1.214,3.444,2.227,5.417,2.817c5.633,1.686,11.546-0.349,16.927-2.974
					l-2.695-8.801l-17.849,2.79L442.704,170.598z"/>
			</g>
			<path style="fill:#435891;" d="M487.795,263.789l-3.56-7.75h-30.882v0.101h-30.822l-3.56,7.75c0,0-14.834,120.153-15.724,122.526
				c5.34-1.187,8.307,2.411,14.537,4.617c3.491,1.236,7.075,0.325,9.552-0.715c0.205-2.195,0.425-4.488,0.832-5.979
				c0.876-3.213,24.502-97.314,25.228-100.206c1.076,4.285,24.333,96.917,25.203,100.105c0.406,1.49,0.627,3.784,0.832,5.979
				c2.477,1.04,6.06,1.952,9.552,0.715c6.23-2.206,9.197-5.804,14.537-4.617C502.629,383.941,487.795,263.789,487.795,263.789z"/>
			<polygon style="fill:#171A2A;" points="424,248.853 424,259.537 453.424,262.062 453.424,250.146 			"/>
			<path style="fill:#435891;" d="M441.051,263.486c1.068-1.282,1.314-16.785,0-17.045c-1.314-0.26-3.943-0.698-4.819,0.178
				c-0.876,0.876-1.533,16.867-0.876,16.867S439.956,264.801,441.051,263.486z"/>
			<path style="fill:#171A2A;" d="M417.784,391.384c-6.23-2.206-9.197-5.804-14.537-4.617c-0.89,2.373-6.823,6.23-8.307,10.68
				c-1.483,4.45,1.78,9.951,8.307,9.951c6.527,0,12.46-5.501,14.834-6.391c2.373-0.89,7.417-2.967,8.307-4.45
				c0.484-0.806,0.705-3.277,0.948-5.888C424.859,391.709,421.275,392.62,417.784,391.384z"/>
			<polygon style="fill:#171A2A;" points="482.858,248.853 482.858,259.537 453.434,262.062 453.434,250.146 			"/>
			<path style="fill:#435891;" d="M465.807,263.486c-1.068-1.282-1.314-16.785,0-17.045c1.314-0.26,3.943-0.698,4.819,0.178
				c0.876,0.876,1.533,16.867,0.876,16.867S466.902,264.801,465.807,263.486z"/>
			<path style="fill:#FFB721;" d="M460.163,248.596c-1.053-0.526-12.636-1.079-13.952,0.448c-0.634,0.735-2.369,12.188,0,13.636
				c2.369,1.448,13.294,0.132,13.952,0C460.821,262.548,461.216,249.123,460.163,248.596z M457.39,260.013
				c-0.407,0.081-7.156,0.895-8.62,0c-1.464-0.895-0.392-7.971,0-8.425c0.813-0.943,7.969-0.602,8.62-0.277
				C458.041,251.637,457.797,259.932,457.39,260.013z"/>
			<polygon style="fill:#A4B4ED;" points="486.774,243.802 453.403,247.007 420.033,243.802 415.97,253.98 452.24,256.49 
				453.403,252.791 454.567,256.49 490.837,253.98 			"/>
			<path style="fill:#171A2A;" d="M489.074,390.932c6.23-2.206,9.197-5.804,14.537-4.617c0.89,2.373,6.823,6.23,8.307,10.68
				s-1.78,9.951-8.307,9.951c-6.527,0-12.46-5.501-14.834-6.391c-2.373-0.89-7.417-2.967-8.307-4.45
				c-0.484-0.806-0.705-3.277-0.948-5.888C481.999,391.257,485.582,392.168,489.074,390.932z"/>
			<g>
				<g>
					<defs>
						<path id="SVGID_00000041270110850259528790000014209236911345957011_" d="M492.783,246.725
							c-1.974-1.286-11.34-0.467-13.608,1.31c-2.268,1.777,0.825,19.921,4.124,20.745c3.299,0.825,11.34-0.825,12.989-3.093
							C497.937,263.42,496.906,249.412,492.783,246.725z"/>
					</defs>
					<clipPath id="SVGID_00000030480272338004784290000010838260636554076090_">
						<use xlink:href="#SVGID_00000041270110850259528790000014209236911345957011_"  style="overflow:visible;"/>
					</clipPath>
					<path style="clip-path:url(#SVGID_00000030480272338004784290000010838260636554076090_);fill:#343A5E;" d="M492.783,246.725
						c-1.974-1.286-11.34-0.467-13.608,1.31c-2.268,1.777,0.825,19.921,4.124,20.745c3.299,0.825,11.34-0.825,12.989-3.093
						C497.937,263.42,496.906,249.412,492.783,246.725z"/>
					<g style="clip-path:url(#SVGID_00000030480272338004784290000010838260636554076090_);">
						<g>
							<path style="fill:#171A2A;" d="M483.416,251.285c2.255,6.824,3.43,13.87,3.499,21.058c0.007,0.726,1.136,0.728,1.129,0
								c-0.071-7.285-1.253-14.44-3.54-21.358C484.278,250.299,483.188,250.593,483.416,251.285L483.416,251.285z"/>
						</g>
					</g>
					<g style="clip-path:url(#SVGID_00000030480272338004784290000010838260636554076090_);">
						<g>
							<path style="fill:#171A2A;" d="M493.729,249.418c-0.264,4.097-4.807,2.316-7.051,1.696c-2.269-0.627-4.457-1.421-6.546-2.516
								c-0.643-0.337-1.214,0.637-0.57,0.975c3.493,1.831,7.706,3.305,11.629,3.778c2.69,0.325,3.511-1.524,3.666-3.933
								C494.905,248.692,493.776,248.695,493.729,249.418L493.729,249.418z"/>
						</g>
					</g>
					<g style="clip-path:url(#SVGID_00000030480272338004784290000010838260636554076090_);">
						<g>
							<path style="fill:#171A2A;" d="M490.701,250.364c0.726,0,0.727-1.129,0-1.129
								C489.975,249.236,489.974,250.364,490.701,250.364L490.701,250.364z"/>
						</g>
					</g>
				</g>
			</g>
			<polygon style="fill:#A4B4ED;" points="445.303,180.449 434.697,174.397 432.192,189.022 438.243,198.603 450.687,200.747 
				451.607,187.572 			"/>
			<polygon style="fill:#A4B4ED;" points="461.554,180.449 472.161,174.397 474.666,189.022 468.615,198.603 456.17,200.747 
				455.251,187.572 			"/>
			<polygon style="fill:#435891;" points="455.997,191.291 453.424,191.291 450.851,191.291 447.951,199.612 453.424,200.747 
				458.897,199.612 			"/>
			<path style="fill:#A4B4ED;" d="M419.142,172.861c-7.278,4.852-19.813,32.954-19.813,32.954l25.271,4.555l5.863-38.519
				C429.857,171.446,426.42,168.009,419.142,172.861z"/>
			<g>
				<path style="fill:#171A2A;" d="M438.566,170.508c-9.096-3.127-10.315,0-10.315,0c-8.827,11.769-16.346,73.557-9.808,78.787
					c6.538,5.231,34.98,0,34.98,0v-52.707C428.958,193.373,438.287,171.256,438.566,170.508z"/>
				<path style="fill:#A4B4ED;" d="M487.716,172.861c7.278,4.852,19.813,32.954,19.813,32.954l-25.271,4.555l-5.863-38.519
					C477.001,171.446,480.437,168.009,487.716,172.861z"/>
				<path style="fill:#171A2A;" d="M478.607,170.508c0,0-1.219-3.127-10.315,0c0.28,0.748,9.608,22.865-14.857,26.08v52.707
					c0,0,28.442,5.231,34.98,0C494.953,244.065,487.433,182.277,478.607,170.508z"/>
				<path style="fill:#FFB721;" d="M476.293,198.168c0,0-0.886,0.936-2.682,0.802c-1.797-0.134-3.09-0.802-3.09-0.802
					s-1.293,0.668-3.09,0.802s-2.683-0.802-2.683-0.802s-1.166,2.406,0.447,6.282c1.613,3.876,5.325,6.282,5.325,6.282
					s3.712-2.406,5.325-6.282C477.459,200.574,476.293,198.168,476.293,198.168z"/>
			</g>
			<g>
				<polygon style="fill:#435891;" points="446.69,187.13 450.851,191.291 453.424,191.291 453.424,183.979 450.346,183.979 				"/>
				<polygon style="fill:#435891;" points="456.511,183.979 453.434,183.979 453.434,191.291 456.007,191.291 460.168,187.13 				
					"/>
			</g>
			<path style="fill:#C4D2FF;" d="M435.631,171.876c0.899-1.387,5.816-3.404,5.816-3.404l11.977,14.625c0,0-8.403,6.76-10.842,6.556
				c-2.44-0.205-7.537-14.2-6.95-17.146"/>
			<path style="fill:#C4D2FF;" d="M471.227,171.876c-0.899-1.387-5.816-3.404-5.816-3.404l-11.977,14.625
				c0,0,8.403,6.76,10.842,6.556c2.44-0.205,7.537-14.2,6.95-17.146"/>
			<g>
				<g>
					<defs>
						<path id="SVGID_00000158020100570476829410000017599064333804520838_" d="M414.075,246.725
							c1.974-1.286,11.34-0.467,13.608,1.31c2.268,1.777-0.825,19.921-4.124,20.745c-3.299,0.825-11.34-0.825-12.989-3.093
							C408.921,263.42,409.951,249.412,414.075,246.725z"/>
					</defs>
					<clipPath id="SVGID_00000060728203899497615110000011201251859971392661_">
						<use xlink:href="#SVGID_00000158020100570476829410000017599064333804520838_"  style="overflow:visible;"/>
					</clipPath>
					<path style="clip-path:url(#SVGID_00000060728203899497615110000011201251859971392661_);fill:#343A5E;" d="M414.075,246.725
						c1.974-1.286,11.34-0.467,13.608,1.31c2.268,1.777-0.825,19.921-4.124,20.745c-3.299,0.825-11.34-0.825-12.989-3.093
						C408.921,263.42,409.951,249.412,414.075,246.725z"/>
					<g style="clip-path:url(#SVGID_00000060728203899497615110000011201251859971392661_);">
						<g>
							<path style="fill:#171A2A;" d="M422.353,250.985c-2.286,6.919-3.469,14.073-3.54,21.358c-0.007,0.726,1.122,0.727,1.129,0
								c0.07-7.189,1.244-14.234,3.499-21.058C423.67,250.594,422.58,250.298,422.353,250.985L422.353,250.985z"/>
						</g>
					</g>
					<g style="clip-path:url(#SVGID_00000060728203899497615110000011201251859971392661_);">
						<g>
							<path style="fill:#171A2A;" d="M412,249.418c0.155,2.4,0.966,4.259,3.666,3.933c3.919-0.473,8.144-1.951,11.629-3.778
								c0.644-0.337,0.074-1.312-0.57-0.975c-2.09,1.096-4.275,1.892-6.546,2.516c-2.261,0.621-6.786,2.42-7.051-1.696
								C413.082,248.696,411.953,248.691,412,249.418L412,249.418z"/>
						</g>
					</g>
					<g style="clip-path:url(#SVGID_00000060728203899497615110000011201251859971392661_);">
						<g>
							<path style="fill:#171A2A;" d="M416.156,250.364c0.726,0,0.727-1.129,0-1.129
								C415.43,249.236,415.429,250.364,416.156,250.364L416.156,250.364z"/>
						</g>
					</g>
				</g>
			</g>
			<g>
				<g>
					<path style="fill:#A4B4ED;" d="M453.281,196.712c0,17.562,0,35.124,0,52.686c0,0.639,0.994,0.64,0.994,0
						c0-17.562,0-35.124,0-52.686C454.275,196.072,453.281,196.071,453.281,196.712L453.281,196.712z"/>
				</g>
			</g>
			<g>
				<g>
					<path style="fill:#BCBEC0;" d="M418.296,276.159c6.945-1.482,12.545-6.49,14.846-13.199c0.208-0.606-0.752-0.867-0.958-0.264
						c-2.192,6.389-7.554,11.098-14.152,12.505C417.407,275.334,417.671,276.292,418.296,276.159L418.296,276.159z"/>
				</g>
			</g>
			<g>
				<g>
					<path style="fill:#BCBEC0;" d="M472.72,263.78c1.532,2.861,3.119,5.78,5.426,8.103c2.315,2.332,5.092,3.396,8.214,4.24
						c0.618,0.167,0.882-0.791,0.264-0.958c-3.22-0.87-6.003-2.01-8.297-4.535c-1.971-2.17-3.374-4.784-4.749-7.351
						C473.276,262.714,472.418,263.216,472.72,263.78L472.72,263.78z"/>
				</g>
			</g>
			<g>
				<g>
					<path style="fill:#BCBEC0;" d="M450.442,266.141c-0.467,1.363-0.853,2.999,0.001,4.298c0.633,0.963,1.772,1.506,2.892,1.135
						c0.604-0.2,0.346-1.16-0.264-0.958c-0.965,0.319-1.806-0.411-2.055-1.314c-0.266-0.964,0.072-1.987,0.384-2.898
						C451.608,265.799,450.648,265.539,450.442,266.141L450.442,266.141z"/>
				</g>
			</g>
			<g>
				<g>
					<path style="fill:#BCBEC0;" d="M454.559,266.32c-1.035,5.112-1.648,10.27-1.834,15.483c-0.023,0.64,0.971,0.639,0.994,0
						c0.184-5.126,0.781-10.191,1.799-15.218C455.644,265.96,454.686,265.693,454.559,266.32L454.559,266.32z"/>
				</g>
			</g>
			<g>
				<g>
					<g>
						<defs>
							<path id="SVGID_00000005266775674740770670000014766638397358082747_" d="M470.482,145.356
								c0.672-1.375,1.359-2.774,2.414-3.883c1.055-1.109,2.554-1.903,4.075-1.739c1.351,0.146,2.552,1.042,3.27,2.196
								c0.718,1.154,0.993,2.54,1.006,3.899c0.025,2.846-1.166,5.775-3.459,7.462c-2.293,1.687-5.709,1.877-7.951,0.124
								L470.482,145.356z"/>
						</defs>
						<clipPath id="SVGID_00000026855928312061096450000016586363344763803302_">
							<use xlink:href="#SVGID_00000005266775674740770670000014766638397358082747_"  style="overflow:visible;"/>
						</clipPath>
						<g style="clip-path:url(#SVGID_00000026855928312061096450000016586363344763803302_);">
							<path style="fill:#ECC19C;" d="M470.482,145.356c0.672-1.375,1.359-2.774,2.414-3.883c1.055-1.109,2.554-1.903,4.075-1.739
								c1.351,0.146,2.552,1.042,3.27,2.196c0.718,1.154,0.993,2.54,1.006,3.899c0.025,2.846-1.166,5.775-3.459,7.462
								c-2.293,1.687-5.709,1.877-7.951,0.124L470.482,145.356z"/>
						</g>
						<g style="clip-path:url(#SVGID_00000026855928312061096450000016586363344763803302_);">
							<g>
								<path style="fill:#4A0F00;" d="M479.958,144.873c-2.229-1.139-4.738-0.605-6.509,1.13c-2.207,2.162-2.733,5.324-3.161,8.247
									c-0.089,0.611,0.846,0.875,0.936,0.258c0.559-3.818,2.654-11.654,8.244-8.797
									C480.023,145.996,480.515,145.158,479.958,144.873L479.958,144.873z"/>
							</g>
						</g>
						<g style="clip-path:url(#SVGID_00000026855928312061096450000016586363344763803302_);">
							<g>
								<path style="fill:#4A0F00;" d="M472.967,147.856c1.155,0.043,1.579,1.313,1.817,2.246c0.155,0.605,1.091,0.349,0.936-0.258
									c-0.358-1.403-1.114-2.897-2.753-2.959C472.342,146.861,472.343,147.832,472.967,147.856L472.967,147.856z"/>
							</g>
						</g>
					</g>
					<g>
						<defs>
							<path id="SVGID_00000067226438011135966010000002825890710818497182_" d="M437.074,145.356
								c-0.672-1.375-1.359-2.774-2.414-3.883c-1.055-1.109-2.554-1.903-4.075-1.739c-1.351,0.146-2.552,1.042-3.27,2.196
								c-0.718,1.154-0.993,2.54-1.006,3.899c-0.025,2.846,1.166,5.775,3.459,7.462c2.293,1.687,5.709,1.877,7.952,0.124
								L437.074,145.356z"/>
						</defs>
						<clipPath id="SVGID_00000150064876165658482520000014501699235569617844_">
							<use xlink:href="#SVGID_00000067226438011135966010000002825890710818497182_"  style="overflow:visible;"/>
						</clipPath>
						<g style="clip-path:url(#SVGID_00000150064876165658482520000014501699235569617844_);">
							<path style="fill:#ECC19C;" d="M437.074,145.356c-0.672-1.375-1.359-2.774-2.414-3.883c-1.055-1.109-2.554-1.903-4.075-1.739
								c-1.351,0.146-2.552,1.042-3.27,2.196c-0.718,1.154-0.993,2.54-1.006,3.899c-0.025,2.846,1.166,5.775,3.459,7.462
								c2.293,1.687,5.709,1.877,7.952,0.124L437.074,145.356z"/>
						</g>
						<g style="clip-path:url(#SVGID_00000150064876165658482520000014501699235569617844_);">
							<g>
								<path style="fill:#4A0F00;" d="M428.088,145.712c2.629-1.344,5.317,0.312,6.603,2.68c1.023,1.885,1.334,4.023,1.64,6.117
									c0.09,0.616,1.026,0.354,0.936-0.258c-0.428-2.924-0.953-6.084-3.161-8.247c-1.77-1.734-4.28-2.269-6.509-1.13
									C427.041,145.158,427.532,145.996,428.088,145.712L428.088,145.712z"/>
							</g>
						</g>
						<g style="clip-path:url(#SVGID_00000150064876165658482520000014501699235569617844_);">
							<g>
								<path style="fill:#4A0F00;" d="M434.589,146.885c-1.639,0.061-2.395,1.556-2.753,2.959
									c-0.155,0.606,0.782,0.864,0.936,0.258c0.238-0.933,0.662-2.202,1.817-2.246
									C435.211,147.832,435.215,146.861,434.589,146.885L434.589,146.885z"/>
							</g>
						</g>
					</g>
				</g>
				<path style="fill:#ECC19C;" d="M453.434,111.892c-29.216,0-22.187,36.24-17.849,44.844c4.338,8.604,8.22,9.418,17.839,9.418
					c9.619,0,13.502-0.814,17.839-9.418C475.601,148.132,482.65,111.892,453.434,111.892z"/>
			</g>
			<g>
				<ellipse style="fill:#4A0F00;" cx="442.187" cy="138.314" rx="5.425" ry="4.593"/>
				<g>
					<defs>
						<ellipse id="SVGID_00000016794532423864496150000017098389553338452670_" cx="442.094" cy="138.942" rx="5.425" ry="4.627"/>
					</defs>
					<clipPath id="SVGID_00000019664701576400026600000005688694381336821163_">
						<use xlink:href="#SVGID_00000016794532423864496150000017098389553338452670_"  style="overflow:visible;"/>
					</clipPath>
					
						<ellipse style="clip-path:url(#SVGID_00000019664701576400026600000005688694381336821163_);fill:#EFEFEF;" cx="442.094" cy="138.942" rx="5.425" ry="4.627"/>
					
						<circle style="clip-path:url(#SVGID_00000019664701576400026600000005688694381336821163_);fill:#4A0F00;" cx="442.704" cy="138.314" r="4.293"/>
				</g>
			</g>
			<g>
				<ellipse style="fill:#4A0F00;" cx="465.002" cy="138.314" rx="5.425" ry="4.593"/>
				<g>
					<defs>
						<ellipse id="SVGID_00000038389576555628170850000009906519646186686633_" cx="465.095" cy="138.942" rx="5.425" ry="4.627"/>
					</defs>
					<clipPath id="SVGID_00000111893960981595692100000008960942762830663865_">
						<use xlink:href="#SVGID_00000038389576555628170850000009906519646186686633_"  style="overflow:visible;"/>
					</clipPath>
					
						<ellipse style="clip-path:url(#SVGID_00000111893960981595692100000008960942762830663865_);fill:#EFEFEF;" cx="465.095" cy="138.942" rx="5.425" ry="4.627"/>
					
						<circle style="clip-path:url(#SVGID_00000111893960981595692100000008960942762830663865_);fill:#4A0F00;" cx="464.485" cy="138.314" r="4.293"/>
				</g>
			</g>
			<path style="fill:#AFAFAF;" d="M436.762,127.993c-0.337,0.594-0.885,1.329-0.093,1.766c0.791,0.437,10.081,2.247,10.944,1.067
				s0.706-3.226-0.474-3.856C445.958,126.34,437.214,127.197,436.762,127.993z"/>
			<path style="fill:#AFAFAF;" d="M468.87,126.533c0.337,0.594,0.885,1.329,0.093,1.766c-0.791,0.437-10.081,2.247-10.944,1.067
				s-0.706-3.226,0.474-3.856C459.674,124.88,468.418,125.737,468.87,126.533z"/>
			<g>
				<path style="fill:#AFAFAF;" d="M442.966,150.151c-1.274,1.078-2.94,5.978-2.352,5.88c0.588-0.098,3.332-3.631,4.214-3.923
					c0.882-0.291,8.387,0.395,8.387-1.957v-1.96C451.394,148.093,444.24,149.073,442.966,150.151z"/>
				<path style="fill:#AFAFAF;" d="M463.858,150.151c-1.274-1.078-8.428-2.058-10.249-1.96v1.96c0,2.352,7.505,1.666,8.387,1.957
					c0.882,0.291,3.626,3.825,4.214,3.923C466.798,156.129,465.132,151.229,463.858,150.151z"/>
			</g>
			<path style="fill:#7D4921;" d="M451.607,130.709c1.264-1.41,3.622-1.116,4.515,0c0.893,1.116,2.138,16.188,0.678,16.969
				c-1.46,0.781-5.479,1.451-6.26,0C449.759,146.227,450.106,132.384,451.607,130.709z"/>
			<g>
				<g>
					<path style="fill:#4A0F00;" d="M448.917,154.933c2.719,0.544,5.407,0.413,8.051-0.428c0.693-0.221,0.397-1.316-0.302-1.094
						c-2.45,0.779-4.925,0.933-7.448,0.428C448.505,153.696,448.2,154.789,448.917,154.933L448.917,154.933z"/>
				</g>
			</g>
			<path style="fill:#ECC19C;" d="M505.343,206.209l-16.482,2.971c0,0,2.027,6.092-9.041,7.341
				c-14.568,0.995-47.106-12.67-57.147-12.194c-10.041,0.475-16.356,6.806-14.852,7.566c0.543,0.274,1.251,0.13,1.936-0.164
				c-1.229,0.936-2.345,2.113-1.637,2.954c0.867,1.03,2.349,0.457,3.307-0.092c-1.173,0.834-2.927,2.299-1.834,2.945
				c1.573,0.929,5.68-0.912,5.68-0.912s-3.077,2.247-2.546,3.122c0.531,0.875,5.951-1.57,7.897-1.894
				c1.946-0.324,2.249,2.436,4.641,2.034s45.698,31.497,71.772,12.491C509.047,223.055,505.343,206.209,505.343,206.209z"/>
			<path style="fill:#BCBEC0;" d="M479.82,216.52c-7.71,0.527-15.1,6.908-26.878,3.492c-3.923,2.622-12.725-4.051-15.388-0.15
				c-1.074,1.573-2.016,3.272-2.668,5.058c6.678,3.625,16.14,8.346,26.268,11.138c2.205-1.032,4.324-2.258,6.307-3.645
				c6.339-4.432,11.485-10.331,16.045-16.605C482.476,216.112,481.261,216.358,479.82,216.52z"/>
			<path style="fill:#ECC19C;" d="M475.276,206.766c-9.475-0.707-55.408,11.004-56.135,9.755c-0.727-1.249-0.87-7.292-0.87-7.292
				l-13.665-2.463c0,0-4.445,23.932,10.291,27.578c14.736,3.646,71.787-17.184,72.48-20.535
				C486.832,213.12,484.751,207.473,475.276,206.766z"/>
			<g>
				<path style="fill:#4A0F00;" d="M411.066,207.965c-0.48,0.412-0.967,0.806-1.403,1.249c-0.45,0.423-0.879,0.872-1.22,1.359
					c-0.166,0.242-0.32,0.495-0.407,0.724c-0.042,0.111-0.048,0.221-0.038,0.244c0.033,0.014-0.07-0.047,0.078,0.022
					c0.41,0.149,0.984-0.011,1.506-0.244c0.225-0.1,0.488,0,0.588,0.225c0.086,0.193,0.02,0.418-0.142,0.54
					c-0.47,0.354-0.928,0.734-1.281,1.157c-0.363,0.433-0.554,0.881-0.35,1.157c0.251,0.388,0.734,0.581,1.283,0.53
					c0.553-0.022,1.119-0.237,1.672-0.467l0.002-0.001c0.07-0.043,0.162-0.02,0.204,0.05c0.039,0.065,0.023,0.147-0.034,0.193
					l-0.01,0.008c-0.635,0.509-1.255,1.07-1.709,1.684c-0.226,0.308-0.328,0.661-0.183,0.757c0.153,0.161,0.558,0.267,0.909,0.274
					c0.746,0.019,1.535-0.173,2.294-0.407c0.762-0.23,1.529-0.524,2.244-0.852c0.251-0.115,0.547-0.005,0.662,0.245
					c0.098,0.213,0.033,0.458-0.141,0.598l-0.021,0.017c-0.657,0.526-1.327,1.099-1.872,1.7c-0.256,0.277-0.521,0.683-0.512,0.782
					c-0.003,0.008-0.001-0.005-0.008-0.013c-0.004-0.013,0.003,0-0.019-0.031c-0.059-0.095-0.154-0.147-0.166-0.152l-0.061-0.024
					c-0.042-0.004,0.092,0.005,0.171-0.003c0.189-0.011,0.401-0.038,0.611-0.069c1.698-0.273,3.425-0.678,5.137-1.061
					c3.429-0.79,6.849-1.641,10.267-2.501l10.258-2.573c3.424-0.848,6.835-1.723,10.289-2.48c0.027-0.006,0.053,0.011,0.059,0.038
					c0.006,0.026-0.01,0.052-0.036,0.059l-0.007,0.002c-3.404,0.879-6.781,1.922-10.177,2.863l-10.191,2.838
					c-3.406,0.918-6.813,1.827-10.242,2.678c-1.72,0.42-3.424,0.845-5.205,1.14c-0.226,0.034-0.451,0.067-0.702,0.084
					c-0.14,0.001-0.23,0.026-0.488-0.026c-0.034-0.009-0.069-0.016-0.139-0.051c-0.039-0.014-0.153-0.085-0.231-0.201
					c-0.048-0.079-0.062-0.117-0.09-0.18c-0.04-0.112-0.062-0.235-0.06-0.337c0.011-0.425,0.169-0.662,0.297-0.895
					c0.137-0.226,0.291-0.415,0.45-0.593c0.638-0.708,1.33-1.269,2.078-1.803l0.499,0.86c-0.799,0.325-1.589,0.589-2.417,0.8
					c-0.828,0.191-1.679,0.349-2.586,0.266c-0.452-0.07-0.929-0.134-1.347-0.592c-0.21-0.249-0.223-0.638-0.125-0.872
					c0.087-0.251,0.223-0.441,0.361-0.618c0.571-0.685,1.28-1.138,1.975-1.595l0.161,0.251l-0.002,0.001
					c-0.507,0.368-1.078,0.666-1.741,0.812c-0.652,0.146-1.507-0.048-1.988-0.673c-0.279-0.323-0.353-0.859-0.213-1.223
					c0.118-0.377,0.318-0.67,0.525-0.934c0.422-0.525,0.909-0.937,1.404-1.329l0.446,0.765c-0.616,0.241-1.354,0.479-2.155,0.178
					c-0.146-0.029-0.533-0.308-0.553-0.617c-0.046-0.289,0.027-0.498,0.096-0.678c0.149-0.356,0.357-0.627,0.581-0.877
					c0.894-0.986,1.969-1.698,3.109-2.262c0.025-0.012,0.055-0.002,0.067,0.023C411.089,207.926,411.082,207.951,411.066,207.965z"
					/>
			</g>
			<g>
				<g>
					<path style="fill:#4A0F00;" d="M409.222,212.515c3.437-1.991,6.963-3.785,11.015-3.891c0.638-0.017,0.641-1.011,0-0.994
						c-4.227,0.111-7.926,1.947-11.517,4.027C408.167,211.977,408.667,212.836,409.222,212.515L409.222,212.515z"/>
				</g>
			</g>
			<g>
				<g>
					<path style="fill:#4A0F00;" d="M410.591,215.834c2.938-1.877,6.095-3.155,9.509-3.853c0.626-0.128,0.361-1.086-0.264-0.958
						c-3.49,0.714-6.745,2.036-9.746,3.953C409.552,215.319,410.05,216.18,410.591,215.834L410.591,215.834z"/>
				</g>
			</g>
			<g>
				<g>
					<path style="fill:#4A0F00;" d="M414.37,217.757c2.363-1.699,4.937-2.895,7.763-3.597c0.62-0.154,0.358-1.113-0.264-0.958
						c-2.899,0.72-5.575,1.954-8,3.698C413.353,217.269,413.849,218.131,414.37,217.757L414.37,217.757z"/>
				</g>
			</g>
			<path style="fill:#AFAFAF;" d="M452.943,115.582c5.572-0.332,10.853-1.798,12.016-1.1s8.499,9.653,9.099,12.27
				c0.6,2.617,0.197,16.015,0.609,15.163s2.085-0.945,2.305-2.181s0-15.281,0-15.281s2.067-13.122,0.959-16.264
				s-11.552-11.828-11.598-10.534s1.063,6.284,1.063,6.284s-23.138-10.719-24.691-8.871c-1.553,1.848-0.494,5.729-0.494,5.729
				s-10.415-0.37-10.635,1.479c-0.219,1.848,1.998,3.327,1.998,3.327s-12.982,6.653-11.573,7.947s6.634,0.739,6.634,0.739
				s-1.345,4.436-1.529,5.36s0.739,2.218,0.739,2.218s3.546,22.828,4.822,23.612s1.684,1.338,2.219-0.88s-3.969-14.622-2.086-17.846
				s4.285-9.692,6.503-10.616S449.417,115.792,452.943,115.582z"/>
		</g>
		<g>
			<g>
				<path style="fill:#FFB721;" d="M312.559,126.977l-33.214,1.777c0.383,5.476-1.535,10.832-3.615,15.913
					c-2.08,5.08-4.382,10.199-4.829,15.67c-0.447,5.471,1.367,11.501,5.959,14.508c0.357,0.234,0.74,0.452,1.163,0.507
					c0.69,0.091,1.351-0.259,1.98-0.556c6.013-2.834,13.07-1.459,19.559-0.018c6.489,1.441,13.535,2.841,19.567,0.047
					c2.49-6.899,4.786-14.018,4.842-21.353C324.047,143.576,319.802,133.721,312.559,126.977z"/>
			</g>
			<g>
				<defs>
					<path id="SVGID_00000156567580092247805830000006991806775186129297_" d="M315.038,127.936
						c1.015-1.202,2.053-2.423,3.383-3.263c1.33-0.84,3.024-1.254,4.5-0.708c1.31,0.485,2.282,1.68,2.707,3.011
						c0.425,1.331,0.351,2.781,0.021,4.139c-0.691,2.844-2.615,5.463-5.325,6.567c-2.71,1.104-6.162,0.434-7.957-1.877
						L315.038,127.936z"/>
				</defs>
				<clipPath id="SVGID_00000124123066522384359480000014533391975320347304_">
					<use xlink:href="#SVGID_00000156567580092247805830000006991806775186129297_"  style="overflow:visible;"/>
				</clipPath>
				<g style="clip-path:url(#SVGID_00000124123066522384359480000014533391975320347304_);">
					<path style="fill:#ECC19C;" d="M315.038,127.936c1.015-1.202,2.053-2.423,3.383-3.263c1.33-0.84,3.024-1.254,4.5-0.708
						c1.31,0.485,2.282,1.68,2.707,3.011c0.425,1.331,0.351,2.781,0.021,4.139c-0.691,2.844-2.615,5.463-5.325,6.567
						c-2.71,1.104-6.162,0.434-7.957-1.877L315.038,127.936z"/>
				</g>
				<g style="clip-path:url(#SVGID_00000124123066522384359480000014533391975320347304_);">
					<g>
						<path style="fill:#4A0F00;" d="M324.608,129.843c-2.005-1.726-4.686-1.805-6.925-0.423c-2.69,1.66-3.962,4.646-5.123,7.447
							c-0.246,0.593,0.72,0.851,0.963,0.265c1.513-3.651,5.508-10.777,10.38-6.584C324.387,130.965,325.096,130.262,324.608,129.843
							L324.608,129.843z"/>
					</g>
				</g>
				<g style="clip-path:url(#SVGID_00000124123066522384359480000014533391975320347304_);">
					<g>
						<path style="fill:#4A0F00;" d="M316.875,131.05c1.146,0.341,1.252,1.687,1.256,2.687c0.003,0.642,1.001,0.643,0.998,0
							c-0.006-1.489-0.375-3.169-1.989-3.65C316.524,129.904,316.26,130.867,316.875,131.05L316.875,131.05z"/>
					</g>
				</g>
			</g>
			<path style="fill:#ECC19C;" d="M304.288,145.962l-15.444,2.703c0,0-0.169,11.486-1.368,11.776l-1.321,8.098l9.108,3.982
				l10.421-11.018L304.288,145.962z"/>
			<g>
				<path style="fill:#BCBEC0;" d="M288.634,154.063c5.229,1.928,11.111,2.121,16.423,0.456l-0.768-8.557l-15.444,2.703
					C288.844,148.664,288.805,151.29,288.634,154.063z"/>
			</g>
			<path style="fill:#171A2A;" d="M260.819,379.393l-19.051-0.435c0,0-3.288,6.552-7.554,9.751
				c-4.266,3.2-10.026,10.452-6.186,14.932c3.84,4.479,16.425,3.413,20.051,0s7.679-5.083,11.945-7.127
				C264.291,394.468,260.819,379.393,260.819,379.393z"/>
			<path style="fill:#171A2A;" d="M301.478,379.393l19.051-0.435c0,0,3.288,6.552,7.554,9.751c4.266,3.2,10.026,10.452,6.186,14.932
				c-3.84,4.479-16.425,3.413-20.051,0s-7.679-5.083-11.945-7.127C298.007,394.468,301.478,379.393,301.478,379.393z"/>
			<path style="fill:#ECC19C;" d="M259.927,195.667c0,0-3.636,13.192-5.849,16.818c-2.213,3.626-2.529,3.434-4.585,10.407
				c-2.055,6.973-6.48,31.628-7.196,33.058c-0.221,0.441,0.211,9.94,0.643,11.019c0.432,1.079,7.016,6.26,7.556,6.152
				c0.54-0.108,1.079-1.079,1.079-1.079l-4.21-5.721c0,0,0.971-8.203,1.943-8.851s1.174,9.822,1.774,10.038
				c0.6,0.216,1.788,1.511,2.867,0.324c1.079-1.187,0.971-6.368,1.187-7.556c0.216-1.187,2.051-4.749,1.619-7.232
				s-2.159-4.749-1.835-6.368c0.324-1.619,10.578-18.997,11.333-22.343c0.756-3.346,0.696-9.498,1.103-10.902
				c0.408-1.403,5.849-14.078,5.849-14.078L259.927,195.667z"/>
			<path style="fill:#C4D2FF;" d="M268.828,166.876c-3.767,2.885-13.099,28.79-13.099,28.79s6.787,4.806,17.477,3.958l4.921-35.998
				C278.127,163.627,272.595,163.992,268.828,166.876z"/>
			<path style="fill:#C4D2FF;" d="M325.129,166.876c3.767,2.885,13.099,28.79,13.099,28.79s-10.956,0.848-21.646,0l-0.752-32.04
				C315.831,163.627,321.362,163.992,325.129,166.876z"/>
			<path style="fill:#A4B4ED;" d="M300.74,167.807l-5.477,2.719c0,0-4.401-2.091-4.326-1.987l-4.99,8.156l4.99,8.888l4.902-2.719
				l7.676-11.594L300.74,167.807z"/>
			<polyline style="fill:#435891;" points="293.371,174.003 290.025,180.774 293.371,186.734 300.064,181.087 297.554,174.003 			
				"/>
			<polygon style="fill:#435891;" points="298.704,168.539 291.907,168.539 290.936,170.634 293.371,174.003 297.554,174.003 
				300.74,170.475 			"/>
			<path style="fill:#435891;" d="M324.97,261.47c-0.778-15.667-5.832-26.711-7.776-32.543l-45.489,2.722
				c0,0-2.34,18.866-2.722,23.54c-0.271,3.312-7.776,33.223-12.053,49.164c-4.277,15.94-16.718,71.538-15.163,74.605
				c1.555,3.068,15.552,3.153,19.051,0.435c3.499-2.718,34.991-106.744,34.991-106.744s3.11,107.907,5.443,109.462
				c2.333,1.555,17.02,0.213,20.908-0.319C326.05,381.259,325.748,277.137,324.97,261.47z"/>
			<path style="fill:#171A2A;" d="M318.497,230.275l-47.24,2.826c0,0-0.319,4.812-0.381,5.323
				c-0.062,0.511,10.389,3.166,20.986,3.351c10.597,0.186,28.641-3.531,28.367-4.337
				C319.956,236.632,318.497,230.275,318.497,230.275z"/>
			<path style="fill:#435891;" d="M281.397,243.435c0.724-0.868,0.89-11.371,0-11.548c-0.89-0.176-2.671-0.473-3.265,0.12
				s-1.039,11.427-0.594,11.427S280.655,244.326,281.397,243.435z"/>
			<path style="fill:#435891;" d="M303.967,242.949c-0.724-0.868-0.89-11.371,0-11.548c0.89-0.176,2.671-0.473,3.265,0.12
				s1.039,11.427,0.594,11.427S304.709,243.84,303.967,242.949z"/>
			<path style="fill:#FFB721;" d="M296.426,233.347c-0.713-0.357-8.56-0.731-9.452,0.303c-0.429,0.498-1.605,8.257,0,9.238
				c1.605,0.981,9.006,0.089,9.452,0C296.872,242.8,297.139,233.704,296.426,233.347z M294.547,241.082
				c-0.275,0.055-4.848,0.606-5.84,0s-0.265-5.4,0-5.708c0.551-0.639,5.399-0.408,5.84-0.187
				C294.988,235.407,294.823,241.027,294.547,241.082z"/>
			<polygon style="fill:#A4B4ED;" points="316.974,223.287 291.127,213.719 272.772,228.862 271.258,233.101 289.521,236.059 
				290.903,231.926 292.963,236.059 319.268,232.46 			"/>
			<path style="fill:#171A2A;" d="M293.372,182.057l-5.895-21.616c0,0-8.141-2.807-10.106,0c-1.965,2.807-5.895,12.672-7.86,29.216
				s0.802,40.29,2.246,41.809c1.444,1.519,16.844,0,16.844,0l1.965-5.532c0,0,2.157,5.883,2.807,5.844
				c0.65-0.039,23.756,0.286,25.126-1.503s2.433-25.539,2.54-29.34c0.257-9.196,0.454-37.343-0.06-38.199
				c-0.514-0.856-8.219-3.424-10.273-2.568C308.65,161.024,293.372,182.057,293.372,182.057z"/>
			<polygon style="fill:#C4D2FF;" points="286.983,154.119 281.521,159.18 287.331,173.135 294.564,168.118 			"/>
			<polygon style="fill:#C4D2FF;" points="306.823,155.275 311.427,161.126 303.511,174.003 297.149,167.918 			"/>
			<path style="fill:#ECC19C;" d="M334.05,185.195l-16.537,8.485c0,0-2.847,22.846,7.501,20.039
				C335.362,210.912,337.779,201.746,334.05,185.195z"/>
			<g>
				<path style="fill:#BCBEC0;" d="M335.69,198.5c0.08-3.745-0.483-8.168-1.641-13.306l-16.537,8.485c0,0-0.352,2.839-0.357,6.39
					c2.688,0.557,5.41,0.904,8.151,0.862C328.888,200.878,332.522,200.127,335.69,198.5z"/>
			</g>
			<g>
				<path style="fill:#ECC19C;" d="M332.393,162.469c-0.326-1.816,1.139-4.368,0.732-5.914c-0.407-1.546-2.929-3.987-5.533,0
					c-2.604,3.987-2.578,13.996-2.578,13.996l11.155,0.72C335.036,167.316,332.719,164.285,332.393,162.469z"/>
				<path style="fill:#ECC19C;" d="M335.993,177.268c0.989-1.113,2.349-4.822,0.742-6.553s-18.419-4.395-20.031-3.71
					c-1.389,0.591-3.091,3.48-1.36,6.13c0,0-2.844,2.297-2.102,7.234c0,0-1.814,3.608,0.437,7.026c0,0-0.56,2.981,1.666,5.207
					c2.225,2.226,14.312,2.787,15.178,1.303c0.866-1.484,1.24-2.808,1.24-2.808s1.315-0.219,1.933-2.074s0.355-3.827,0.355-3.827
					s1.562-1.395,2.18-3.519C336.848,179.552,335.993,177.268,335.993,177.268z"/>
				<g>
					<g>
						<path style="fill:#4A0F00;" d="M314.37,172.989c4.507,1.201,9.067,1.95,13.719,2.261c0.624,0.042,0.621-0.929,0-0.971
							c-4.565-0.305-9.042-1.049-13.461-2.226C314.024,171.891,313.766,172.828,314.37,172.989L314.37,172.989z"/>
					</g>
				</g>
				<g>
					<g>
						<path style="fill:#4A0F00;" d="M312.566,180.276c4.738,1.373,9.53,2.065,14.463,2.091c0.625,0.003,0.626-0.968,0-0.971
							c-4.837-0.025-9.56-0.71-14.205-2.056C312.223,179.166,311.966,180.102,312.566,180.276L312.566,180.276z"/>
					</g>
				</g>
				<g>
					<g>
						<path style="fill:#4A0F00;" d="M312.612,186.96c4.568,1.305,9.185,1.867,13.935,1.693c0.623-0.023,0.626-0.994,0-0.971
							c-4.654,0.17-9.197-0.379-13.677-1.659C312.268,185.852,312.011,186.789,312.612,186.96L312.612,186.96z"/>
					</g>
				</g>
			</g>
			<g>
				<path style="fill:#A4B4ED;" d="M293.372,182.057c-0.508,3.642-0.978,7.278-1.337,10.925c-0.359,3.647-0.677,7.297-0.852,10.957
					c-0.255,3.655-0.367,7.319-0.455,10.984c-0.115,3.666-0.099,7.334-0.164,11.011c-0.158-1.831-0.292-3.665-0.392-5.501
					c-0.075-1.837-0.143-3.675-0.165-5.514c-0.062-3.679,0.058-7.359,0.241-11.034c0.254-3.671,0.56-7.342,1.074-10.987
					c0.263-1.822,0.546-3.64,0.877-5.449C292.558,185.643,292.923,183.841,293.372,182.057z"/>
			</g>
			<path style="fill:#FFB721;" d="M312.015,183.102c0,0-0.886,0.936-2.682,0.802c-1.797-0.134-3.09-0.802-3.09-0.802
				s-1.293,0.668-3.09,0.802s-2.683-0.802-2.683-0.802s-1.166,2.406,0.447,6.282c1.613,3.876,5.325,6.282,5.325,6.282
				s3.712-2.406,5.325-6.282C313.181,185.508,312.015,183.102,312.015,183.102z"/>
			<g>
				<g>
					<path style="fill:#BCBEC0;" d="M296.045,272.015c-1.77-2.044-3.797-3.806-6.059-5.286c-0.506-0.331-0.976,0.48-0.473,0.809
						c2.198,1.438,4.151,3.155,5.87,5.14C295.778,273.133,296.438,272.468,296.045,272.015L296.045,272.015z"/>
				</g>
			</g>
			<g>
				<g>
					<path style="fill:#BCBEC0;" d="M292,271.384c-1.238-0.919-2.593-1.617-4.052-2.111c-0.572-0.194-0.818,0.71-0.249,0.903
						c1.387,0.469,2.654,1.145,3.828,2.017C292.012,272.552,292.479,271.74,292,271.384L292,271.384z"/>
				</g>
			</g>
			<g>
				<g>
					<path style="fill:#BCBEC0;" d="M306.771,245.583c1.344,2.748,2.744,5.56,5.022,7.667c2.262,2.092,5.098,2.215,7.542,3.856
						c0.502,0.337,0.971-0.474,0.473-0.809c-2.356-1.582-5.169-1.704-7.352-3.709c-2.221-2.04-3.57-4.809-4.875-7.478
						C307.315,244.569,306.507,245.043,306.771,245.583L306.771,245.583z"/>
				</g>
			</g>
			<g>
				<g>
					<path style="fill:#BCBEC0;" d="M272.068,253.806c3.606-1.324,6.282-4.283,7.183-8.026c0.141-0.586-0.762-0.836-0.903-0.249
						c-0.821,3.41-3.228,6.16-6.529,7.372C271.259,253.109,271.501,254.014,272.068,253.806L272.068,253.806z"/>
				</g>
			</g>
			<g>
				<g>
					<path style="fill:#BCBEC0;" d="M289.273,246.495c-0.368,1.213-0.716,2.58-0.049,3.761c0.613,1.086,1.749,1.287,2.906,1.226
						c0.6-0.032,0.603-0.968,0-0.936c-0.964,0.051-1.902-0.056-2.246-1.111c-0.289-0.887,0.032-1.837,0.291-2.691
						C290.352,246.167,289.448,245.919,289.273,246.495L289.273,246.495z"/>
				</g>
			</g>
			<g>
				<g>
					<path style="fill:#BCBEC0;" d="M292.083,246.98c-0.05,6.612,0.015,13.748,1.786,20.164c0.16,0.58,1.064,0.334,0.903-0.249
						c-1.744-6.32-1.802-13.383-1.753-19.915C293.024,246.377,292.088,246.377,292.083,246.98L292.083,246.98z"/>
				</g>
			</g>
			<path style="fill:#ECC19C;" d="M302.251,100.199c-0.238-0.971-17.988,18.787-25.982,21.585c0,0,2.998,13.391,3.198,17.188
				c0.2,3.797,0.912,14.368,18.022,14.38c17.779,0.012,19.021-27.274,19.021-27.274S304.649,109.992,302.251,100.199z"/>
			<g>
				<circle style="fill:#4A0F00;" cx="285.787" cy="127.903" r="5.919"/>
				<g>
					<defs>
						<circle id="SVGID_00000072259545775899206860000003994297562213432217_" cx="286.084" cy="128.702" r="5.919"/>
					</defs>
					<clipPath id="SVGID_00000083779126500730219930000005355161379366645382_">
						<use xlink:href="#SVGID_00000072259545775899206860000003994297562213432217_"  style="overflow:visible;"/>
					</clipPath>
					
						<circle style="clip-path:url(#SVGID_00000083779126500730219930000005355161379366645382_);fill:#EFEFEF;" cx="286.084" cy="128.702" r="5.919"/>
					
						<circle style="clip-path:url(#SVGID_00000083779126500730219930000005355161379366645382_);fill:#3B854B;" cx="286.331" cy="128.726" r="5.244"/>
				</g>
			</g>
			<g>
				<circle style="fill:#4A0F00;" cx="306.263" cy="127.903" r="5.919"/>
				<g>
					<defs>
						<circle id="SVGID_00000086666507275704375180000009616570249211907759_" cx="305.966" cy="128.702" r="5.919"/>
					</defs>
					<clipPath id="SVGID_00000124126194776006851520000003924075326023135679_">
						<use xlink:href="#SVGID_00000086666507275704375180000009616570249211907759_"  style="overflow:visible;"/>
					</clipPath>
					
						<circle style="clip-path:url(#SVGID_00000124126194776006851520000003924075326023135679_);fill:#EFEFEF;" cx="305.966" cy="128.702" r="5.919"/>
					
						<circle style="clip-path:url(#SVGID_00000124126194776006851520000003924075326023135679_);fill:#3B854B;" cx="306.263" cy="128.702" r="5.244"/>
				</g>
			</g>
			<path style="fill:#CB8C84;" d="M295.885,124.33c-0.627-0.29-4.271,10.467-3.117,11.209c1.154,0.742,3.297,0.577,3.791,0
				C297.054,134.961,296.777,124.742,295.885,124.33z"/>
			<path style="fill:#4A0F00;" d="M313.174,116.804c-2.223-2.276-10.01,0.016-12.034,1.655c-2.024,1.639-0.351,3.278,1.118,2.582
				s9.152-2.409,10.248-2.642C313.603,118.166,313.883,117.53,313.174,116.804z"/>
			<path style="fill:#4A0F00;" d="M279.48,116.788c1.47-2.821,9.586-2.881,11.998-1.897c2.412,0.984,1.284,3.037-0.323,2.795
				s-9.457,0.341-10.574,0.435C279.463,118.216,279.011,117.688,279.48,116.788z"/>
			<g>
				<g>
					<path style="fill:#4A0F00;" d="M292.687,142.843c2.899,0.372,5.668-0.499,7.888-2.383c0.544-0.462-0.243-1.242-0.783-0.783
						c-2.011,1.707-4.498,2.393-7.104,2.059C291.981,141.645,291.988,142.754,292.687,142.843L292.687,142.843z"/>
				</g>
			</g>
			<g>
				<path style="fill:#FFB721;" d="M314.039,123.511c-0.254,4.099-1.953,8.263-0.76,12.193c0.316,1.042,1.154,2.193,2.219,1.967
					c1.049-0.223,1.354-1.55,1.441-2.619c0.363-4.485,0.653-8.975,0.871-13.469L314.039,123.511z"/>
			</g>
			<path style="fill:#FFB721;" d="M320.112,112.102c-0.89-4.227,0.122-15.548-18.962-20.711
				c-19.785-5.353-24.944,9.144-27.016,10.924c-2.071,1.78-12.526,1.335-12.081,6.451c0.445,5.116,3.114,2.782,3.114,4.95
				c0,2.168-5.811,3.937-3.128,7.168c2.683,3.231,6.687,0.477,8.467,2.187c1.78,1.711-0.974,6.566,3.628,5.473
				c4.602-1.093,26.396-15.889,28.484-23.217c0.36,9.669,5.745,17.676,13.891,20.751c5.228,1.825,4.048-3.007,4.048-3.007
				s0.767,0.811,1.385-2.187C322.559,117.886,321.001,116.328,320.112,112.102z"/>
			<ellipse style="fill:#BCBEC0;" cx="284.127" cy="400.448" rx="63.527" ry="8.007"/>
		</g>
	</g>
</g>
</svg>
