<?xml version="1.0" encoding="utf-8"?>
<!-- Generator: Adobe Illustrator 27.5.0, SVG Export Plug-In . SVG Version: 6.00 Build 0)  -->
<svg version="1.1" xmlns="http://www.w3.org/2000/svg" xmlns:xlink="http://www.w3.org/1999/xlink" x="0px" y="0px"
	 viewBox="0 0 499.999 500" style="enable-background:new 0 0 499.999 500;" xml:space="preserve">
<g id="BACKGROUND">
</g>
<g id="OBJECTS">
	<g>
		<path style="opacity:0.2;fill:#9ECCDB;" d="M382.092,421.937c-17.373,0-33.451,1.246-46.625,3.357
			c-13.174-2.111-29.254-3.357-46.627-3.357c-13.889,0-26.955,0.795-38.369,2.191c-13.039-2.043-28.852-3.242-45.91-3.242
			c-17.653,0-33.97,1.285-47.261,3.459c-12.45-1.773-27.178-2.805-42.979-2.805c-44.614,0-80.78,8.184-80.78,18.277
			c0,10.092,36.166,18.275,80.78,18.275c17.653,0,33.97-1.285,47.261-3.459c12.449,1.773,27.179,2.805,42.979,2.805
			c13.888,0,26.955-0.795,38.371-2.191c13.037,2.043,28.849,3.242,45.908,3.242c17.373,0,33.453-1.246,46.627-3.358
			c13.174,2.111,29.252,3.358,46.625,3.358c44.615,0,80.781-8.184,80.781-18.275C462.874,430.121,426.708,421.937,382.092,421.937z"
			/>
		<g>
			<path style="fill:#D39484;" d="M147.34,171.55c0,0,22.091,32.888,26.726,39.295l-5.648,8.493c0,0-16.738-20.182-32.061-43.958
				L147.34,171.55z"/>
			<g>
				<path style="fill:#B7875C;" d="M208.214,145.499l8.165-2.179l24.748,51.366l19.879-19.13c4.803-9.215,6.904-21.395,8.576-19.36
					c0.141,2.185,0.582,3.85-0.529,6.366c2.219-5.029,12.723-18.499,11.969-15.184c-0.053,3.124-2.328,5.318-3.742,8.36
					c1.531-2.629,6.381-7.953,7.248-7.032c-0.588,2.825-3.379,7.175-5.125,8.971c2.158-1.909,7.107-7.893,7.932-6.636
					c-1.111,2.519-3.328,5.438-4.963,7.646c1.75-1.802,4.379-4.828,6.756-5.908c-2.295,6.392-15.514,20.242-18.186,21.888
					c-1.191,0.728-2.217,1.548-3.147,2.417c-0.033,0.049-20.961,30.856-26.916,33.602c-5.967,2.748-21.631-31.177-21.631-31.177
					l-13.67-19.026L208.214,145.499z"/>
				<g>
					<path style="fill:#5B4E48;" d="M198.871,429.678c0,0,29.875,7.267,36.002,3.684c0,0,1.123-1.434-1.039-2.391
						c-0.135-0.061-0.279-0.123-0.445-0.175c-1.619-0.561-4.242-1.764-7.115-3.173c-5.227-2.566-11.258-5.839-13.537-7.272
						c-0.24-0.149-0.439-0.282-0.596-0.387c-5.112-3.575,7.334-148.56,7.334-148.56l-19.264-3.323c0,0-0.487,78.245-2.018,86.935
						c-1.467,8.322,0.188,48.958,0.629,65.876c0.019,0.757,0.037,1.483,0.049,2.142v1.702v2.967V429.678z M214.98,431.603
						c1.207,0.264,2.395,0.473,3.586,0.644C217.377,432.072,216.188,431.867,214.98,431.603z M218.896,432.294
						c1.215,0.163,2.436,0.279,3.684,0.334C221.332,432.574,220.107,432.461,218.896,432.294z"/>
					<path style="fill:#5B4E48;" d="M167.569,358.346c-1.468,8.32,0.184,48.953,0.632,65.872c0.018,0.757,0.031,1.481,0.047,2.133
						v1.714v2.958v1.985c0,0,29.871,7.267,36,3.675c0,0,1.126-1.432-1.037-2.391c-0.135-0.06-0.283-0.112-0.445-0.172
						c-1.619-0.56-4.243-1.753-7.121-3.173c-5.221-2.568-11.25-5.845-13.531-7.265c-0.241-0.149-0.447-0.287-0.599-0.392
						c-5.11-3.581,8.554-148.816,8.554-148.816l-23.094-3.07l0.595,26.082C167.569,297.487,169.104,349.654,167.569,358.346z
						 M184.361,434.93c1.186,0.257,2.35,0.466,3.52,0.632C186.714,435.392,185.547,435.187,184.361,434.93z M188.306,435.625
						c1.19,0.159,2.384,0.271,3.606,0.331C190.691,435.897,189.491,435.786,188.306,435.625z"/>
				</g>
				<g>
					<path style="fill:#9BBCC4;" d="M163.621,247.967c0,0,1.561,79.526,1.561,95.631c0,0-0.333,76.561,0.438,79.118
						c0,0,12.209,3.082,18.601-0.476c0,0-0.371-33.384-0.371-44.635c0-11.251,8.131-99.979,8.131-99.979l5.615-2.304l-1.291,143.18
						c0,0,13.317,5.08,18.318-0.1c0,0,2.082-48.982,2.4-57.156c0.322-8.189,5.83-106.378,3.527-113.279H163.621z"/>
				</g>
				<g>
					<path style="fill:#74A7AF;" d="M190.068,278.65c0,0,1.104-0.173,2.653-0.653c1.548-0.469,3.554-1.234,5.495-2.133
						c1.936-0.911,3.813-1.957,5.167-2.847c1.361-0.878,2.194-1.612,2.194-1.612s-1.094,0.171-2.644,0.653
						c-1.556,0.465-3.557,1.232-5.497,2.133c-1.938,0.914-3.813,1.955-5.166,2.849C190.907,277.918,190.068,278.65,190.068,278.65z"
						/>
				</g>
				<g>
					<path style="fill:#74A7AF;" d="M195.605,251.291c0,0-0.011,0.357-0.086,0.963c-0.074,0.607-0.176,1.472-0.292,2.512
						c-0.23,2.074-0.45,4.846-0.538,7.629c-0.076,2.779-0.02,5.563,0.15,7.661c0.16,2.094,0.441,3.511,0.512,3.482
						c-0.07,0.013,0.271-1.38,0.551-3.454c0.297-2.077,0.541-4.851,0.627-7.64c0.08-2.785-0.016-5.581-0.25-7.679
						c-0.107-1.049-0.262-1.925-0.396-2.534C195.746,251.624,195.605,251.291,195.605,251.291z"/>
				</g>
				<g>
					<path style="fill:#74A7AF;" d="M199.441,253.594c0,0-0.303,0.996-0.501,2.486c-0.216,1.491-0.375,3.449-0.54,5.378
						c-0.146,1.929-0.336,3.819-0.66,5.204c-0.111,0.327-0.156,0.672-0.262,0.934c-0.113,0.264-0.176,0.531-0.279,0.714
						c-0.197,0.397-0.311,0.623-0.311,0.623s0.218-0.125,0.596-0.393c0.361-0.289,0.826-0.783,1.24-1.469
						c0.393-0.688,0.769-1.547,1.006-2.486c0.277-0.942,0.398-1.962,0.515-2.975c0.153-2.033,0-4.052-0.247-5.539
						C199.758,254.581,199.441,253.594,199.441,253.594z"/>
				</g>
				<g>
					<g>
						<path d="M167.357,100.518c-2.881,1.028-5.145-3.088-2.263-4.528l0,0c-2.472-0.823-3.294-4.733-1.03-6.174
							c-2.676-1.44-2.264-4.939-0.205-6.585c-1.853-1.646-2.471-5.145,0.205-5.762c-1.646-2.059-0.617-5.558,2.264-5.558
							c0.205-2.469,0.824-7.819,4.732-4.939c-1.234-3.087,4.529-6.173,6.587-3.909c0.823-2.264,5.968-4.939,6.997-1.646
							c1.029-2.47,5.352-2.676,6.175,0.205c1.853-1.441,6.173-2.881,6.79,0.824c2.061-2.265,5.969-0.412,5.557,2.47
							c2.47-1.03,8.027,0.823,4.734,3.91c2.674,0,4.115,3.499,2.47,5.351c2.263,0.823,3.704,4.527,1.028,5.969
							c2.057,0.822,1.854,3.909,0.207,5.144c2.881,0.206,0.822,4.116-0.619,5.146c4.117,4.321-6.997,6.174-8.643,6.996
							c-2.264,1.03-2.882,3.705-4.116,6.175c-1.646,2.675-4.939,4.939-5.968,8.026c-0.206,0-19.964-2.911-20.168-2.911
							L167.357,100.518z"/>
					</g>
					<path style="fill:#B7875C;" d="M210.838,93.534c0-4.773-0.1-7.434,0-10.237c0.084-2.416-0.553-5.652-3.008-7.008
						c-1.85-1.021-3.887-0.239-5.727,0.283c-7.032,1.996-14.987,2.479-21.958,0.004c-1.952-0.692-5.625-2.989-6.921-0.573
						c-1.218,2.263-0.427,5.144-0.26,7.569c0.276,4.178,0.843,15.495,0.936,16.963c0.065,0.942-0.459,4.556-1.978,2.809
						c-0.555-0.637-0.424-1.604-0.892-2.304c0,0-7.659-3.279-7.292,5.555c0.301,7.19,9.775,6.872,9.775,6.872
						s0.068,4.936,11.872,11.399c0,0,0.392,8.411-1.234,10.054c0,0,4.926,8.9,10.935,5.422l3.244-4.728c0,0-1.702,0.159-1.702-1.471
						c0-1.633,0.233-7.961,0.233-7.961s13.133-0.496,13.984-9.942C211.697,106.795,210.838,93.534,210.838,93.534z"/>
					<g>
						<path style="fill:#B7875C;" d="M196.666,97.859c0,2.996,1.998,5.193,3.195,7.789c0.799,2.197,0.799,2.796-1.598,3.395
							c-1.197,0.399-3.795,0.6-4.791-0.399"/>
						<path style="fill:#8E5346;" d="M196.666,97.859c0.105,0.709,0.269,1.39,0.544,2.029c0.258,0.644,0.591,1.25,0.941,1.852
							c0.712,1.196,1.531,2.368,2.159,3.701l0.006,0.014l0.009,0.024c0.141,0.374,0.279,0.753,0.381,1.17
							c0.089,0.409,0.215,0.889,0.006,1.462c-0.238,0.585-0.758,0.833-1.144,0.991c-0.411,0.158-0.807,0.259-1.205,0.34l0.03-0.009
							c-0.878,0.23-1.736,0.272-2.599,0.195c-0.429-0.044-0.855-0.138-1.263-0.284c-0.404-0.144-0.801-0.365-1.06-0.702
							c0.342,0.247,0.738,0.358,1.132,0.425c0.398,0.062,0.803,0.058,1.204,0.037c0.797-0.051,1.614-0.191,2.324-0.454l-0.009,0.003
							l0.04-0.012c0.366-0.113,0.731-0.224,1.048-0.373c0.323-0.147,0.547-0.338,0.603-0.509c0.074-0.179,0.031-0.521-0.065-0.865
							c-0.098-0.347-0.225-0.712-0.352-1.079l0.016,0.038c-0.563-1.247-1.324-2.448-1.924-3.77
							C196.875,100.783,196.471,99.29,196.666,97.859z"/>
					</g>
					<g>
						<g>
							<path d="M179.209,87.112c1.06-3.381,4.795-5.273,8.178-4.211L179.209,87.112z"/>
						</g>
					</g>
					<g>
						<g>
							<path d="M201.979,83.532c2.552-0.803,5.461,0.466,6.246,3.471L201.979,83.532z"/>
						</g>
					</g>
					<g>
						<g>
							<path style="fill:#8E5346;" d="M188.361,113.097c0.612,0.501,1.232,0.938,1.919,1.277c0.343,0.189,0.669,0.333,1.02,0.486
								c0.346,0.148,0.704,0.27,1.059,0.398l-0.029-0.01l0.669,0.199c0.218,0.065,0.389,0.096,0.621,0.145
								c0.457,0.102,0.847,0.146,1.319,0.204l-0.039-0.004c0.442,0.021,0.866,0.051,1.27,0.026c0.472-0.018,0.794-0.064,1.243-0.153
								c0.387-0.082,0.805-0.217,1.183-0.366c0.382-0.16,0.749-0.354,1.071-0.601l0.045-0.034l-0.024,0.016
								c0.245-0.163,0.475-0.366,0.685-0.603l0.022-0.025l-0.009,0.008c0.319-0.28,0.526-0.7,0.777-1.095
								c-0.1,0.449-0.211,0.912-0.497,1.334l0.012-0.016c-0.158,0.306-0.364,0.603-0.635,0.848l0.021-0.018
								c-0.325,0.363-0.717,0.648-1.13,0.877c-0.42,0.237-0.838,0.415-1.312,0.549c-0.412,0.125-0.967,0.236-1.383,0.247
								c-0.481,0.038-0.946,0.026-1.39,0.001l-0.023-0.001l-0.016-0.003c-0.438-0.062-0.958-0.141-1.395-0.251
								c-0.216-0.046-0.49-0.128-0.707-0.211l-0.635-0.242l-0.053-0.021l0.024,0.01c-0.37-0.155-0.725-0.345-1.075-0.544
								c-0.344-0.194-0.697-0.433-0.999-0.678C189.334,114.365,188.778,113.761,188.361,113.097z"/>
						</g>
					</g>
					<g>
						<path d="M201.043,99.371c0,1.094,0.686,1.979,1.533,1.979c0.84,0,1.52-0.886,1.52-1.979c0-1.093-0.68-1.979-1.52-1.979
							C201.729,97.391,201.043,98.277,201.043,99.371z"/>
					</g>
					<g>
						<path d="M183.137,99.371c0,1.094,0.684,1.979,1.527,1.979c0.842,0,1.521-0.886,1.521-1.979c0-1.093-0.68-1.979-1.521-1.979
							C183.82,97.391,183.137,98.277,183.137,99.371z"/>
					</g>
				</g>
				<path style="fill:#47301A;" d="M163.635,244.685v5.277c0,0,36.2,5.334,57.297-0.658l0.178-6.513
					C221.109,242.792,200.557,248.769,163.635,244.685z"/>
				<path style="fill:#BCB0A7;" d="M174.1,253.291c-0.074-0.326,0-10.499,0-10.499l2.417,1.813v9.537L174.1,253.291z"/>
				<path style="fill:#4C4844;" d="M232.892,171.275c-4.766-9.479-8.61-13.807-13.563-23.184c-1.428-2.707-2.676-5.232-5.395-6.858
					c-2.59-1.554-6.138-3.449-9.257-3.296c-0.503-0.222-0.997-0.455-1.466-0.716c-12.146,8.729-16.42-2.242-22.842-1.687
					c-0.82-0.02,0.168-0.185-0.82-0.02c-5.42,0.933-11.22,4.105-13.772,5.782c-3.69,1.818-5.359,3.511-5.359,3.511l-0.511,4.751
					c0,0,0.396,5.745,0.878,13.445c0.125,13.64,0.246,32.781,0.018,38.431c-0.1,2.343,0.505,6.193,1.369,10.679
					c-0.193,13.432-0.264,39.17-0.264,39.176c0.158,2.231,51.621,6.132,60.715-2.824c1.076-1.059-0.061-10.076-0.146-11.602
					c-0.365-6.456-0.73-12.909-1.096-19.365c-0.664-11.769-1.328-23.532-1.994-35.302c-0.033-0.634-0.068-1.271-0.107-1.905
					l-0.031-0.784c0.08,1.614,0.459-1.832,0.309-0.448c-0.029,0.261,2.252-0.36,3.531-0.888
					C223.088,178.173,229.292,176.387,232.892,171.275z"/>
				<g>
					<g>
						<path style="fill:#B7875C;" d="M171.863,147.267c-3.623,11.952-7.504,40.957-8.229,51.459
							c-0.362,6.158,4.921,38.99,9.89,56.716l0,0c0,3.195-0.951,5.12-6.551,5.12c-4.627-7.599-17.946-57.324-15.71-64.268
							c0.75-2.315,3.153-26.306,6.775-38.624c1.812-6.518,3.621-14.351,11.588-14.351L171.863,147.267z"/>
					</g>
					<path style="fill:#66625F;" d="M158.643,147.243c1.732-3.082,4.016-6.064,7.846-6.754c11.286-2.031,6.875,24.896,3.777,30.786
						c0,0-8.674,4.199-17.75-6.147l0,0C154.676,159.825,155.625,152.623,158.643,147.243z"/>
				</g>
				<g>
					<polygon style="fill:#66625F;" points="192.537,140.301 183.46,131.976 176.248,135.535 185.096,146.664 					"/>
				</g>
				<g>
					<defs>
						<polygon id="SVGID_1_" points="192.537,140.301 183.46,131.976 176.248,135.535 185.096,146.664 						"/>
					</defs>
					<clipPath id="SVGID_00000049182388862443249280000007035701255915079057_">
						<use xlink:href="#SVGID_1_"  style="overflow:visible;"/>
					</clipPath>
					<g style="clip-path:url(#SVGID_00000049182388862443249280000007035701255915079057_);">
						<g>
							<g>
								<path style="fill:#F5F5F5;" d="M177.686,133.32c3.361,4.962,7.34,9.432,11.258,13.952c0.101,0.116,0.557,0.071,0.485-0.011
									c-3.918-4.521-7.897-8.99-11.258-13.952C178.086,133.184,177.616,133.217,177.686,133.32L177.686,133.32z"/>
							</g>
						</g>
						<g>
							<g>
								<path style="fill:#F5F5F5;" d="M176.026,134.093c4.554,4.445,7.853,10.136,12.113,14.859
									c0.089,0.098,0.565,0.145,0.443,0.01c-4.261-4.723-7.559-10.413-12.113-14.859
									C176.375,134.011,175.901,133.971,176.026,134.093L176.026,134.093z"/>
							</g>
						</g>
					</g>
				</g>
				<g>
					<polygon style="fill:#66625F;" points="208.214,137.964 199.848,132.895 192.537,140.301 200.379,147.267 					"/>
				</g>
				<g>
					<defs>
						<polygon id="SVGID_00000000941712543514504010000000617474113655007895_" points="208.214,137.964 199.848,132.895 
							192.537,140.301 200.379,147.267 						"/>
					</defs>
					<clipPath id="SVGID_00000010305273254872453920000016268475022028286399_">
						<use xlink:href="#SVGID_00000000941712543514504010000000617474113655007895_"  style="overflow:visible;"/>
					</clipPath>
					<g style="clip-path:url(#SVGID_00000010305273254872453920000016268475022028286399_);">
						<g>
							<g>
								<path style="fill:#F5F5F5;" d="M207.943,133.268c-3.361,4.962-7.34,9.431-11.258,13.952c-0.087,0.1,0.377,0.208,0.476,0.095
									c3.918-4.52,7.897-8.99,11.258-13.952C208.5,133.241,208.024,133.148,207.943,133.268L207.943,133.268z"/>
							</g>
						</g>
						<g>
							<g>
								<path style="fill:#F5F5F5;" d="M209.634,134.012c-4.554,4.445-7.852,10.136-12.113,14.859
									c-0.1,0.111,0.358,0.278,0.454,0.172c4.261-4.723,7.559-10.414,12.113-14.859
									C210.19,134.085,209.739,133.91,209.634,134.012L209.634,134.012z"/>
							</g>
						</g>
					</g>
				</g>
				<path style="fill:#302D2B;" d="M222.42,168.528c0,0-0.467,0.079-0.959,0.331c-0.424,0.214-0.877,0.553-1.266,0.955
					c-0.084-4-0.297-7.997-0.58-10.999c-0.129-1.508-0.313-2.766-0.406-3.65c-0.111-0.883-0.197-1.385-0.197-1.385
					s-0.074,0.502-0.154,1.385c-0.061,0.884-0.205,2.143-0.283,3.65c-0.178,3.021-0.262,7.05-0.201,11.079
					c0.076,4.025,0.295,8.053,0.578,11.074c0.123,1.508,0.313,2.77,0.404,3.647c0.113,0.885,0.203,1.386,0.203,1.386
					s0.07-0.501,0.15-1.386c0.063-0.877,0.213-2.139,0.285-3.647c0.145-2.442,0.225-5.541,0.219-8.768
					c0.424-0.257,0.852-0.622,1.211-1.052c0.424-0.518,0.734-1.126,0.871-1.66C222.449,168.971,222.42,168.528,222.42,168.528z"/>
			</g>
			<g>
				<path style="fill:#F5F5F5;" d="M206.826,157.016c1.046-0.363,1.133,0.581,0.785,1.089c0.957-0.073,0.436,0.727,0.174,1.162
					c0.523,0.29,0.436,0.871,0,1.234c0.697-0.726,0.958,0.799,0.958,1.234c0.958,0.218,1.393-0.363,2.178-0.29
					c-0.436-0.363-0.175-0.871,0.434-0.944c-0.521-0.508-0.521-2.251,0-2.614c0.088,0.218,0.088,0.218,0.088,0.363
					c-0.436-0.436-0.521-1.598,0.35-1.162c1.131-0.653,0.521,1.235,0.348,1.598c0.521,0.146,0.609,0.653,0.521,1.089
					c-0.086,0.363-0.348,0.944-0.521,0.799c0.349,0.943-1.654,2.832-2.787,1.814c-1.655,1.743-2.874-1.67-2.003-1.888
					c-0.609,0.654-1.393-0.581-0.783-1.089c-0.435-0.218-0.523-0.871-0.088-1.089c-0.609-0.073-0.348-0.872,0.262-1.017
					L206.826,157.016z"/>
			</g>
			<g>
				<path style="fill:#F5F5F5;" d="M209.598,159.909c-0.089-0.003-0.18-0.032-0.273-0.092c-0.736-0.478-0.461-2.702,0.708-2.343
					C210.973,157.764,210.409,159.933,209.598,159.909z"/>
			</g>
			<g>
				<g>
					<g>
						<g>
							<g>
								<g>
									<g>
										<path style="fill:#E8BBAC;" d="M97.908,436.973c-4.696-3.396-14.743-7.762-15.434-10.933
											c-0.613-2.828,39.695-172.604,39.695-172.604l-25.455-9.114l-6.332,36.403c0,0-3.481,50.396-6.14,59.963
											c-2.659,9.563-12.109,70.139-13.396,87.349l-0.184,1.905C78.941,434.383,88.777,437.526,97.908,436.973z"/>
									</g>
									<g>
										<path style="fill:#380E16;" d="M97.908,436.973c-9.131,0.553-18.967-2.59-27.244-7.03l-0.625,7.012
											c0,0,34.07,9.929,37.076,6.293C107.115,443.248,108.544,442.444,97.908,436.973z"/>
									</g>
								</g>
								<g>
									<g>
										<path style="fill:#E8BBAC;" d="M158.518,434.401c-4.996-2.913-11.954-6.652-14.62-8.519
											c-5.743-4.02,11.363-168.558,11.363-168.558l-25.978-3.446l0.67,29.33c0,0,1.727,58.658,0,68.439
											c-1.732,9.771,0.386,59.224,0.764,76.485v1.916C139.386,433.675,149.486,435.837,158.518,434.401z"/>
									</g>
									<g>
										<path style="fill:#380E16;" d="M158.518,434.401c-9.031,1.436-19.132-0.726-27.801-4.353v5.558
											c0,0,30.818,8.526,37.715,4.499C168.432,440.105,169.963,438.602,158.518,434.401z"/>
									</g>
								</g>
							</g>
							<path style="fill:#7C4A3E;" d="M143.214,200.15l-0.398,17.695c0,0,1.243,11.025,3.837,18.765
								c2.588,7.738-15.032,16.028-17.004,16.044c-1.975,0.012-24.463-6.939-24.463-6.939l-8.633-13.17l2.264-8.639l-0.311-4.184
								c0,0-1.926-9.607-0.406-15.113C99.616,199.102,143.214,200.15,143.214,200.15z"/>
							<g>
								<path style="fill:#3F4356;" d="M88.256,256.062c1.914-21.562,6.582-29.895,8.094-32.081c0.23-1.108,0.729-2.93,1.693-4.039
									c29.188,5.61,39.945,0.177,44.55-2.014c1.205,1.905,2.395,3.171,2.858,4.462c0,0,9.522,20.163,10.263,33.872
									c0.743,13.706-2.117,48.786-4.612,84.552l-5.796,79.278c0,0-7.7,1.918-15.727,0.242c-0.387-9.065-1.794-25.052-1.679-36.859
									c0.088-8.853,1.019-37.057,1.069-40.569c0.223-15.417-6.534-64.421-7.041-71.858c-0.069-1.024,1.547-1.322,2.36-1.998
									c-0.001,0.001-6.84,5.689-6.84,5.69c-5.447,28.12-10.287,56.109-17.279,83.826c-4.571,18.112-9.141,36.228-13.71,54.34
									c-0.034,0.138-1.535,6.489-1.622,6.485c0,0-5.119,2.959-14.438-0.439c0,0,0.234-39.586,13.365-92.106
									C83.766,326.844,86.348,277.556,88.256,256.062z"/>
								<g>
									<path style="fill:#252830;" d="M143.908,221.306c-3.585,1.861-7.477,3.12-11.441,3.959
										c-3.969,0.843-8.023,1.213-12.07,1.354c-4.05,0.06-8.102-0.111-12.119-0.566c-2.008-0.235-4.008-0.518-6-0.85
										c-1.986-0.366-3.968-0.743-5.929-1.221c3.999,0.529,7.994,1.01,12,1.304c4.004,0.295,8.018,0.471,12.023,0.334
										c4.007-0.056,8.003-0.436,11.95-1.107c1.975-0.33,3.934-0.765,5.865-1.305
										C140.129,222.696,142.029,222.039,143.908,221.306z"/>
								</g>
								<g>
									<path style="fill:#252830;" d="M126.422,226.278l0.415,3.923l0.356,3.929c0.223,2.624,0.321,5.265,0.242,7.915
										c-0.106,2.643-0.384,5.313-1.152,7.878c-0.388,1.277-0.878,2.531-1.534,3.696c-0.681,1.147-1.495,2.226-2.505,3.077
										c1.714-2.011,2.715-4.461,3.296-6.97c0.57-2.522,0.814-5.115,0.896-7.716c0.103-2.603,0.032-5.218-0.008-7.841
										C126.38,231.546,126.284,228.912,126.422,226.278z"/>
								</g>
								<g>
									<path style="fill:#252830;" d="M123.83,226.993c-0.121,1.84-0.23,3.671-0.266,5.509c-0.067,1.835-0.1,3.671-0.115,5.509
										c-0.034,3.676-0.101,7.36-0.358,11.048c-0.135,1.84-0.33,3.689-0.591,5.512c-0.237,1.794-0.339,3.625-0.428,5.451
										c-0.138,3.657-0.025,7.342-0.144,11.025l-0.42-5.508c-0.105-1.838-0.187-3.681-0.205-5.53
										c-0.023-1.853,0.073-3.698,0.258-5.56c0.231-1.822,0.415-3.634,0.533-5.464c0.279-3.651,0.372-7.325,0.589-11.001
										C122.887,234.311,123.162,230.618,123.83,226.993z"/>
								</g>
								<g>
									<path style="fill:#252830;" d="M130.588,264.974c-1.155,0.762-2.275,1.531-3.361,2.334
										c-1.08,0.812-2.121,1.663-3.147,2.554c-1.038,0.875-2.071,1.779-3.17,2.61c-1.088,0.844-2.246,1.605-3.46,2.266
										c1.973-1.936,3.902-3.819,5.982-5.637c1.053-0.888,2.162-1.738,3.365-2.44C127.989,265.946,129.27,265.385,130.588,264.974
										z"/>
								</g>
								<g>
									<path style="fill:#252830;" d="M101.965,225.873c-0.246,3.23-1.473,6.378-3.3,9.087c-1.84,2.688-4.389,5.006-7.428,6.162
										c2.642-1.853,4.838-4.126,6.603-6.726C99.618,231.803,100.947,228.931,101.965,225.873z"/>
								</g>
								<g>
									<path style="fill:#252830;" d="M151.223,236.768c-0.787,0.276-1.664,0.108-2.457-0.11
										c-0.798-0.249-1.553-0.615-2.262-1.049c-1.423-0.865-2.666-1.991-3.75-3.243c-1.069-1.267-1.976-2.676-2.623-4.201
										c-0.659-1.517-1.039-3.158-1.064-4.789c0.836,3.145,2.398,5.941,4.447,8.341c1.017,1.204,2.164,2.3,3.423,3.247
										c0.635,0.465,1.295,0.9,2.005,1.239C149.644,236.557,150.408,236.816,151.223,236.768z"/>
								</g>
								<g>
									<path style="fill:#243842;" d="M145.244,417.523c-2.086,0.77-4.307,1.074-6.521,1.101
										c-2.211-0.004-4.453-0.291-6.519-1.123c2.217,0.053,4.355,0.146,6.515,0.123
										C140.878,417.629,143.025,417.516,145.244,417.523z"/>
								</g>
								<g>
									<path style="fill:#252830;" d="M100.44,343.572c-1.192,1.824-2.754,3.356-4.443,4.704
										c-1.708,1.324-3.564,2.478-5.615,3.216c1.647-1.421,3.339-2.681,4.997-4.001C97.057,346.193,98.68,344.848,100.44,343.572z
										"/>
								</g>
								<g>
									<path style="fill:#243842;" d="M84.243,417.361c-0.918,0.228-1.835,0.371-2.767,0.453c-0.93,0.087-1.876,0.089-2.827-0.01
										c-0.947-0.117-1.895-0.346-2.769-0.741c-0.876-0.387-1.681-0.916-2.354-1.582c0.894,0.313,1.749,0.618,2.614,0.847
										c0.866,0.224,1.735,0.391,2.623,0.483C80.535,417.029,82.384,417.005,84.243,417.361z"/>
								</g>
							</g>
						</g>
						<g>
							<g>
								<path style="fill:#8E5346;" d="M133.976,124.887c0.011,0.033,0.007,0.071,0.011,0.109c0.014,0.054,0.025,0.098,0.033,0.161
									L133.976,124.887z"/>
							</g>
						</g>
						<g>
							<g>
								<path style="fill:#BFA640;" d="M135.798,90.388c-0.226-0.103-2.148,0.074-2.368-0.033c-4.238-2.072-8.459-3.929-13.062-5.08
									c-4.979-1.244-10.704-1.742-15.185,0.249c-5.975,2.738-12.945,8.574-16.18,14.299c-5.229,9.21-5.193,19.493-5.193,29.948
									c0,11.201,2.952,23.957-4.516,32.919c-4.479,5.475-8.215,10.205-8.96,17.423c-0.748,6.722,1.245,13.692,5.476,19.167
									c8.712,11.202,25.639,18.174,39.828,14.936c11.947-2.489,21.407-13.939,23.647-25.888
									c1.992-10.206-0.996-20.411,1.494-30.617c2.489-10.703,5.229-21.158,5.725-32.358c0.293-6.627,1.752-15.753,0.775-22.358
									C146.082,94.893,142.924,93.607,135.798,90.388z"/>
							</g>
							<g>
								<g>
									<path style="fill:#FFC9BB;" d="M101.503,120.687c5.007-0.22,9.342-4.144,12.938-7.258
										c3.545-3.067,5.181-7.466,5.731-11.934c3.904,2.701,8.026,1.217,12.228,2.241c11.712,2.863,8.717,19.664,9.091,27.996
										c0.237,5.189-1.216,11.891-6.172,14.958c-2.601,1.652-8.118,3.021-8.94,3.44c-1.941,0.987-1.643,6.383-0.51,8.575
										c0.6,1.163,6.745,0.866,7.39,1.911c2.353,3.823-5.931,14.074-9.233,15.728c-8.262,4.25-18.716-5.906-18.95-15.346
										c4.488-1.182,9.011-0.927,10.427-5.65c0.477-1.888,1.541-5.915,0.215-7.281c-0.461-0.475-0.461-0.475-4.258-3.642
										c-4.565-3.811-7.207-8.744-7.207-8.744c-1.369,0-4.512,0.219-6.303-2.399c-3.285-4.811-2.016-7.572,4.127-7.333
										C101.968,125.94,101.555,121.188,101.503,120.687z"/>
								</g>
							</g>
							<g>
								<g>
									<path style="fill:#141210;" d="M131.152,125.207c0.012,1.255,0.713,2.295,1.555,2.317c0.852,0.024,1.531-0.983,1.52-2.25
										c-0.02-1.262-0.719-2.3-1.568-2.322C131.813,122.934,131.141,123.947,131.152,125.207z"/>
								</g>
							</g>
							<g>
								<g>
									<path style="fill:#141210;" d="M113.117,124.772c0.016,1.263,0.711,2.304,1.561,2.329c0.852,0.023,1.527-0.989,1.514-2.251
										c-0.016-1.261-0.715-2.3-1.561-2.332C113.779,122.511,113.105,123.516,113.117,124.772z"/>
								</g>
							</g>
							<g>
								<g>
									<path style="fill:#D39B8C;" d="M128.244,126.407c0.241,0.889,0.433,1.799,0.85,2.391c0.225,0.283,0.424,0.438,0.792,0.569
										c0.093,0.033,0.194,0.075,0.313,0.128c0.067,0.031,0.107,0.048,0.21,0.105l0.146,0.085c0.215,0.129,0.46,0.299,0.654,0.489
										c0.382,0.387,0.769,0.992,0.671,1.724c-0.12,0.727-0.678,1.213-1.188,1.391c-1.044,0.38-2.042,0.148-2.864-0.274
										c0.918-0.093,1.814-0.237,2.41-0.633c0.287-0.207,0.439-0.439,0.419-0.624c0.008-0.179-0.111-0.43-0.359-0.657
										c-0.122-0.128-0.243-0.223-0.405-0.333l-0.142-0.091l-0.089-0.048l-0.298-0.151c-0.454-0.225-0.974-0.682-1.16-1.203
										C127.804,128.248,127.966,127.291,128.244,126.407z"/>
								</g>
								<g>
									<path style="fill:#6D643E;" d="M138.152,113.543c-0.367-0.303-0.733-0.415-1.109-0.551
										c-0.379-0.118-0.758-0.236-1.149-0.329c-0.386-0.11-0.78-0.197-1.18-0.301l-1.271-0.288
										c0.374-0.313,0.855-0.444,1.317-0.491c0.468-0.051,0.935,0.004,1.39,0.114c0.448,0.128,0.891,0.314,1.273,0.616
										C137.793,112.598,138.163,113.04,138.152,113.543z"/>
								</g>
								<g>
									<path style="fill:#6D643E;" d="M117.666,112.256c-0.528,0.107-0.979,0.259-1.446,0.398c-0.46,0.15-0.92,0.286-1.374,0.442
										c-0.923,0.298-1.8,0.569-2.795,0.945c0.225-0.503,0.633-0.892,1.067-1.196c0.436-0.313,0.923-0.529,1.422-0.7
										c0.505-0.152,1.028-0.259,1.564-0.26C116.63,111.881,117.202,111.95,117.666,112.256z"/>
								</g>
								<path style="fill:#FFFFFF;" d="M130.623,137.05c0,0-0.36,0.277-0.895,0.659c0.191-0.115,0.357-0.233,0.479-0.336
									C130.471,137.167,130.623,137.05,130.623,137.05s-0.046,0.18-0.168,0.51c-0.053,0.164-0.141,0.358-0.281,0.553
									c-0.129,0.209-0.285,0.449-0.516,0.648c-0.414,0.467-1.072,0.838-1.814,1.084c-0.371,0.099-0.764,0.216-1.168,0.227
									c-0.406,0.046-0.813,0.013-1.221-0.006c-0.107,0-0.233-0.03-0.376-0.079c-0.272-0.047-0.542-0.084-0.8-0.163
									c-0.387-0.078-0.732-0.267-1.076-0.396c-0.668-0.324-1.254-0.692-1.684-1.1c-0.443-0.368-0.769-0.788-0.945-1.052
									c-0.172-0.287-0.266-0.456-0.266-0.456L130.623,137.05z"/>
							</g>
							<g>
								<g>
									<path d="M138.128,91.447c-8.035,0-19.088,0.726-26.444,4.279c-7.525,3.636-12.141,9.441-14.967,17.129
										c-1.129,3.071-2.674,7.539-3.383,12.574c-1.328-5.446-0.97-16.053,2.326-23.183c1.939-4.202,5.885-8.314,9.67-10.953
										c3.489-2.431,7.979-3.615,12.059-4.012c2.139-0.208,4.408-0.171,6.582-0.202C130.623,86.987,135.208,90.378,138.128,91.447
										z"/>
								</g>
							</g>
						</g>
						<g>
							<g>
								<g>
									<path style="fill:#CC6695;" d="M149.683,169.676c-1.575-2.864-3.792-6.546-6.287-7.733
										c-1.797-0.898-5.092-1.178-7.038-0.128l3.137,12.67c2.734-0.414,5.652-1.633,7.846-2.934
										C148.248,171.062,149,170.421,149.683,169.676z"/>
								</g>
								<path d="M149.683,169.676c-0.683,0.745-1.435,1.386-2.343,1.874c-2.193,1.301-5.111,2.52-7.846,2.934l0.906,3.655
									c4.644-1.347,8.133-2.102,10.38-6.445C150.463,171.116,150.094,170.422,149.683,169.676z"/>
							</g>
							<path style="fill:#E1A2BB;" d="M144.669,211.112c-1.251-3.514-0.935-10.345-0.935-10.345
								c0.574-1.297,4.072-3.962,1.229-13.551c-0.467-1.575-0.874-3.328-1.229-5.163c-1.807-9.347-2.243-20.76-2.243-20.76
								l-3.509-0.495l-2.544-0.358l-2.804-0.395c0.044,10.074-6.409,12.443-14.387,10.71c-6.547-1.422-7.729-8.776-7.938-11.891
								l-2.344,0.221l-4.773,0.452c0.428,1.468,0.689,3.09,0.88,4.501c-0.19-1.411-0.452-3.034-0.88-4.501
								c-1.574,0.15-3.104,0.011-4.633,0.492c-0.34,0.106-4.143,0.899-4.197,1.167c0,0.002-1.723,14.366-0.605,19.599
								c0.464,2.163,1.182,9.563,1.926,17.681c0.641,6.963-0.258,13.983-1.459,20.843c28.115,8.528,48.516,0.528,53.055-1.522
								C146.996,216.803,144.969,211.962,144.669,211.112z"/>
							<path d="M118.248,170.756c7.978,1.733,14.431-0.637,14.387-10.71l-2.986-0.419c0,0,2.023,7.763-7.309,8.092
								c0,0,0,0-0.002,0.002c0-0.002,0-0.002-0.004-0.002c-0.174,0.002-0.344,0.018-0.527,0.018c-8.467,0.036-8.957-9.11-8.957-9.11
								l-2.539,0.239C110.519,161.98,111.701,169.334,118.248,170.756z"/>
							<path style="fill:#FFC9BB;" d="M97.15,161.262c8.738-1.037,6.361,10.513,8.07,22.179c1.877,12.819,6.301,28.057,7.557,32.245
								c1.18-1.041,2.477-2.093,4.316-3.674c6.637-5.7,13.333-11.339,20.041-16.954c1.76-4.886,7.018-12.825,9.69-15.194
								c1.81-1.541,2.57-1.754,4.878-2.607c2.001-0.651,8.307-0.308,8.135,0.877c-2.055,1.654-6.199,0.373-9.418,1.938
								c2.789-0.326,10.166-0.498,10.382,0.834c0.245,1.794-8.237,0.411-10.8,1.96c1.824-0.048,3.686,0.233,5.581,0.09
								c1.493-0.009,5.257-0.136,5.077,0.654c0.535,2.357-10.441,1.258-10.768,2.661c1.736,0.621,4.361,0.251,6.256,0.111
								c1.406-0.083,3.751,0.215,2.656,1.12c-2.066,1.077-2.607,0.792-4.233,1.148c-1.3,0.357-2.157,0.724-3.027,1.063
								c-1.631,2.605-4.372,7.786-6.353,9.477c-1.418,1.382-2.277,0.595-3.906,0.947c-1.172,0.252-3.719,5.017-4.424,5.938
								c-3.407,4.463-6.925,8.852-10.615,13.09c-3.74,4.29-6.441,6.28-10.938,9.799c-2.198,1.721-6.622,3.18-8.794,2.371
								l-0.002,0.01c-1.568,0-3.155-4.36-3.908-6.131c-1.25-2.93-7.188-14.608-10.588-53.415
								C92.016,171.797,90.867,162.008,97.15,161.262z"/>
							<g>
								<path d="M97.353,179.129c-2.674,0.485-5.091,0.58-7.702,0.409c0.116,1.205,0.357,2.559,0.621,2.628
									c4.744,1.239,16.916-3.448,16.916-3.448c-0.167-1.12-0.314-2.231-0.469-3.338c-0.945,0.602-1.891,1.078-2.969,1.549
									C101.686,177.823,99.623,178.717,97.353,179.129z"/>
								<path style="fill:#E1A2BB;" d="M97.973,160.77c-9.146-1.031-8.184,11.278-8.39,17.19c-0.024,0.336,0.004,0.936,0.067,1.578
									c2.611,0.171,5.028,0.077,7.702-0.409c2.27-0.412,4.333-1.306,6.397-2.2c1.078-0.471,2.024-0.948,2.969-1.549
									c-0.359-2.565-0.757-5.097-1.527-7.596C104.16,164.552,101.48,161.184,97.973,160.77z"/>
							</g>
							<g>
								<g>
									<path style="fill:#D39B8C;" d="M113.043,215.333c-0.68,1.149-1.564,1.986-2.484,2.786c-0.474,0.382-0.952,0.759-1.475,1.09
										c-0.518,0.336-1.063,0.649-1.697,0.874c0.541-1.22,1.394-2.147,2.337-2.96C110.692,216.34,111.751,215.66,113.043,215.333z
										"/>
								</g>
							</g>
						</g>
					</g>
				</g>
			</g>
			<g>
				<g>
					<g>
						<path style="fill:#D39484;" d="M254.581,180.914c-2.277-1.025-5.334-2.347-7.335-3.853c0.092-1.354,6.673,1.176,9.238,1.723
							c-2.184-0.643-6.335-2.84-8.058-4.817c0.273-1.121,6.49,0.933,8.871,2.341c-2.471-1.777-5.248-2.508-6.683-4.958
							c-2.076-2.287,12.242,3.697,16.242,6.694c-1.998-1.503-2.396-3.018-3.26-4.813c0.369-2.039,5.787,4.287,12.395,9.368
							c0,0,5.576,2.816,11.869,5.919l8.422,4.071l10.248,4.643l5.494-5.427c2.141-2.177,4.939-5.054,7.889-8.165l0,0
							c7.262-7.66,20.211-17.602,21.525-20.99c2.445-6.311,2.238,15.557,2.238,15.557c-5.826,6.562-16.959,16.356-23.271,22.459
							c-2.4,2.313-8.211,8.384-11.984,10.9l-0.002-0.004c-0.014,0.011-0.025,0.02-0.039,0.03c-0.184,0.123-0.369,0.245-0.543,0.35
							l0.521-0.331c-0.184,0.135-0.41,0.278-0.711,0.451l-0.018-0.141c-3.897,1.509-6.475-1.559-8.953-2.813
							c-10.166-5.154-16.928-13.002-25.572-20.372c-0.756-0.131-1.521-0.234-2.34-0.262c-2.859-0.116-19.501-5.2-24.164-9.232
							C248.958,179.031,252.395,180.268,254.581,180.914z"/>
					</g>
					<g>
						<path style="fill:#A04C4A;" d="M351.803,160.285c0,0-10.02-0.848-11.023-0.383c-1.002,0.465-17.494,16.391-17.494,16.391
							s4.189,10.167,12.264,14.449c0,0,10.283-8.641,16.254-16.822C352.241,173.32,351.803,160.285,351.803,160.285z"/>
					</g>
				</g>
				<g>
					<path style="fill:#492A2A;" d="M361.378,147.463c0,0,9.627-0.665,17.941,0l1.814,9.749l-23.598-0.68L361.378,147.463z"/>
					<g>
						<g>
							<path style="fill:#A86331;" d="M354.749,130.7c2.359,4.245,5.535,8.14,9.699,10.715c2.346,1.449,7.992-1.516,10.648-1.718
								c1.91-0.145,3.603-0.522,5.172-1.184c3.063-1.289,5.605-1.321,7.73-4.068c1.025-1.324,2.859-1.635,3.99-2.928
								c1.225-1.398,0.912-3.314,1.527-4.951c0.654-1.737,2.098-2.949,2.996-4.545c1.631-2.903,1.584-6.351,1.75-9.588
								c0.135-2.581,1.272-2.112,2.328-4.136c1.229-2.355-0.938-4.428-1.973-6.358c-1.326-2.471-0.279-4.053-0.68-6.57
								c-0.803-5.062-4.691-10.99-9.291-13.33c-4.766-2.425-9.918-2.672-15.125-3.057c-5.816-0.431-11.449,1.684-17.33,0.408
								c-1.768-0.383-3.57-0.769-5.367-0.577c-2.771,0.296-5.197,1.918-7.498,3.493c-0.969,0.663-1.992,1.395-2.398,2.495
								c-0.406,1.101,0.184,2.631,1.355,2.717c-1.996-0.245-4.033,1.353-4.272,3.349c-0.236,1.995,1.367,4.027,3.365,4.258
								c-1.549,0.768-1.875,2.866-1,4.254c0.406,0.644,0.988,1.154,1.531,1.687c0.135,0.135,0.273,0.277,0.336,0.458
								c0.102,0.301-0.031,0.624-0.123,0.929c-0.883,2.934,2.545,5.042,4.287,6.83c2.449,2.511,3.338,5.495,3.891,8.905
								c0.395,2.445-0.518,4.66,0.67,6.829C352.049,126.994,353.643,128.708,354.749,130.7z"/>
						</g>
						<g>
							<path style="fill:#F9DBCD;" d="M366.62,97.081c-0.533,0.4-0.938,1.069-1.471,1.47c5.756,1.47,13.451-1.301,17.598-5.581
								c0.807,4.281,1.268,7.99,1.936,12.273c0.67,3.347,0.805,6.424,1.209,9.768c0.133,2.142,0.398,6.825,1.738,6.825
								c0.789-0.792,1.467-1.874,1.824-2.996c2.555-2.486,8.865-0.247,6.627,7.24c-1.053,3.523-3.885,4.866-7.043,5.459
								c-3.393,0.6-2.398,1.464-5.023,4.082c-2.17,2.368-3.973,4.529-9.27,6.94c0,0-0.426,1.263-0.316,3.763
								c0.271,6.36,0.773,7.333,7.213,8.874c-3.527,2.659-7.6,4.57-13.9,4.095c-5.697-0.691-6.572,0.328-10.645-2.503
								c3.332-1.968,6.418-3.686,6.445-5.781c0.01-0.814,0.295-1.952-0.402-7.498c-7.303-0.417-12.693-5.78-13.697-13.254
								c-0.701-5.659-0.385-12.992,0.061-18.476c0.299-3.683-0.555-8.845-0.254-12.868c0.852,0.533,2.359,0.577,3.992,0.577
								C357.79,99.356,362.338,98.418,366.62,97.081z"/>
						</g>
						<g>
							<g>
								<path style="fill:#47301A;" d="M382.432,104.494c-1.055-3.372-4.783-5.255-8.15-4.2L382.432,104.494z"/>
							</g>
							<g>
								<path style="fill:#47301A;" d="M359.125,100.635c-2.537-0.797-5.439,0.468-6.221,3.458L359.125,100.635z"/>
							</g>
							<g>
								<path style="fill:#8E3030;" d="M372.835,130.726c0,0-0.148,0.171-0.428,0.454c-0.277,0.27-0.725,0.669-1.303,1.032
									c-0.563,0.392-1.287,0.754-2.098,1.069c-0.414,0.127-0.832,0.311-1.281,0.389c-0.447,0.112-0.912,0.177-1.381,0.236
									c-0.475,0.021-0.951,0.053-1.42,0.006c-0.477-0.012-0.934-0.124-1.371-0.231c-0.875-0.253-1.658-0.646-2.186-1.158
									c-0.281-0.221-0.494-0.479-0.66-0.718c-0.182-0.221-0.305-0.435-0.383-0.628c-0.168-0.373-0.246-0.581-0.246-0.581
									L372.835,130.726z"/>
							</g>
							<g>
								<path d="M375.442,116.701c0,1.094,0.686,1.979,1.533,1.979c0.84,0,1.52-0.886,1.52-1.979c0-1.093-0.68-1.979-1.52-1.979
									C376.128,114.722,375.442,115.608,375.442,116.701z"/>
							</g>
							<g>
								<path d="M357.536,116.701c0,1.094,0.684,1.979,1.527,1.979c0.842,0,1.522-0.886,1.522-1.979c0-1.093-0.68-1.979-1.522-1.979
									C358.219,114.722,357.536,115.608,357.536,116.701z"/>
							</g>
							<g>
								<path style="fill:#D39B8C;" d="M363.928,113.181c0.58,1.023,0.787,2.274,0.71,3.474c-0.069,1.209-0.373,2.375-0.72,3.489
									l-1.069,3.26c-0.314,1.07-0.562,2.139-0.561,3.211l-0.426-0.5c0.667,0.188,1.536,0.04,2.328-0.219
									c0.802-0.273,1.587-0.66,2.267-1.245c-0.44,0.798-1.185,1.406-1.985,1.872c-0.817,0.441-1.744,0.794-2.838,0.648
									l-0.384-0.051l-0.042-0.45c-0.116-1.243,0.085-2.476,0.41-3.62c0.314-1.153,0.757-2.233,1.159-3.302
									c0.408-1.066,0.8-2.118,1.043-3.203C364.064,115.462,364.135,114.338,363.928,113.181z"/>
							</g>
						</g>
					</g>
					<g>
						<g>
							<g>
								<g>
									<g>
										<path style="fill:#EFF9FF;" d="M329.149,436.249c0.141-0.061,0.281-0.123,0.443-0.174
											c1.596-0.553,4.195-1.742,7.029-3.135c2.107,1.072,3.361,2.818,3.619,4.949c-0.557,0.027-1.117,0.051-1.691,0.051
											C335.194,437.94,332.168,437.19,329.149,436.249z"/>
									</g>
								</g>
								<g>
									<g>
										<path style="fill:#BABABA;" d="M329.149,436.249c3.02,0.941,6.045,1.691,9.4,1.691c3.209,0,6.154-0.397,9.23-1.068
											c2.807-0.535,5.748-0.932,8.555-1.469c2.453-0.563,4.91-1.598,7.357-2.385v1.953c0,0-29.51,7.178-35.564,3.639
											C328.128,438.61,327.018,437.194,329.149,436.249z"/>
									</g>
								</g>
								<g>
									<g>
										<path style="fill:#8A252F;" d="M351.432,422.393c-0.197,1.676-0.473,2.721-0.846,2.979
											c-0.154,0.105-0.355,0.234-0.592,0.385c-2.254,1.414-8.211,4.65-13.373,7.184c2.107,1.072,3.361,2.818,3.619,4.949
											c2.568-0.111,5.014-0.469,7.539-1.018c2.807-0.535,5.748-0.932,8.555-1.469c2.453-0.563,4.91-1.598,7.357-2.385v-2.93
											v-1.68c0.016-0.652,0.029-1.369,0.055-2.117c0.029-1.184,0.068-2.496,0.109-3.898H351.432z"/>
									</g>
								</g>
								<g>
									<g>
										<g>
											<path style="fill:#EBEEE0;" d="M352.911,429.825c0.107,0,0.217-0.029,0.313-0.096c0.268-0.176,0.346-0.533,0.172-0.801
												c-1.717-2.648-3.697-3.016-5.57-3.016c-0.32,0-0.576,0.256-0.576,0.582c0,0.322,0.256,0.582,0.576,0.582
												c1.844,0,3.26,0.412,4.602,2.48C352.538,429.729,352.721,429.825,352.911,429.825z"/>
										</g>
									</g>
								</g>
								<g>
									<g>
										<g>
											<path style="fill:#EBEEE0;" d="M350.368,431.485c0.107,0,0.215-0.033,0.315-0.1c0.267-0.168,0.342-0.533,0.17-0.801
												c-1.721-2.647-3.693-3.016-5.574-3.016c-0.318,0-0.574,0.26-0.574,0.582s0.256,0.58,0.574,0.58
												c1.848,0,3.264,0.418,4.607,2.49C349.991,431.389,350.18,431.485,350.368,431.485z"/>
										</g>
									</g>
								</g>
								<g>
									<g>
										<g>
											<path style="fill:#EBEEE0;" d="M347.438,432.854c0.109,0,0.219-0.025,0.318-0.09c0.266-0.172,0.34-0.535,0.166-0.801
												c-1.719-2.654-3.691-3.016-5.572-3.016c-0.32,0-0.576,0.264-0.576,0.578c0,0.324,0.256,0.58,0.576,0.58
												c1.848,0,3.258,0.416,4.604,2.486C347.063,432.764,347.25,432.854,347.438,432.854z"/>
										</g>
									</g>
								</g>
							</g>
							<g>
								<g>
									<g>
										<path style="fill:#EFF9FF;" d="M414.854,439.53c-0.141-0.059-0.285-0.113-0.445-0.172
											c-1.594-0.549-4.193-1.732-7.031-3.133c-2.105,1.07-3.359,2.822-3.623,4.953c0.561,0.022,1.121,0.047,1.693,0.047
											C408.809,441.225,411.833,440.473,414.854,439.53z"/>
									</g>
								</g>
								<g>
									<g>
										<path style="fill:#BABABA;" d="M414.854,439.53c-3.021,0.943-6.045,1.695-9.406,1.695c-3.205,0-6.152-0.398-9.217-1.064
											c-2.818-0.533-5.762-0.938-8.561-1.473c-2.455-0.564-4.908-1.594-7.361-2.387v1.959c0,0,29.508,7.18,35.57,3.633
											C415.879,441.893,416.985,440.475,414.854,439.53z"/>
									</g>
								</g>
								<g>
									<g>
										<path style="fill:#8A252F;" d="M392.43,423.747c0.168,2.82,0.48,4.563,0.982,4.916c0.148,0.102,0.357,0.236,0.596,0.387
											c2.256,1.404,8.205,4.639,13.369,7.176c-2.105,1.07-3.359,2.822-3.623,4.953c-2.568-0.117-5.006-0.469-7.523-1.017
											c-2.818-0.533-5.762-0.938-8.561-1.473c-2.455-0.564-4.908-1.594-7.361-2.387v-2.922v-1.693
											c-0.014-0.646-0.029-1.361-0.049-2.109c-0.045-1.715-0.103-3.686-0.17-5.83H392.43z"/>
									</g>
								</g>
								<g>
									<g>
										<g>
											<path style="fill:#EBEEE0;" d="M391.245,433.176c-0.109,0-0.217-0.033-0.316-0.096c-0.268-0.174-0.342-0.537-0.168-0.799
												c1.717-2.65,3.689-3.02,5.568-3.02c0.322,0,0.578,0.26,0.578,0.58c0,0.318-0.256,0.582-0.578,0.582
												c-1.844,0-3.258,0.416-4.6,2.484C391.62,433.081,391.434,433.176,391.245,433.176z"/>
										</g>
									</g>
								</g>
								<g>
									<g>
										<g>
											<path style="fill:#EBEEE0;" d="M393.786,434.829c-0.107,0-0.219-0.025-0.314-0.092c-0.27-0.178-0.344-0.533-0.168-0.801
												c1.717-2.648,3.691-3.016,5.568-3.016c0.318,0,0.578,0.256,0.578,0.578c0,0.326-0.26,0.582-0.578,0.582
												c-1.844,0-3.26,0.416-4.6,2.484C394.159,434.737,393.975,434.829,393.786,434.829z"/>
										</g>
									</g>
								</g>
								<g>
									<g>
										<g>
											<path style="fill:#EBEEE0;" d="M396.713,436.207c-0.107,0-0.217-0.029-0.312-0.092c-0.268-0.18-0.346-0.537-0.17-0.805
												c1.719-2.65,3.693-3.02,5.57-3.02c0.318,0,0.578,0.26,0.578,0.586c0,0.32-0.26,0.576-0.578,0.576
												c-1.846,0-3.26,0.418-4.604,2.486C397.086,436.116,396.903,436.207,396.713,436.207z"/>
										</g>
									</g>
								</g>
							</g>
						</g>
						<g>
							<g>
								<g>
									<path style="fill:#8BA4CC;" d="M398.643,254.706c0,0-1.549,78.889-1.549,94.865c0,0,0.328,75.943-0.434,78.48
										c0,0-12.113,3.059-18.453-0.469c0,0,0.367-33.119,0.367-44.277c0-11.16-8.063-99.178-8.063-99.178l-5.572-2.285
										l1.281,142.031c0,0-13.211,5.037-18.172-0.098c0,0-2.062-48.59-2.381-56.701c-0.32-8.121-5.783-105.52-3.5-112.369H398.643
										z"/>
								</g>
							</g>
							<g>
								<g>
									<path style="fill:#627BA0;" d="M372.409,285.143c0,0-1.096-0.172-2.633-0.646c-1.537-0.465-3.527-1.227-5.451-2.117
										c-1.92-0.902-3.783-1.941-5.127-2.822c-1.35-0.871-2.178-1.6-2.178-1.6s1.088,0.17,2.623,0.647
										c1.543,0.465,3.529,1.223,5.453,2.117c1.922,0.906,3.781,1.94,5.123,2.826C371.575,284.42,372.409,285.143,372.409,285.143
										z"/>
								</g>
							</g>
							<g>
								<g>
									<path style="fill:#627BA0;" d="M366.913,258.006c0,0,0.014,0.352,0.088,0.955c0.072,0.602,0.174,1.459,0.289,2.488
										c0.229,2.061,0.445,4.809,0.533,7.57c0.076,2.756,0.022,5.518-0.15,7.6c-0.158,2.074-0.438,3.48-0.508,3.453
										c0.07,0.012-0.266-1.367-0.545-3.426c-0.293-2.061-0.537-4.813-0.623-7.578c-0.078-2.766,0.018-5.535,0.248-7.619
										c0.107-1.039,0.262-1.908,0.395-2.512C366.774,258.336,366.913,258.006,366.913,258.006z"/>
								</g>
							</g>
							<g>
								<g>
									<path style="fill:#627BA0;" d="M363.11,260.292c0,0,0.301,0.986,0.494,2.463c0.217,1.48,0.375,3.424,0.535,5.338
										c0.15,1.912,0.336,3.787,0.658,5.16c0.107,0.326,0.152,0.668,0.26,0.926c0.111,0.26,0.172,0.529,0.273,0.711
										c0.199,0.393,0.311,0.615,0.311,0.615s-0.215-0.121-0.592-0.389c-0.357-0.285-0.816-0.777-1.229-1.457
										c-0.391-0.684-0.762-1.533-0.998-2.467c-0.275-0.935-0.395-1.945-0.512-2.951c-0.15-2.017,0-4.016,0.246-5.494
										C362.795,261.27,363.11,260.292,363.11,260.292z"/>
								</g>
							</g>
							<g>
								<path style="fill:#2E2F33;" d="M398.629,251.454v5.234c0,0-35.91,5.293-56.836-0.654l-0.18-6.459
									C341.614,249.575,362.004,255.506,398.629,251.454z"/>
							</g>
							<g>
								<path style="fill:#4C4844;" d="M388.247,259.989c0.074-0.326,0-10.414,0-10.414l-2.396,1.799v9.459L388.247,259.989z"/>
							</g>
							<g>
								<polyline style="fill:#4C4844;" points="348.483,259.989 348.483,249.575 345.561,249.575 345.561,260.832 347.899,260.832 
																	"/>
							</g>
						</g>
					</g>
					<g>
						<g>
							<path style="fill:#A04C4A;" d="M356.485,232.322c0.232-10.403,0.463-21.038,1.156-31.673
								c0.693-9.941,0.693-19.651,1.387-29.36c0.33-5.441,0.767-11.23,0.662-16.789c-0.211-0.196-0.373-0.391-0.217-0.422
								c-7.668,1.5-14.469,3.185-18.693,5.824l1.826,38.282c0.955,18.188-4.805,66.984-6.094,68.736
								c2.912,2.643,8.35,3.012,12.254,3.492c2.226,0.272,4.478,0.51,6.742,0.719C355.381,261.63,356.299,241.829,356.485,232.322z"
								/>
							<path style="fill:#FFFFFF;" d="M380.067,216.139c0.463-11.328,0.693-22.425,0.924-33.753c0.232-5.317,0-10.866,0.232-16.414
								c0.16-4.033,0.645-8.288,0.539-12.456c-0.154-0.001-0.244-0.001-0.244-0.001c-0.129,0.412-0.897,0.794-1.527,1.025
								c-0.598,0.22-10.377,4.298-19.779,0.393c0,0-0.291-0.217-0.521-0.433c0.105,5.559-0.332,11.348-0.662,16.789
								c-0.693,9.71-0.693,19.419-1.387,29.36c-0.693,10.635-0.924,21.27-1.156,31.673c-0.186,9.506-1.104,19.308-0.977,28.809
								c7.992,0.738,16.18,1.06,24.322,0.951C379.801,246.707,379.397,231.53,380.067,216.139z"/>
							<path style="fill:#A04C4A;" d="M399.952,172.273c0.049-4.775,2.248-11.425,0.338-15.802
								c-1.225-2.808-16.438-2.951-18.527-2.956c0.105,4.168-0.379,8.424-0.539,12.456c-0.232,5.548,0,11.097-0.232,16.414
								c-0.23,11.328-0.461,22.425-0.924,33.753c-0.67,15.391-0.266,40.567-0.236,55.943c7.088-0.097,14.141-0.513,20.986-1.313
								C401.229,267.09,399.846,182.76,399.952,172.273z"/>
							<path style="fill:#723131;" d="M358.547,173.513c-0.293-4.195-0.684-8.391-1.658-12.489c-1.074,0.391-2.244,2.732-2.83,3.708
								c-0.684,0.781-1.756,2.537-2.732,2.829c-0.488-0.878,0.098-2.049,0.391-2.927c0.488-1.366,0.879-2.83,1.268-4.293
								c0.488-1.952,1.074-3.903,1.758-5.854c0.584-1.659,0.975-3.708,1.951-5.269c1.17-1.561,2.926-1.854,4.684-1.756
								c-0.098,2.634-0.781,5.171-0.977,7.805L358.547,173.513z"/>
							<path style="fill:#723131;" d="M381.149,173.513c0.293-4.195,0.684-8.391,1.658-12.489c1.074,0.391,2.244,2.732,2.83,3.708
								c0.684,0.781,1.756,2.537,2.733,2.829c0.488-0.878-0.098-2.049-0.391-2.927c-0.488-1.366-0.879-2.83-1.268-4.293
								c-0.488-1.952-1.732-9.562-2.709-11.123c-1.17-1.561-2.926-1.854-4.684-1.756
								C379.417,150.097,381.149,173.513,381.149,173.513z"/>
						</g>
						<g>
							<g>
								<g>
									<path style="fill:#FFCDBB;" d="M438.928,179.834c1.492-5.148,2.004-7.705,3.285-12.911c0.658-2.666,1.307-5.338,1.949-8.01
										c0.494-2.055,0.834-4.125,1.127-6.204c0.281-2.131,0.529-4.26,0.682-6.351c0.527-7.296,0.713-14.448,1.242-21.743
										c0.24-3.316-0.324-7.025,0.414-10.303c0.666-2.286,2.603-3.998,2.902-0.957c0.445,4.53,0.447,8.657,0.387,13.271
										c-0.008,0.687-0.25,3.239-0.25,3.239c2.563-5.48,2.535-11.982,5.277-17.617c0.416-1.137,1.494-4.559,3.248-3.432
										c0.795,0.558,0.73,3.72,1.002,4.573c4.027-2.708,3.016,4.385,2.682,6.693c-0.418,3.47-1.289,8.573-2.844,11.628
										c1.199-2.746,4.707-7.777,5.551-7.598c3.09,1.057-2.889,9.957-4.396,14.682c-1.01,2.427-0.527,4.96-2.033,7.353
										c-1.229,1.832-3.311,2.921-5.35,3.803c-0.727,8.689-2.711,35.349-4.525,42.252c-0.543,2.057-1.488,6.178-4.037,6.707
										c-7.703-0.226-44.18-19.52-44.18-19.52s-8.438-20.912-8.83-23.34C391.51,151.6,429.321,173.921,438.928,179.834z"/>
								</g>
								<g>
									<path style="fill:#FFCDBB;" d="M446.051,149.864c0.107-1.492-2.01-4.48-3.061-6.055
										c-2.213-3.993-2.773-10.035-2.617-14.523c0.002-2.334,0.236-10.15,2.742-5.635c1.785,2.963,1.65,7.119,1.576,10.447
										c3.791,0.608,6.27,7.787,5.922,10.262"/>
								</g>
								<g>
									<path style="fill:#CC6666;" d="M459.874,113.199c0,0,0.01,0.273,0.004,0.749c-0.016,0.475-0.01,1.156-0.055,1.968
										c-0.023,0.406-0.051,0.845-0.076,1.311c-0.027,0.464-0.127,0.951-0.207,1.456c-0.164,1.01-0.377,2.085-0.586,3.159
										c-0.533,2.104-1.127,4.193-1.674,5.724c-0.26,0.771-0.52,1.401-0.682,1.848c-0.172,0.444-0.283,0.694-0.283,0.694
										s0.025-0.271,0.096-0.742c0.078-0.47,0.162-1.145,0.314-1.944c0.301-1.602,0.73-3.715,1.254-5.806
										c0.225-1.044,0.447-2.089,0.691-3.065c0.104-0.491,0.262-0.954,0.336-1.414c0.09-0.458,0.172-0.89,0.25-1.289
										c0.154-0.798,0.328-1.458,0.43-1.923C459.797,113.463,459.874,113.199,459.874,113.199z"/>
								</g>
								<g>
									<path style="fill:#CC6666;" d="M444.75,133.739c0.277,0.084,0.563,0.148,0.828,0.255c0.25,0.137,0.518,0.245,0.746,0.408
										c0.219,0.171,0.461,0.319,0.658,0.512c0.193,0.195,0.404,0.375,0.58,0.583c0.363,0.41,0.678,0.849,0.973,1.299
										c0.275,0.461,0.545,0.926,0.76,1.414c0.223,0.485,0.43,0.977,0.596,1.481c0.182,0.5,0.326,1.012,0.451,1.526
										c0.125,0.515,0.229,1.036,0.281,1.563c0.063,0.525,0.063,1.061-0.01,1.581c0.025-0.526-0.022-1.048-0.127-1.561
										c-0.096-0.513-0.227-1.02-0.383-1.517c-0.158-0.497-0.332-0.989-0.541-1.466c-0.195-0.482-0.43-0.947-0.676-1.402
										c-0.244-0.457-0.52-0.893-0.801-1.324c-0.299-0.418-0.613-0.819-0.963-1.186c-0.172-0.188-0.371-0.341-0.553-0.512
										c-0.186-0.17-0.404-0.286-0.602-0.432c-0.205-0.136-0.436-0.211-0.65-0.322c-0.225-0.079-0.459-0.117-0.684-0.182
										l-0.305-0.088"/>
								</g>
								<g>
									<path style="fill:#CC6666;" d="M452.432,129.568c0,0,0.521-0.039,1.27,0.029c0.75,0.061,1.728,0.226,2.685,0.467
										c0.957,0.245,1.877,0.666,2.551,0.999c0.674,0.338,1.094,0.647,1.094,0.647s-0.522,0.011-1.258-0.098
										c-0.371-0.049-0.795-0.127-1.244-0.232c-0.451-0.097-0.914-0.249-1.4-0.351c-0.955-0.248-1.891-0.574-2.574-0.88
										C452.868,129.853,452.432,129.568,452.432,129.568z"/>
								</g>
							</g>
							<g>
								<path style="fill:#A04C4A;" d="M386.585,154.025l10.92,0.558c1.824,0.92,25.131,15.862,25.131,15.862
									s-5.643,14.032-10.654,17.316l-19.357-8.556l-2.385-13.736L386.585,154.025z"/>
							</g>
							<g>
								<defs>
									<path id="SVGID_00000088849373896997286300000011967473629032971401_" d="M359.473,154.078
										c-7.668,1.5-14.469,3.185-18.693,5.824c-1.002,0.465-17.494,16.391-17.494,16.391s4.189,10.167,12.264,14.449
										c0,0,2.852-2.396,6.422-5.859l0.635,13.301c0.955,18.188-4.805,66.984-6.094,68.736c2.912,2.643,8.35,3.012,12.254,3.492
										c2.226,0.272,4.478,0.51,6.742,0.719c-0.127-9.501,0.791-29.303,0.977-38.809c0.232-10.403,0.463-21.038,1.156-31.673
										c0.693-9.941,0.693-19.651,1.387-29.36c0.33-5.441,0.767-11.23,0.662-16.789
										C359.479,154.304,359.317,154.109,359.473,154.078z"/>
								</defs>
								<clipPath id="SVGID_00000032632847475236655580000004377638272719264912_">
									<use xlink:href="#SVGID_00000088849373896997286300000011967473629032971401_"  style="overflow:visible;"/>
								</clipPath>
								<g style="clip-path:url(#SVGID_00000032632847475236655580000004377638272719264912_);">
									<g>
										<rect x="320.034" y="162.882" style="opacity:0.5;fill:#723131;" width="117.85" height="7.439"/>
										<rect x="320.034" y="181.333" style="opacity:0.5;fill:#723131;" width="117.85" height="7.439"/>
										<rect x="320.034" y="199.785" style="opacity:0.5;fill:#723131;" width="117.85" height="7.439"/>
										<rect x="320.034" y="218.236" style="opacity:0.5;fill:#723131;" width="117.85" height="7.439"/>
										<rect x="320.034" y="236.687" style="opacity:0.5;fill:#723131;" width="117.85" height="7.439"/>
										<rect x="320.034" y="255.138" style="opacity:0.5;fill:#723131;" width="117.85" height="7.439"/>
									</g>
									<g>
										<rect x="411.956" y="153.806" style="opacity:0.2;fill:#723131;" width="3.855" height="117.849"/>
										<rect x="384.674" y="153.806" style="opacity:0.2;fill:#723131;" width="3.855" height="117.848"/>
										<rect x="398.315" y="153.806" style="opacity:0.2;fill:#723131;" width="3.855" height="117.848"/>
										<rect x="371.034" y="153.806" style="opacity:0.2;fill:#723131;" width="3.855" height="117.848"/>
										<rect x="357.391" y="153.806" style="opacity:0.2;fill:#723131;" width="3.855" height="117.848"/>
										<rect x="343.75" y="153.806" style="opacity:0.2;fill:#723131;" width="3.855" height="117.848"/>
										<rect x="330.11" y="153.806" style="opacity:0.2;fill:#723131;" width="3.855" height="117.848"/>
									</g>
								</g>
							</g>
							<g>
								<defs>
									<path id="SVGID_00000028289688349521126470000009990713028864471719_" d="M400.004,156.081
										c-0.267-0.27-0.67-0.514-1.189-0.73c-0.648-0.393-1.111-0.667-1.311-0.767l-1.975-0.101
										c-5.029-0.896-12.361-0.963-13.768-0.967c0.105,4.168-0.379,8.424-0.539,12.456c-0.232,5.548,0,11.097-0.232,16.414
										c-0.23,11.328-0.461,22.425-0.924,33.753c-0.67,15.391-0.266,40.567-0.236,55.943c7.088-0.097,14.141-0.513,20.986-1.313
										c0.346-3.086-0.57-62.902-0.813-88.303l11.977,5.294c5.012-3.283,10.654-17.316,10.654-17.316
										S406.452,160.069,400.004,156.081z"/>
								</defs>
								<clipPath id="SVGID_00000001647340669015961960000000058880989443891853_">
									<use xlink:href="#SVGID_00000028289688349521126470000009990713028864471719_"  style="overflow:visible;"/>
								</clipPath>
								<g style="clip-path:url(#SVGID_00000001647340669015961960000000058880989443891853_);">
									<g>
										<rect x="320.034" y="162.882" style="opacity:0.5;fill:#723131;" width="117.85" height="7.439"/>
										<rect x="320.034" y="181.333" style="opacity:0.5;fill:#723131;" width="117.85" height="7.439"/>
										<rect x="320.034" y="199.785" style="opacity:0.5;fill:#723131;" width="117.85" height="7.439"/>
										<rect x="320.034" y="218.236" style="opacity:0.5;fill:#723131;" width="117.85" height="7.439"/>
										<rect x="320.034" y="236.687" style="opacity:0.5;fill:#723131;" width="117.85" height="7.439"/>
										<rect x="320.034" y="255.138" style="opacity:0.5;fill:#723131;" width="117.85" height="7.439"/>
									</g>
									<g>
										<rect x="411.956" y="153.806" style="opacity:0.2;fill:#723131;" width="3.855" height="117.849"/>
										<rect x="384.674" y="153.806" style="opacity:0.2;fill:#723131;" width="3.855" height="117.848"/>
										<rect x="398.315" y="153.806" style="opacity:0.2;fill:#723131;" width="3.855" height="117.848"/>
										<rect x="371.034" y="153.806" style="opacity:0.2;fill:#723131;" width="3.855" height="117.848"/>
										<rect x="357.391" y="153.806" style="opacity:0.2;fill:#723131;" width="3.855" height="117.848"/>
										<rect x="343.75" y="153.806" style="opacity:0.2;fill:#723131;" width="3.855" height="117.848"/>
										<rect x="330.11" y="153.806" style="opacity:0.2;fill:#723131;" width="3.855" height="117.848"/>
									</g>
								</g>
							</g>
						</g>
					</g>
				</g>
			</g>
			<g>
				<g>
					<g>
						<g>
							<g>
								<g>
									<path d="M320.047,142.048c0.66,2.177-0.984,3.865-1.611,5.982c-0.863,2.904,1.531,2.942,3.299,4.669
										c2.978,2.909,3.576,8.65,1.445,12.184c-0.891,1.475-1.916,2.004-2.168,3.71c-0.322,2.159,0.918,3.907,1.766,5.755
										c1.67,3.64,3.787,9.935-0.256,12.924c-2.461,1.819-4.943-0.596-4.943,2.943c-0.002,2.219,0.232,3.868-1.49,5.596
										c-1.379,1.385-4.303,2.846-6.264,2.89c-0.168-2.035-0.205-4.108-0.277-6.155c-0.451,3.764-6.225,8.062-9.447,9.434
										c-2.65,1.129-5.41,1.018-8.129-0.04c-3.744-1.454-5.994-3.763-10.219-3.731c-4.742,0.035-8.033,3.37-12.428,4.696
										c-3.721,1.124-10.576,1.479-12.648-2.636c-0.686-1.36-0.348-2.524-1.813-3.335c-2.006-1.112-4.089-0.626-5.817-2.622
										c-1.444-1.669-2.32-4.982-1.601-7.139c0.462-1.392,3.168-2.403,3.294-3.531c0.155-1.373-1.867-1.896-2.803-2.344
										c-2.325-1.112-3.825-2.099-4.709-4.717c-0.613-1.815-0.928-4.397-0.215-6.19c0.609-1.531,2.037-2.449,2.299-4.163
										c0.463-3.022-3.532-3.861-4.91-6.389c-1.137-2.08-1.927-5.866-1.42-8.241c0.564-2.645,3.324-4.194,4.411-6.575
										c0.969-2.124,0.034-3.298-0.589-5.329c-1.157-3.781,0.198-6.93,0.426-10.655c0.169-2.812,0.866-6.228-0.618-8.797
										c-1.49-2.578-4.018-4.709-4.708-7.743c-0.988-4.329,1.322-8.709,3.268-12.417c5.617-10.697,15.956-19.508,27.84-22.006
										c4.256-0.895,8.791-1.061,13.1-0.454c5.639,0.794,12.307,5.644,16.182,9.669c2.428,2.521,3.844,5.812,5.148,9.006
										c2.488,6.09,1.955,11.534,2.215,17.924c0.164,4.03,2.213,5.927,5.283,8.131c3.174,2.276,6.779,6.361,5.361,10.658
										c-0.492,1.489-2.031,3.134-1.104,4.916c0.883,1.697,3.465,1.476,4.469,3.25
										C319.838,141.475,319.961,141.766,320.047,142.048z"/>
								</g>
							</g>
						</g>
						<g>
							<g>
								<path style="fill:#895E40;" d="M255.512,95.266c-2.557,4.889-4.565,11.963-4.143,17.5c0.336,4.526,1.537,8.954,1.758,13.499
									c0.266,5.402,2.43,12.195,7.869,14.891c2.85,1.451,8.647,2.54,9.592,2.682c0.979,0.15-0.084,9.179-0.271,8.227l-8.475,3.863
									c-3.428,22.121,8.383,20.533,11.965,21.917c9.287,3.591,30.451-16.946,19.516-25.811c0,0-11.43-0.439-12.283-1.949
									c-1-1.762-0.852-7.892,0.391-9.434c0.428-0.536,0.428-0.536,4.047-4.186c4.357-4.393,6.605-9.764,6.605-9.764
									c1.426-0.137,4.699-0.217,6.297-3.112c2.926-5.299,1.338-8.036-4.996-7.192c0.061-4.493,0.705-9.183-1.615-13.323
									c-2.387-4.257-6.066-7.729-9.918-10.764c-3.291-2.593-7.223-3.61-11.324-3.825C263.807,88.14,258.918,88.764,255.512,95.266
									z"/>
							</g>
						</g>
						<g>
							<g>
								<g>
									<path d="M281.245,108.434c0,0-0.154-0.05-0.398-0.174c-0.252-0.11-0.576-0.372-0.978-0.503
										c-0.193-0.081-0.4-0.161-0.596-0.262c-0.207-0.1-0.469-0.144-0.693-0.251c-0.227-0.104-0.479-0.172-0.734-0.223
										c-0.248-0.065-0.494-0.165-0.75-0.194c-0.514-0.08-1.022-0.174-1.512-0.16c-0.25-0.003-0.498-0.047-0.725,0.001
										c-0.219,0.032-0.445,0.041-0.656,0.05c-0.225-0.004-0.402,0.067-0.578,0.102c-0.176,0.032-0.336,0.059-0.463,0.086
										c-0.273,0.044-0.441,0.062-0.441,0.062s0.084-0.124,0.273-0.339c0.094-0.1,0.209-0.232,0.353-0.368
										c0.15-0.124,0.297-0.319,0.525-0.414c0.43-0.213,0.945-0.546,1.576-0.601c0.311-0.027,0.641-0.145,0.967-0.097
										c0.324,0.032,0.66,0.058,0.992,0.096c0.324,0.063,0.635,0.196,0.945,0.298c0.318,0.084,0.588,0.258,0.848,0.424
										c0.531,0.298,0.967,0.717,1.283,1.1c0.354,0.349,0.451,0.727,0.596,0.965C281.194,108.283,281.245,108.434,281.245,108.434
										z"/>
								</g>
							</g>
							<g>
								<g>
									<path d="M261.088,109.427c0,0-0.166,0.015-0.459,0.013c-0.279,0.018-0.701-0.051-1.15-0.028
										c-0.223,0.015-0.461,0.031-0.699,0.021c-0.234-0.019-0.498,0.051-0.758,0.066c-0.256,0.037-0.533,0.024-0.783,0.102
										c-0.262,0.061-0.523,0.112-0.785,0.172l-0.721,0.285c-0.252,0.068-0.438,0.233-0.65,0.35
										c-0.201,0.142-0.445,0.232-0.592,0.418c-0.158,0.164-0.334,0.313-0.498,0.455c-0.189,0.131-0.262,0.323-0.389,0.455
										c-0.119,0.148-0.221,0.281-0.305,0.384c-0.186,0.223-0.307,0.351-0.307,0.351s-0.006-0.156,0.004-0.45
										c0.01-0.143,0.01-0.326,0.041-0.527c0.041-0.2,0.021-0.466,0.15-0.688c0.111-0.234,0.234-0.493,0.383-0.761
										c0.127-0.29,0.365-0.511,0.617-0.737c0.262-0.215,0.486-0.522,0.826-0.635c0.326-0.15,0.646-0.318,0.986-0.446
										c0.346-0.06,0.691-0.115,1.039-0.175c0.34-0.081,0.678,0.024,0.994,0.028c0.647,0.019,1.234,0.265,1.701,0.447
										c0.463,0.176,0.756,0.451,1,0.616C260.963,109.315,261.088,109.427,261.088,109.427z"/>
								</g>
							</g>
							<g>
								<path style="fill:#FFFFFF;" d="M265.081,132.636c0,0,0.064,0.183,0.223,0.504c0.078,0.168,0.182,0.362,0.348,0.549
									c0.16,0.204,0.34,0.435,0.603,0.624c0.479,0.436,1.186,0.752,1.983,0.941c0.392,0.063,0.805,0.147,1.228,0.115
									c0.424,0.01,0.842-0.065,1.26-0.123c0.41-0.105,0.814-0.211,1.195-0.368c0.391-0.117,0.729-0.346,1.072-0.514
									c0.664-0.399,1.236-0.838,1.637-1.297c0.426-0.431,0.721-0.896,0.877-1.183c0.16-0.309,0.232-0.496,0.232-0.496
									L265.081,132.636z"/>
							</g>
							<g>
								<path style="fill:#6B423B;" d="M268.1,127.701c-0.503,0.279-1.063,0.457-1.643,0.561c-0.579,0.087-1.201,0.124-1.837-0.124
									c-0.312-0.121-0.64-0.331-0.844-0.658c-0.082-0.123-0.082-0.14-0.128-0.215c-0.037-0.077-0.081-0.185-0.112-0.276
									c-0.052-0.178-0.09-0.367-0.086-0.555c0.013-0.772,0.452-1.381,0.941-1.809c1.021-0.66,1.354-1.269,1.295-2.469
									c0.05-1.156,0.2-2.256,0.335-3.396c0.281,1.113,0.35,2.271,0.445,3.37c0.07,0.51,0.133,1.247-0.17,1.877
									c-0.141,0.314-0.351,0.589-0.583,0.821c-0.225,0.236-0.54,0.438-0.679,0.561c-0.361,0.289-0.621,0.698-0.641,1.07
									c-0.014,0.094,0.001,0.187,0.016,0.281l0.033,0.121c0.023,0.047,0.073,0.165,0.074,0.155
									c0.084,0.166,0.234,0.302,0.431,0.417C265.789,127.864,266.993,127.829,268.1,127.701z"/>
							</g>
							<g>
								<g>
									<path style="fill:#141210;" d="M262.067,120.285c0.113,1.249-0.48,2.354-1.316,2.46c-0.844,0.109-1.621-0.826-1.734-2.088
										c-0.108-1.257,0.486-2.36,1.328-2.467C261.184,118.088,261.954,119.029,262.067,120.285z"/>
								</g>
							</g>
							<g>
								<g>
									<path style="fill:#141210;" d="M279.413,118.074c0.109,1.258-0.479,2.363-1.32,2.473c-0.846,0.108-1.619-0.833-1.73-2.089
										c-0.111-1.256,0.482-2.36,1.32-2.476C278.528,115.89,279.299,116.823,279.413,118.074z"/>
								</g>
							</g>
						</g>
						<g>
							<path d="M277.051,92.444c1.217,7.231-8.076,13.543-14.854,14.74c1.721-2.349,2.988-4.678,3.781-7.444
								c-1.623,4.622-6.033,7.996-10.559,8.642c0.398-1.383,0.32-3.2,1.627-4.622c-2.893,6.952-5.881,11.63-6.008,19.373
								c-11.559-14.987-1.144-37.732,16.557-38.938c11.342-0.937,19.898,0.812,26.248,11.013c4.871,7.532,4.588,17.563-3.352,24.433
								c0.262-4.563,0.922-10.509-1.088-14.975C287.356,99.29,280.878,96.833,277.051,92.444L277.051,92.444z"/>
						</g>
						<g>
							<g>
								<path style="fill:#BCB8AF;" d="M298.129,121.658c0.738,0.007,1.477,0.015,2.215,0.022c0.645,0.006,0.645-0.994,0-1
									c-0.738-0.007-1.477-0.015-2.215-0.022C297.484,120.651,297.485,121.651,298.129,121.658L298.129,121.658z"/>
							</g>
						</g>
					</g>
					<g>
						<g>
							<path style="fill:#895E40;" d="M247.096,183.518c0.361,14.562-0.02,29.71-2.505,43.962
								c-3.338,18.059-5.503,37.603-0.894,55.656c0.431,2.068,1.247,4.51,3.877,3.688c2.256-0.623,2.188-3.271,2.516-5.361
								c0.999-5.512,1.62-11.016,2.428-16.523c1.615-11.203,3.23-22.407,4.084-33.782c0.555-8.15,0.727-16.48,0.525-24.612
								c-0.102-4.161-0.207-8.321-0.309-12.481c-0.033-1.324,0.201-7.196-0.377-7.56L247.096,183.518z"/>
						</g>
						<g>
							<path style="fill:#706A99;" d="M260.983,155.927c-4.135,1.048-9.373,3.637-11.154,8.035c-0.709,1.909-0.663,3.8-1.188,5.516
								c-0.52,1.906-2.005,3.078-2.526,4.982c-0.52,1.906-0.473,3.797-1.366,5.9c-0.71,1.91-1.991,3.645-2.697,5.743
								c5.673-0.14,11.952,1.218,17.057,1.092L260.983,155.927z"/>
						</g>
					</g>
					<g>
						<g>
							<g>
								<path style="fill:#895E40;" d="M232.891,429.761c5.989-0.15,16.032-0.834,20.428-1.146
									c-0.086-2.158-0.168-4.316-0.223-6.443c-0.178-7.207,0.059-14.297-0.035-21.512c-0.105-8.338,0.395-14.186,0.346-21.273
									c-4.605-0.135-9.199,0.227-13.785,0.84c0.002,0.123,0.01,0.373,0.017,0.621c-0.345,1.129,0.341,3.723,0.496,4.959
									c0.17,1.863,0.215,3.728,0.387,5.588c0.335,3.475,0.673,7.072,0.763,10.678c0.163,6.586,1.713,14.01-4.013,18.75
									c-1.537,1.273-3.188,2.103-4.905,2.703C232.953,425.548,232.869,428.923,232.891,429.761z"/>
							</g>
							<g>
								<path style="fill:#4F4D77;" d="M232.891,429.761c-0.021-0.838,0.063-4.213-0.524-6.236
									c-4.005,1.393-8.386,1.51-12.617,2.832c-4.441,1.48-8.085,4.924-7.586,10.012l41.384-1.025
									c-0.055-2.223-0.143-4.475-0.229-6.728C248.923,428.927,238.88,429.611,232.891,429.761z"/>
							</g>
						</g>
						<g>
							<g>
								<path style="fill:#895E40;" d="M304.411,438.685c0,0,2.248,0.08,4.609-0.225c-0.121-6.518-0.871-13.117-1.035-19.73
									c-0.219-8.889,0.123-17.979-0.664-26.852c-1.701,0.039-7.598-1.139-8.703,0.023c-1.111,0.975-0.168,8.52-0.314,10.227
									c-0.533,9.094,0.314,20.43-5.932,27.961c-0.941,1.111-2.092,2.023-3.31,2.854
									C295.432,432.291,304.139,432.082,304.411,438.685z"/>
							</g>
							<g>
								<path style="fill:#4F4D77;" d="M304.411,438.685c-0.272-6.603-8.979-6.395-15.35-5.742
									c-4.738,3.219-10.59,5.152-9.967,12.055c0,0,19.685,1.207,29.885-1.502c0.074-1.672,0.072-3.352,0.041-5.035
									C306.659,438.765,304.411,438.685,304.411,438.685z"/>
							</g>
						</g>
						<g>
							<g>
								<path style="fill:#A0CFEA;" d="M252.186,243.85c-7.238,17.208-17.898,79.634-17.602,91.546
									c0.147,5.959,1.131,11.326,1.557,16.992c0.063,2.553,0.984,5.369,0.473,7.652c-0.248,1.424-1.071,2.58-1.32,4.006
									c-0.228,2.277,0.632,2.539,0.965,4.52c0.637,2.82-1.008,5.131-0.938,7.969c0.078,3.119,0.431,5.951,0.218,8.791
									c5.41,0.721,16.057,0.881,21.428-0.104c0,0,0.654-2.145-0.287-5.811c-0.666-3.957-1.545-5.07-1.076-9.057
									c0.717-5.41-0.02-12.203-0.16-17.877c-0.076-3.121-1.004-6.221-0.797-9.348c0.203-3.127,1.008-5.133,1.213-8.262
									c0.449-4.836,22.133-57.6,22.133-57.6c3.232,4.463,13.877,67.492,15.166,73.705c0.666,3.959,1.607,7.625,1.43,11.889
									c-0.242,1.707-0.76,3.709-0.719,5.41c0.049,1.984,1.228,3.66,1.277,5.645c0.373,3.682-0.678,7.113-0.586,10.799
									c0.07,2.84,0.729,6.512-0.633,8.814c4.145,1.465,15.693,3.303,19.012-2.443c0,0,0.088-40.035-1.137-43.695
									c-1.219-3.377-2.709-6.178-2.232-9.881c0.754-3.992,3.223-41.803,3.004-50.598c-0.309-12.48,3.022-27.037-4.352-38.208
									c-6.478-9.49-13.705-14.704-24.568-17.841c-7.432-2.087-15.969-3.011-22.367,2.257L252.186,243.85z"/>
							</g>
							<g>
								<g>
									<path style="fill:#6699CC;" d="M249.505,257.824c1.063-0.019,2.086-0.067,3.069-0.254c0.975-0.194,1.915-0.505,2.684-1.05
										c0.779-0.526,1.373-1.281,1.755-2.175c0.382-0.897,0.541-1.912,0.658-2.967c0.296,1.017,0.37,2.132,0.08,3.217
										c-0.272,1.089-0.981,2.095-1.926,2.747c-0.953,0.648-2.073,0.953-3.161,1C251.573,258.393,250.493,258.211,249.505,257.824
										z"/>
								</g>
								<g>
									<path style="fill:#6699CC;" d="M298.026,253.406c0.144,1.311,0.555,2.526,1.219,3.56c0.672,1.027,1.585,1.876,2.647,2.486
										c1.053,0.627,2.243,1.028,3.474,1.241c1.233,0.197,2.516,0.218,3.814,0.004c-2.372,1.19-5.421,1.003-7.795-0.384
										c-1.183-0.701-2.209-1.721-2.817-2.965C297.939,256.118,297.779,254.694,298.026,253.406z"/>
								</g>
								<g>
									<path style="fill:#6699CC;" d="M281.051,251.931c-1.14,1.874-1.745,3.995-2.177,6.119
										c-0.418,2.132-0.685,4.294-0.814,6.464c-0.133,2.17-0.138,4.346-0.075,6.514c0.092,2.156,0.23,4.361,0.753,6.392
										l0.21,0.819l-0.787-0.232c-0.857-0.253-1.515-0.648-2.205-1.035c-0.676-0.397-1.335-0.81-1.978-1.245
										c-1.283-0.873-2.531-1.779-3.766-2.72l-0.184-0.14l-0.002-0.223c-0.021-2.125,0.04-4.229,0.158-6.34
										c0.108-2.108,0.343-4.211,0.64-6.304c0.315-2.088,0.688-4.177,1.303-6.205c0.622-2.01,1.376-4.049,2.728-5.683
										c-1.195,1.74-1.837,3.767-2.328,5.79c-0.47,2.037-0.81,4.103-1.031,6.184c-0.234,2.08-0.342,4.172-0.448,6.262
										c-0.092,2.09-0.129,4.192-0.082,6.272l-0.185-0.362c1.226,0.91,2.479,1.799,3.751,2.642c0.637,0.42,1.271,0.842,1.92,1.229
										c0.641,0.376,1.325,0.77,1.947,0.957l-0.577,0.586c-0.539-2.219-0.637-4.414-0.708-6.619
										c-0.061-2.203,0.046-4.404,0.257-6.594c0.223-2.188,0.53-4.373,1.089-6.505
										C279.028,255.84,279.745,253.704,281.051,251.931z"/>
								</g>
							</g>
						</g>
					</g>
					<g>
						<path style="fill:#9187BD;" d="M291.887,150.809c1.713,0.336,3.623,1.046,5.338,1.571c3.811,1.04,7.205,0.577,10.135,4.29
							c6.059,7.797,1.008,17.762-2.973,25.051c-2.346,4.599-4.887,9.014-7.426,13.43c-1.992,3.644-3.801,7.095-3.695,11.256
							c0.098,3.971,1.506,7.342,3.291,10.705c2.375,4.104,15.449,31.327,17.082,40.259c-8.887,0.221-17.971,0.256-26.885-0.658
							c-8.346-0.738-16.73-3.18-24.73-5.254c-3.426-0.861-9.592-1.869-13.315-3.744c0,0,0.264-3.691,0.401-5.776
							c-0.027-1.134-0.046-1.891,0.309-2.846c0.355-0.955,1.853-1.559,2.013-2.699c0.145-1.896-1.615-4.124-1.661-6.014
							c-0.067-2.647,1.981-4.022,2.297-6.49c0.848-3.995,0.551-8.339,0.83-12.32c0.285-3.792,1.123-8.165,0.652-11.938
							c-0.246-2.263-1.973-3.167-3.535-5.21c-0.989-1.678-1.414-3.562-1.655-5.635c-0.487-4.34,1.703-7.612,3.313-11.436
							c1.598-4.203,6.184-17.215,6.295-20.434c1.945-0.688,3-1.557,4.496-2.163l6.975,21.777L291.887,150.809z"/>
					</g>
					<g>
						<g>
							<g>
								<g>
									<g>
										<path style="fill:#895E40;" d="M336.491,193.463c-1.541-0.572-3.877-0.413-5.502-0.271
											c-1.729,0.145-4.445,1.332-5.74,2.483c-0.016,0.016-0.029,0.037-0.043,0.053c-0.977,3.399-10.02,23.48-14.732,30.134
											c-2.217,2.012-4.397,2.83-6.904,2.241c-4.699-1.101-9.539-4.685-14.059-5.113c-2.129-0.226-11.311-1.048-12.17,2.035
											c-0.816,2.876,11.047,1.072,12.926,1.463c-2.73,1.606-6.236,2.975-8.633,5.086c-1.555,1.199-4.592,5.352-0.033,4.344
											c-0.477,2.292,1.02,3.473,3.24,2.196c-1.346,6.463,12.385-3.079,14.264-2.686c1.248,0.26,2.197,1.979,3.611,2.492
											c2.041,0.642,3.721-0.096,5.438-1.044c7.035-3.874,11.488-11.219,15.662-17.768c3.824-5.997,7.652-11.988,11.438-18.008
											c1.045-1.66,2.09-3.323,3.109-4.998c0.107-0.178,0.168-0.475,0.187-0.863C338.153,194.448,337.52,193.813,336.491,193.463
											z"/>
									</g>
								</g>
								<g>
									<g>
										<path style="fill:#664630;" d="M284.725,239.273c-0.105-0.918,0.405-1.835,1.067-2.466
											c0.657-0.661,1.448-1.153,2.25-1.581c0.818-0.407,1.593-0.815,2.452-1.164c0.842-0.345,1.7-0.628,2.566-0.876l0.018-0.005
											l-0.003,0c0.447-0.093,0.898-0.249,1.365-0.351c0.465-0.099,0.946-0.204,1.424-0.147c-0.944,0.13-1.755,0.609-2.683,0.9
											l0.015-0.005l-2.477,1.021c-0.795,0.349-1.623,0.761-2.419,1.138c-0.794,0.389-1.574,0.807-2.252,1.354
											C285.39,237.64,284.813,238.357,284.725,239.273z"/>
									</g>
									<g>
										<path style="fill:#664630;" d="M281.667,237.613c-0.334-0.602-0.169-1.372,0.156-1.961c0.336-0.6,0.802-1.105,1.29-1.568
											c0.999-0.912,2.128-1.639,3.306-2.276c1.191-0.601,2.387-1.159,3.59-1.702c1.194-0.528,2.463-1.134,3.814-1.103
											c-0.655,0.105-1.271,0.33-1.86,0.614c-0.596,0.268-1.169,0.584-1.75,0.902c-1.164,0.63-2.366,1.186-3.512,1.817
											c-1.169,0.574-2.27,1.296-3.287,2.094c-0.504,0.403-0.98,0.849-1.342,1.374
											C281.695,236.313,281.469,236.964,281.667,237.613z"/>
									</g>
								</g>
							</g>
							<g>
								<path style="fill:#895E40;" d="M310.348,181.493c0.324,0.806,1.254,1.393,1.781,2.093c1.047,1.195,1.992,2.393,3.141,3.585
									c1.889,2.192,4.174,4.171,6.361,6.152c0.936,0.79,1.969,1.477,2.906,2.37c0.834,0.794,1.986,2.088,3.117,2.568
									c1.746,0.669,4.834,0.552,6.654,0.101c1.213-0.337,5.17-1.62,4.305-3.635c-0.428-0.904-2.357-2.479-3.191-3.272
									c-1.045-1.094-2.088-2.084-3.131-3.179c-3.568-4.389-7.541-8.667-11.311-12.948c-0.627-0.696-1.256-1.394-1.783-2.092
									L310.348,181.493z"/>
							</g>
						</g>
						<g>
							<path style="fill:#A6A1D3;" d="M308.526,186.964c-1.195-1.421-2.969-2.828-3.74-4.693c-0.92-2.008-0.816-3.605-2.024-5.461
								c-1.348-1.707-2.115-3.428-2.457-5.595c-0.674-3.753-4.07-6.281-5.037-10.172c-0.969-4.036,1.445-5.982,5.045-7.086
								c5.617-1.589,10.105,3.955,12.955,7.8c0.898,1.138,2.082,2.124,2.98,3.262c0.898,1.138,1.078,2.584,2.256,3.279
								c0.588,0.275,1.455,0.109,1.895,0.388c0.74,0.561,0.756,1.141,1.207,1.856c0.75,0.996,1.637,1.699,2.674,2.543
								L308.526,186.964z"/>
						</g>
					</g>
				</g>
			</g>
		</g>
	</g>
</g>
</svg>
