<?xml version="1.0" encoding="utf-8"?>
<!-- Generator: Adobe Illustrator 27.5.0, SVG Export Plug-In . SVG Version: 6.00 Build 0)  -->
<svg version="1.1" xmlns="http://www.w3.org/2000/svg" xmlns:xlink="http://www.w3.org/1999/xlink" x="0px" y="0px"
	 viewBox="0 0 1200 800" style="enable-background:new 0 0 1200 800;" xml:space="preserve">
<g id="Background">
	<rect style="fill:#FAFDFF;" width="1200" height="800"/>
</g>
<g id="Graphic_elements">
	<g>
		<defs>
			<rect id="SVGID_1_" width="1200" height="800"/>
		</defs>
		<clipPath id="SVGID_00000069379141135426106240000012126419764309009567_">
			<use xlink:href="#SVGID_1_"  style="overflow:visible;"/>
		</clipPath>
		<g style="clip-path:url(#SVGID_00000069379141135426106240000012126419764309009567_);">
			<path style="fill:#86A5BF;" d="M1206.788,19.976l-3.394-0.358v60.903c-27.075-0.566-54.353-0.853-81.812-0.853
				c-40.135,0-79.873,0.626-119.168,1.827C936.678,87.094,872.3,94.47,809.572,103.459c120.156-2.471,246.071,2.691,375.3,16.308
				c7.323,0.772,14.625,1.573,21.916,2.393V19.976z"/>
			<path style="fill:#B8D0E6;" d="M-3.394,282.905V64.261l-1.933,0.141v297.841c193.807-117.099,480.862-210.913,814.899-258.784
				c62.728-8.989,127.106-16.365,192.842-21.963C593.876,93.985,234.271,170.089-3.394,282.905z"/>
			<path style="fill:#14476D;" d="M1002.414,81.496c39.295-1.201,79.032-1.827,119.168-1.827c27.459,0,54.737,0.287,81.812,0.853
				V19.619V-6.958h-87.849H973.294h-22.125H104.534H-3.394v71.219v218.644C234.271,170.089,593.876,93.985,1002.414,81.496z"/>
		</g>
		<g style="clip-path:url(#SVGID_00000069379141135426106240000012126419764309009567_);">
			<path style="fill:#86A5BF;" d="M1202.593,803.759H-4.236v-58.688c27.113,0.38,54.429,0.572,81.926,0.572
				c171.778,0,336.461-7.508,488.972-21.267c-161.145,8.042-333.387,4.07-511.582-13.555c-20.249-2.003-40.381-4.175-60.407-6.49
				V805.49h1207.92V803.759z"/>
			<path style="fill:#14476D;" d="M1202.593,609.815c-162.887,51.602-382.615,91.706-635.931,114.561
				c-152.511,13.76-317.194,21.267-488.972,21.267c-27.498,0-54.813-0.193-81.926-0.572v58.688h1206.829V609.815z"/>
		</g>
	</g>
</g>
</svg>
